<svg width="60" height="60" viewBox="0 0 60 60" fill="none" xmlns="http://www.w3.org/2000/svg">
<g clip-path="url(#clip0_113_471)">
<path d="M55.0313 32.5193H4.96844V17.362C4.96844 10.2525 10.7318 4.48895 17.8415 4.48895H42.1584C49.2679 4.48895 55.0314 10.2524 55.0314 17.362V32.5193H55.0313Z" fill="#FF4DAB"/>
<path d="M42.1583 4.48907H36.1883C43.2979 4.48907 49.0613 10.2525 49.0613 17.3621V32.5194H55.0312V17.3621C55.0314 10.2525 49.268 4.48907 42.1583 4.48907Z" fill="#DD2A91"/>
<path d="M26.812 28.1037H14.826C13.0653 28.1037 11.6381 26.6765 11.6381 24.9159V19.6409C11.6381 17.8803 13.0653 16.4531 14.826 16.4531H26.812C28.5727 16.4531 29.9999 17.8803 29.9999 19.6409V24.9159C30 26.6765 28.5727 28.1037 26.812 28.1037Z" fill="white"/>
<path d="M26.8121 16.4531H23.221C24.9816 16.4531 26.4088 17.8803 26.4088 19.6409V24.9159C26.4088 26.6765 24.9816 28.1037 23.221 28.1037H26.8121C28.5727 28.1037 29.9999 26.6765 29.9999 24.9159V19.6409C30 17.8803 28.5727 16.4531 26.8121 16.4531Z" fill="#D1D3D4"/>
<path d="M45.1739 28.1037H33.1879C31.4272 28.1037 30 26.6765 30 24.9159V19.6409C30 17.8803 31.4272 16.4531 33.1879 16.4531H45.1739C46.9345 16.4531 48.3618 17.8803 48.3618 19.6409V24.9159C48.3619 26.6765 46.9345 28.1037 45.1739 28.1037Z" fill="white"/>
<path d="M45.174 16.4531H41.5829C43.3435 16.4531 44.7707 17.8803 44.7707 19.6409V24.9159C44.7707 26.6765 43.3435 28.1037 41.5829 28.1037H45.174C46.9346 28.1037 48.3619 26.6765 48.3619 24.9159V19.6409C48.3619 17.8803 46.9346 16.4531 45.174 16.4531Z" fill="#D1D3D4"/>
<path d="M57.3969 43.6813H2.60294V36.0606C2.60294 30.0037 7.51309 25.0936 13.5699 25.0936H46.4299C52.4868 25.0936 57.3969 30.0038 57.3969 36.0606V43.6813Z" fill="#5CC8F7"/>
<path d="M46.4298 25.0927H40.1627C46.2196 25.0927 51.1297 30.0028 51.1297 36.0596V43.6804H57.3968V36.0596C57.3968 30.0028 52.4868 25.0927 46.4298 25.0927Z" fill="#29A7D3"/>
<path d="M5.68228 37.1379H54.3177V50.4096H5.68228V37.1379Z" fill="#FFC73B"/>
<path d="M46.9419 37.1379H54.3177V50.4096H46.9419V37.1379Z" fill="#F7941D"/>
<path d="M6.46145 55.5106H2.56755C1.6386 55.5106 0.885437 54.7575 0.885437 53.8285V37.2797C0.885437 36.3508 1.63848 35.5976 2.56755 35.5976H6.46145C7.3904 35.5976 8.14356 36.3506 8.14356 37.2797V53.8286C8.14345 54.7575 7.3904 55.5106 6.46145 55.5106Z" fill="#FFC73B"/>
<path d="M6.46143 35.5976H2.83237C3.76131 35.5976 4.51448 36.3506 4.51448 37.2797V53.8286C4.51448 54.7575 3.76143 55.5107 2.83237 55.5107H6.46131C7.39026 55.5107 8.14342 54.7576 8.14342 53.8286V37.2797C8.14342 36.3506 7.39037 35.5976 6.46143 35.5976Z" fill="#F7941D"/>
<path d="M57.4323 55.5106H53.5384C52.6095 55.5106 51.8563 54.7575 51.8563 53.8285V37.2797C51.8563 36.3508 52.6094 35.5976 53.5384 35.5976H57.4323C58.3613 35.5976 59.1144 36.3506 59.1144 37.2797V53.8286C59.1143 54.7575 58.3613 55.5106 57.4323 55.5106Z" fill="#FFC73B"/>
<path d="M57.4322 35.5976H53.8033C54.7322 35.5976 55.4854 36.3506 55.4854 37.2797V53.8286C55.4854 54.7575 54.7323 55.5107 53.8033 55.5107H57.4322C58.3612 55.5107 59.1143 54.7576 59.1143 53.8286V37.2797C59.1143 36.3506 58.3613 35.5976 57.4322 35.5976Z" fill="#F7941D"/>
<path d="M58.2179 34.8355C57.9928 32.6477 57.1703 30.6346 55.9161 28.9626V23.8853C55.9161 23.3967 55.52 23.0006 55.0314 23.0006C54.5415 23.0006 54.1454 23.3967 54.1454 23.8853V27.0706C52.7545 25.8751 51.0843 24.9962 49.247 24.5466V19.6409C49.247 17.3944 47.42 15.5675 45.1736 15.5675H33.1876C31.8986 15.5675 30.7466 16.1698 30.0001 17.1085C29.2525 16.171 28.1017 15.5687 26.8126 15.5687H20.3708C19.881 15.5687 19.4849 15.9648 19.4849 16.4534C19.4849 16.9433 19.881 17.3394 20.3708 17.3394H26.8126C28.0818 17.3394 29.1142 18.3718 29.1142 19.6409V24.2077H13.5704C13.2177 24.2077 12.8688 24.2241 12.5239 24.2544V19.6409C12.5239 18.3718 13.5564 17.3394 14.8267 17.3394C15.3154 17.3394 15.7114 16.9433 15.7114 16.4534C15.7114 15.9648 15.3154 15.5687 14.8267 15.5687C12.5802 15.5687 10.7532 17.3956 10.7532 19.6409V24.5468C8.91563 24.9965 7.24488 25.8758 5.85363 27.0718V17.3616C5.85363 10.7523 11.2314 5.37452 17.8419 5.37452H42.1583C48.4583 5.37452 53.7107 10.2917 54.1173 16.5694C54.1489 17.0581 54.5696 17.4273 55.0583 17.3968C55.547 17.3651 55.9161 16.9433 55.8845 16.4558C55.4181 9.24874 49.3888 3.60382 42.1583 3.60382H17.8419C10.2552 3.60382 4.08293 9.77609 4.08293 17.3616V28.964C2.82914 30.6359 2.0066 32.6486 1.78125 34.8358C0.749063 35.1686 0 36.1381 0 37.2796V53.8286C0 55.2445 1.15172 56.3962 2.56758 56.3962H6.46148C7.87723 56.3962 9.02918 55.2445 9.02918 53.8286V51.2952H50.9711V53.8286C50.9711 55.2445 52.1228 56.3962 53.5386 56.3962H57.4325C58.8484 56.3962 60.0002 55.2445 60.0002 53.8286V37.2796C60 36.1378 59.2506 35.1682 58.2179 34.8355ZM33.1876 17.3381H45.1736C46.4439 17.3381 47.4763 18.3717 47.4763 19.6408V24.2542C47.1314 24.2239 46.7825 24.2076 46.4298 24.2076H30.8861V19.6408C30.8861 18.3717 31.9185 17.3381 33.1876 17.3381ZM7.25801 53.8286C7.25801 54.2678 6.9007 54.6252 6.46137 54.6252H2.56758C2.12836 54.6252 1.77105 54.2678 1.77105 53.8286V37.2796C1.77105 36.8404 2.12836 36.4831 2.56758 36.4831H6.46148C6.90082 36.4831 7.25813 36.8404 7.25813 37.2796V53.8286H7.25801ZM9.02906 49.5241V44.6593H22.6039C23.0931 44.6593 23.4894 44.2628 23.4894 43.7737C23.4894 43.2846 23.093 42.8882 22.6039 42.8882H9.02906V38.0234H13.4595C13.9486 38.0234 14.345 37.627 14.345 37.138C14.345 36.6489 13.9486 36.2525 13.4595 36.2525H8.81391C8.41676 35.3468 7.51207 34.7123 6.46148 34.7123H3.58125C4.24207 29.7883 8.4682 25.9785 13.5704 25.9785H46.4298C51.532 25.9785 55.7582 29.7883 56.419 34.7123H53.5385C52.4879 34.7123 51.5831 35.3469 51.1861 36.2525H20.8327C20.3435 36.2525 19.9472 36.6489 19.9472 37.138C19.9472 37.627 20.3436 38.0234 20.8327 38.0234H50.9709V42.8882H46.6029C46.1138 42.8882 45.7174 43.2847 45.7174 43.7737C45.7174 44.2627 46.1139 44.6593 46.6029 44.6593H50.9709V49.5241H9.02906ZM58.2289 53.8286C58.2289 54.2678 57.8716 54.6252 57.4323 54.6252H53.5384C53.0992 54.6252 52.7419 54.2678 52.7419 53.8286V37.2796C52.7419 36.8404 53.0992 36.4831 53.5384 36.4831H57.4323C57.8716 36.4831 58.2289 36.8404 58.2289 37.2796V53.8286Z" fill="#092D4B"/>
<path d="M42.2452 42.8882H30.0385C29.5493 42.8882 29.153 43.2846 29.153 43.7737C29.153 44.2627 29.5495 44.6592 30.0385 44.6592H42.2453C42.7345 44.6592 43.1308 44.2628 43.1308 43.7737C43.1308 43.2845 42.7343 42.8882 42.2452 42.8882Z" fill="#092D4B"/>
</g>
<defs>
<clipPath id="clip0_113_471">
<rect width="60" height="60" fill="white"/>
</clipPath>
</defs>
</svg>
