<svg width="16" height="16" viewBox="0 0 16 16" fill="none" xmlns="http://www.w3.org/2000/svg">
<path d="M8.67999 13.8467C8.67999 14.2733 9.07333 14.6 9.48666 14.5067C10.2333 14.3333 10.94 14.04 11.5667 13.64C11.92 13.4133 11.9733 12.9067 11.6733 12.6067C11.46 12.3933 11.12 12.34 10.8667 12.5C10.3533 12.8267 9.78666 13.0667 9.17999 13.2C8.87999 13.2667 8.67999 13.54 8.67999 13.8467Z" fill="#797A7C"/>
<path d="M2.68667 8.00554C2.68667 5.47888 4.45333 3.35888 6.82 2.81221C7.11333 2.74554 7.32 2.47221 7.32 2.17221C7.32 1.74554 6.92 1.41888 6.50667 1.51888C3.55333 2.19888 1.35333 4.84554 1.35333 8.00554C1.35333 11.1655 3.55333 13.8122 6.50667 14.4989C6.92 14.5989 7.32 14.2722 7.32 13.8455C7.32 13.5389 7.11333 13.2722 6.82 13.2055C4.45333 12.6522 2.68667 10.5322 2.68667 8.00554Z" fill="#797A7C"/>
<path d="M13.86 7.33317C14.2867 7.33317 14.6133 6.93983 14.52 6.5265C14.3467 5.77983 14.0533 5.07983 13.6533 4.4465C13.4267 4.0865 12.92 4.03983 12.62 4.33983C12.4067 4.55317 12.3533 4.89317 12.52 5.1465C12.8467 5.65317 13.0867 6.21983 13.22 6.83317C13.28 7.13317 13.5533 7.33317 13.86 7.33317Z" fill="#797A7C"/>
<path d="M11.5667 2.36659C10.9333 1.96659 10.2333 1.67326 9.48666 1.49992C9.07333 1.40659 8.67999 1.73326 8.67999 2.15326C8.67999 2.45326 8.87999 2.73326 9.17333 2.79326C9.77999 2.92659 10.3533 3.17326 10.86 3.49326C11.12 3.65326 11.4533 3.60659 11.6667 3.38659C11.9733 3.09326 11.9267 2.59326 11.5667 2.36659Z" fill="#797A7C"/>
<path d="M12.6133 11.6598C12.9133 11.9598 13.42 11.9132 13.6467 11.5532C14.0467 10.9265 14.34 10.2198 14.5133 9.47317C14.6067 9.05984 14.28 8.6665 13.86 8.6665C13.56 8.6665 13.28 8.8665 13.22 9.15984C13.0867 9.7665 12.84 10.3398 12.52 10.8465C12.3467 11.1065 12.4 11.4465 12.6133 11.6598Z" fill="#797A7C"/>
<path d="M10.6667 7.39984C10.6667 5.73984 9.4 4.6665 8 4.6665C6.6 4.6665 5.33333 5.73984 5.33333 7.39984C5.33333 8.40651 6.06666 9.58651 7.54 10.9332C7.8 11.1732 8.19333 11.1732 8.46 10.9332C9.93333 9.57984 10.6667 8.40651 10.6667 7.39984ZM8 7.99984C7.60666 7.99984 7.28666 7.67984 7.28666 7.28651C7.28666 6.89317 7.60666 6.57317 8 6.57317C8.39333 6.57317 8.71333 6.89317 8.71333 7.28651C8.71333 7.67984 8.39333 7.99984 8 7.99984Z" fill="#797A7C"/>
</svg>
