<svg width="60" height="60" viewBox="0 0 60 60" fill="none" xmlns="http://www.w3.org/2000/svg">
<g clip-path="url(#clip0_68_204)">
<path d="M47.6985 38.94C44.4414 48.1035 51.0538 52.2085 47.3748 57.1225C45.2998 59.895 40.7598 59.7038 39.1548 55.8338C37.3098 51.3825 42.511 47.2638 39.551 38.94C33.0373 36.6975 28.2498 29.2075 28.2498 20.3125C28.2498 9.64625 35.1335 1 43.6248 1C52.116 1 58.9998 9.64625 58.9998 20.3125C58.9998 29.2075 54.2123 36.6975 47.6985 38.94Z" fill="#E3F7FC"/>
<path d="M47.3749 57.1225C45.2999 59.895 40.7599 59.7038 39.1549 55.8338C37.3099 51.3825 42.5111 47.2638 39.5511 38.94C42.2076 39.8536 45.0421 39.8536 47.6986 38.94C44.4415 48.1035 51.0544 52.2078 47.3749 57.1225Z" fill="#FE4F60"/>
<path d="M34.5041 35.8411C32.692 34.1599 34.1339 31.1525 36.582 31.4951C44.1769 32.5581 50.1056 29.4945 53.8193 23.6816C55.3386 21.3034 59.0414 22.8156 58.4175 25.5679C55.4765 38.5409 43.1729 43.8839 34.5041 35.8411Z" fill="#CAF1FC"/>
<path d="M22.7501 32.125V34.8163C22.7501 36.7913 21.3089 38.4713 19.3564 38.77L10.3264 40.4625C9.02012 40.7075 8.03137 41.7813 7.89512 43.1025L6.50637 56.5238C6.36012 57.9313 5.17512 59 3.76012 59C2.23637 59 1.00012 57.7638 1.00012 56.24C1.00012 55.6491 1.00012 10.5011 1.00012 5C1.00012 2.79125 2.79137 1 5.00012 1H18.7501C20.9589 1 22.7501 2.79125 22.7501 5V7C21.5767 7 12.3027 7 11.0001 7C9.34387 7 8.00012 8.34375 8.00012 10V29.125C8.00012 30.7813 9.34387 32.125 11.0001 32.125H22.7501Z" fill="#FFAA64"/>
<path d="M18.8057 4.74943C16.751 4.74955 13.5985 4.74993 8.75112 4.74993C6.542 4.74993 4.75012 6.5408 4.75012 8.74993V56.2424C4.75012 58.6856 1.00012 58.8079 1.00012 56.2399V4.99993C1.00012 2.7908 2.791 0.999926 5.00012 0.999926C19.7326 0.999926 18.7956 0.998051 18.9265 1.0038C21.3439 1.10868 21.2255 4.7493 18.8057 4.74943Z" fill="#FFBD7B"/>
<path d="M47.6988 38.9399C47.2085 40.3204 46.9418 41.585 46.8307 42.7547C46.7889 43.1948 46.4619 43.554 46.0283 43.6397C44.443 43.9533 42.8083 43.9536 41.2218 43.6397C40.788 43.554 40.4611 43.1948 40.4193 42.7546C40.3081 41.5847 40.0414 40.3202 39.5511 38.9398C42.1973 39.8499 45.0314 39.8573 47.6988 38.9399Z" fill="#E84857"/>
<path d="M43.8321 12.2071L37.3321 18.7071C36.9414 19.0977 36.3085 19.0976 35.9179 18.7071C35.5274 18.3166 35.5274 17.6835 35.9179 17.293L42.4179 10.793C42.8085 10.4025 43.4415 10.4025 43.8321 10.793C44.2226 11.1834 44.2226 11.8166 43.8321 12.2071ZM18.75 0H5C2.243 0 0 2.243 0 5V50.4375C0 50.9897 0.44775 51.4375 1 51.4375C1.55225 51.4375 2 50.9897 2 50.4375V5C2 3.34588 3.34588 2 5 2H18.75C20.4041 2 21.75 3.34588 21.75 5V6H11C8.79437 6 7 7.79437 7 10V12C7 12.5522 7.44775 13 8 13H22.75C23.3022 13 23.75 12.5522 23.75 12C23.75 11.4478 23.3022 11 22.75 11H9V10C9 8.89725 9.89725 8 11 8H22.75C23.3022 8 23.75 7.55225 23.75 7V5C23.75 2.243 21.507 0 18.75 0ZM22.75 18C23.3022 18 23.75 17.5522 23.75 17C23.75 16.4478 23.3022 16 22.75 16H8C7.44775 16 7 16.4478 7 17V29.125C7 31.3306 8.79437 33.125 11 33.125H21.75V34.8164C21.75 36.178 20.8681 37.4729 19.1719 37.7874L10.1419 39.4796C8.414 39.8034 7.08088 41.2509 6.89975 42.9996L5.51162 56.4206C5.41838 57.321 4.6655 58 3.76038 58C2.78963 58 2 57.2103 2 56.2396C2 55.6874 1.55225 55.2396 1 55.2396C0.44775 55.2396 0 55.6874 0 56.2396C0 58.313 1.68688 60 3.76038 60C5.69375 60 7.30188 58.5497 7.50087 56.6265L8.88912 43.2054C8.97975 42.331 9.64625 41.6073 10.5103 41.4454L19.5247 39.756C21.9743 39.3722 23.75 37.2976 23.75 34.8164V32.125C23.75 31.5728 23.3022 31.125 22.75 31.125H11C9.89725 31.125 9 30.2278 9 29.125V28H22.75C23.3022 28 23.75 27.5522 23.75 27C23.75 26.4478 23.3022 26 22.75 26H9V23H22.75C23.3022 23 23.75 22.5522 23.75 22C23.75 21.4478 23.3022 21 22.75 21H9V18H22.75ZM43.625 0C34.4058 0 27.25 9.28763 27.25 20.3125C27.25 25.9921 29.1822 31.4495 32.5511 35.2853C32.9155 35.7003 33.5474 35.741 33.9624 35.3766C34.3773 35.0121 34.4182 34.3804 34.0537 33.9654C31.001 30.4895 29.25 25.5131 29.25 20.3125C29.25 10.215 35.6986 2 43.625 2C51.5514 2 58 10.215 58 20.3125C58 32.3517 49.0081 41.1009 39.9175 38.0083C39.1012 37.6876 38.3011 38.5002 38.6215 39.3081C41.4595 47.3429 36.1712 51.2477 38.2318 56.217C40.1468 60.8364 45.6565 61.087 48.1759 57.7211C51.4351 53.3663 47.795 49.6628 47.7846 44.1227C47.7835 43.5711 47.336 43.1246 46.7846 43.1246C46.2318 43.1246 45.7835 43.5734 45.7846 44.1265C45.7959 49.9907 49.0919 53.1595 46.5746 56.5226C44.9614 58.6777 41.3853 58.6014 40.0791 55.451C38.5806 51.8364 42.8433 47.7855 41.0252 40.3706C51.2245 42.3835 60 32.5506 60 20.3125C60 9.2825 52.84 0 43.625 0V0ZM52.3946 20.3946C52.7851 20.0041 52.7851 19.371 52.3946 18.9805C52.004 18.59 51.371 18.59 50.9804 18.9805L50.5897 19.3711C49.9576 20.0033 50.4142 21.0783 51.2969 21.0783C51.7977 21.0781 52.0181 20.7711 52.3946 20.3946ZM42.375 30C42.631 30 42.8869 29.9024 43.0821 29.7071L48.9571 23.8321C49.3476 23.4416 49.3476 22.8085 48.9571 22.418C48.5665 22.0275 47.9335 22.0275 47.5429 22.418L41.6679 28.293C41.0357 28.925 41.4924 30 42.375 30ZM44.7304 16.4804L42.9179 18.2929C42.5274 18.6834 42.5274 19.3165 42.9179 19.707C43.3086 20.0976 43.9415 20.0975 44.3321 19.707L46.1446 17.8945C46.5351 17.504 46.5351 16.8709 46.1446 16.4804C45.754 16.0899 45.121 16.0899 44.7304 16.4804Z" fill="#092D4B"/>
</g>
<defs>
<clipPath id="clip0_68_204">
<rect width="60" height="60" fill="white"/>
</clipPath>
</defs>
</svg>
