<svg width="60" height="61" viewBox="0 0 60 61" fill="none" xmlns="http://www.w3.org/2000/svg">
<g clip-path="url(#clip0_233_1206)">
<path fill-rule="evenodd" clip-rule="evenodd" d="M45.2609 58.0628L57.9103 45.4289C58.9829 44.3575 58.9829 42.6029 57.9103 41.5316L55.8247 39.4518C54.7521 38.3804 52.9986 38.3804 51.926 39.4518L51.8696 39.5048L39.3298 52.0294L39.2766 52.0858C38.204 53.1571 38.204 54.9085 39.2766 55.9798L41.3622 58.0628C41.5748 58.2752 41.8171 58.4477 42.0761 58.5769H44.5469C44.806 58.4477 45.0451 58.2752 45.2609 58.0628Z" fill="#DAD0D3"/>
<path fill-rule="evenodd" clip-rule="evenodd" d="M39.3301 52.0294L51.8698 39.5049L46.3837 34.0253C38.1678 29.3718 31.5161 40.0389 33.3459 46.0524L39.3301 52.0294Z" fill="#FFDCD5"/>
<path fill-rule="evenodd" clip-rule="evenodd" d="M15.2435 58.5769H17.7143C17.9734 58.4477 18.2124 58.2752 18.4283 58.0628L20.5139 55.9798C21.5865 54.9085 21.5865 53.1571 20.5139 52.0858L20.4574 52.0294L7.91762 39.5049L7.86441 39.4519C6.7918 38.3805 5.03504 38.3805 3.96242 39.4519L1.88023 41.5317C0.8075 42.603 0.8075 44.3576 1.88023 45.429L14.5262 58.063C14.742 58.2752 14.9844 58.4477 15.2435 58.5769Z" fill="#9D9AE8"/>
<path fill-rule="evenodd" clip-rule="evenodd" d="M35.3781 45.0142L43.1224 37.2826L46.3836 34.0253L47.4098 33.0005C48.542 31.866 48.542 30.0153 47.4098 28.8842C46.2774 27.7498 44.4209 27.7498 43.2885 28.8842L44.3213 27.8493C45.457 26.7183 45.457 24.8642 44.3213 23.7331C43.1888 22.5987 41.3324 22.5987 40.2001 23.7331L41.2328 22.6982C42.3686 21.5672 42.3686 19.7131 41.2328 18.582C40.1005 17.4509 38.2441 17.4509 37.1116 18.582L38.1478 17.5505C39.2801 16.4162 39.2801 14.5653 38.1478 13.4309C37.4603 12.7476 36.5106 12.4757 35.6172 12.6216C35.0327 12.7146 34.4715 12.9831 34.0231 13.4309L29.8953 17.5571L30.0281 17.6897L30.0513 17.7131C31.1838 18.844 31.1838 20.6982 30.0513 21.8293C28.9189 22.9637 27.0625 22.9637 25.93 21.8293C27.0625 22.9637 27.0625 24.8144 25.93 25.9488C24.7944 27.0799 22.9413 27.0799 21.8055 25.9488C22.9413 27.0799 22.9413 28.934 21.8055 30.0651C20.6731 31.1961 18.82 31.1961 17.6842 30.0651C18.82 31.1961 18.82 33.0503 17.6842 34.1813C16.5519 35.3157 14.6955 35.3157 13.563 34.1813L13.4069 34.0253L7.91748 39.5049L20.4571 52.0294L25.6975 46.7954C27.1819 45.2597 30.6589 46.6031 33.3455 46.0524C34.1096 45.8965 34.8069 45.5847 35.3781 45.0142Z" fill="#FFD0C7"/>
<path fill-rule="evenodd" clip-rule="evenodd" d="M25.9299 21.8293C27.0625 22.9636 28.9188 22.9636 30.0512 21.8293C31.1837 20.6982 31.1837 18.844 30.0512 17.7131L30.028 17.6897C28.2779 17.5638 24.9305 14.5288 24.7312 12.3993C23.5953 11.2649 21.7424 11.2649 20.6067 12.3993C19.4742 13.5304 19.4742 15.3845 20.6067 16.5155L21.6428 17.5504L25.9299 21.8293Z" fill="#FFDCD5"/>
<path fill-rule="evenodd" clip-rule="evenodd" d="M21.8057 25.9487C22.9414 27.0798 24.7945 27.0798 25.9302 25.9487C27.0627 24.8144 27.0627 22.9636 25.9302 21.8292L21.643 17.5505C20.5072 16.4161 18.6541 16.4161 17.5218 17.5505C16.386 18.6815 16.386 20.5323 17.5218 21.6667L18.5545 22.6983L21.8057 25.9487Z" fill="#FFDCD5"/>
<path fill-rule="evenodd" clip-rule="evenodd" d="M17.6844 30.0651C18.8202 31.196 20.6733 31.196 21.8057 30.0651C22.9415 28.934 22.9415 27.0798 21.8057 25.9487L18.5545 22.6982C17.4222 21.5672 15.5658 21.5672 14.4333 22.6982C13.2976 23.8326 13.2976 25.6834 14.4333 26.8178L16.5022 28.8842L17.6844 30.0651Z" fill="#FFDCD5"/>
<path fill-rule="evenodd" clip-rule="evenodd" d="M13.5632 34.1813C14.6957 35.3157 16.552 35.3157 17.6844 34.1813C18.8202 33.0503 18.8202 31.196 17.6844 30.0651L16.5022 28.8842C15.3664 27.7498 13.5134 27.7498 12.3777 28.8842C11.2452 30.0153 11.2452 31.866 12.3777 33.0005L13.4072 34.0253L13.5632 34.1813Z" fill="#FFDCD5"/>
<path fill-rule="evenodd" clip-rule="evenodd" d="M29.8955 17.5571L34.0233 13.4309C34.4717 12.9831 35.0329 12.7145 35.6174 12.6216L27.6439 11.1125C26.0698 10.8139 24.5787 10.804 24.7315 12.3994C24.9307 14.5288 28.2782 17.5638 30.0283 17.6898L29.8955 17.5571Z" fill="#FFDCD5"/>
<path d="M29.895 7.77498C30.5468 7.77498 31.0752 7.24658 31.0752 6.59478V1.33095C31.0752 0.679155 30.5468 0.150757 29.895 0.150757C29.2432 0.150757 28.7148 0.679155 28.7148 1.33095V6.59478C28.715 7.24658 29.2434 7.77498 29.895 7.77498Z" fill="#202124"/>
<path d="M58.7435 40.6959L56.6586 38.6168C55.9169 37.8761 54.9284 37.4681 53.8752 37.4681C53.2017 37.4681 52.5552 37.6356 51.9822 37.9496L48.0534 34.0254L48.2448 33.8343C49.8386 32.2373 49.838 29.6422 48.2446 28.0505C47.6752 27.4801 46.9647 27.0997 46.1902 26.9396C46.2969 26.5715 46.353 26.186 46.353 25.7914C46.353 24.6951 45.9271 23.6671 45.1563 22.8994C44.5868 22.329 43.8764 21.9486 43.1019 21.7885C43.2085 21.4204 43.2646 21.035 43.2646 20.6403C43.2646 19.5439 42.8388 18.516 42.0666 17.7472C41.4835 17.1647 40.7667 16.7961 40.014 16.6392C40.4166 15.2508 40.0726 13.6888 38.9804 12.5948C38.0714 11.6895 36.8376 11.3004 35.6487 11.4265L27.8634 9.95291C26.6761 9.72767 25.1933 9.57873 24.2574 10.4324C24.1984 10.4863 24.1381 10.5483 24.0787 10.6174C22.6275 10.0884 20.9349 10.4034 19.7727 11.5642C19.0017 12.3343 18.577 13.3618 18.577 14.4575C18.577 14.8522 18.6329 15.2376 18.7394 15.6058C17.9657 15.7658 17.2562 16.1457 16.6886 16.7143C15.9161 17.4836 15.4902 18.5099 15.4893 19.6044C15.489 20 15.5451 20.3867 15.6522 20.7558C14.8782 20.9154 14.1682 21.2947 13.5989 21.8633C12.8264 22.6349 12.401 23.663 12.401 24.7581C12.401 25.5971 12.6514 26.3961 13.1155 27.0711C12.5295 27.2697 11.9928 27.6003 11.5434 28.0492C9.94848 29.6422 9.94789 32.2374 11.5445 33.8368L11.7351 34.0266L7.80582 37.9488C6.34555 37.2612 4.54637 37.5188 3.34133 38.7223L1.25516 40.8026C0.513125 41.5437 0.104609 42.5323 0.104492 43.5862C0.104492 44.6402 0.513125 45.6289 1.25516 46.3701L3.85871 48.9705C4.31984 49.4311 5.06715 49.4307 5.5277 48.9695C5.98836 48.5084 5.98789 47.7611 5.52676 47.3006L2.9232 44.7002C2.62766 44.405 2.46488 44.0093 2.46488 43.5863C2.46488 43.1634 2.62766 42.7679 2.9225 42.4734L5.00879 40.3929C5.53004 39.8722 6.32785 39.7947 6.93371 40.1569C6.97637 40.221 7.0257 40.2821 7.08219 40.3386C7.1832 40.4399 7.29863 40.5176 7.42133 40.5745L19.3854 52.5209C19.4422 52.6448 19.5202 52.7614 19.6221 52.8633C19.7212 52.9627 19.8343 53.0394 19.9543 53.0958C20.2073 53.3819 20.3471 53.7473 20.3471 54.137C20.3471 54.5601 20.1843 54.9556 19.8888 55.2508L17.8046 57.3325C17.1888 57.9456 16.1871 57.9455 15.5731 57.3344L12.9695 54.7306C12.5086 54.2697 11.7614 54.2697 11.3005 54.7305C10.8396 55.1914 10.8395 55.9386 11.3004 56.3995L13.9058 59.0051C14.6728 59.7687 15.6799 60.1505 16.6873 60.1505C17.6952 60.1505 18.7034 59.7683 19.4713 59.0038L21.5567 56.9208C22.2987 56.1796 22.7074 55.191 22.7074 54.1369C22.7074 53.3847 22.4982 52.6663 22.1091 52.0469L26.5313 47.6301C26.536 47.6253 26.5408 47.6205 26.5455 47.6158C27.0519 47.0923 28.462 47.1903 29.8257 47.285C30.7946 47.3522 31.8748 47.4272 32.9302 47.3056L37.7729 52.1425C37.4592 52.7145 37.2917 53.3602 37.2917 54.0326C37.2917 55.0856 37.7004 56.0736 38.4424 56.8148L40.528 58.8978C41.2695 59.6385 42.258 60.0466 43.3113 60.0466C44.3645 60.0466 45.3529 59.6385 46.0946 58.8978L58.7439 46.2638C59.486 45.5227 59.8946 44.5341 59.8946 43.4801C59.8948 42.4263 59.4862 41.4377 58.7435 40.6959ZM27.4239 12.272L32.5435 13.2411L29.4792 16.3042C29.0052 16.0764 28.3555 15.6515 27.6427 14.9697C26.6671 14.0364 25.9692 12.9589 25.9058 12.2868C25.9057 12.2865 25.9057 12.2861 25.9057 12.2858C25.9057 12.2856 25.9057 12.2855 25.9057 12.2854C25.9011 12.2371 25.8999 12.1986 25.9005 12.1692C26.0546 12.1317 26.4648 12.0901 27.4239 12.272ZM21.4406 13.2343C22.0385 12.637 22.9673 12.5681 23.6429 13.0256C24.0257 14.6308 25.3951 16.0857 26.0111 16.6751C26.4677 17.112 27.9327 18.4218 29.4113 18.7818C29.6114 19.0686 29.7202 19.4104 29.7202 19.7711C29.7202 20.2358 29.5415 20.6702 29.2159 20.9955C28.8911 21.3208 28.456 21.4999 27.9905 21.4999C27.525 21.4999 27.0898 21.3208 26.7636 20.994L26.7635 20.9938L26.7629 20.9933L21.4405 15.6804C21.116 15.3564 20.9373 14.922 20.9373 14.4575C20.9374 13.9928 21.1161 13.5584 21.4406 13.2343ZM18.3567 18.3843C18.6814 18.0591 19.1161 17.8799 19.5808 17.8799C20.0462 17.8799 20.4822 18.0595 20.8091 18.386L25.0948 22.6632C25.7697 23.3391 25.7697 24.439 25.0972 25.1126C24.7707 25.4378 24.3341 25.6169 23.8678 25.6169C23.4015 25.6169 22.9648 25.4378 22.6398 25.114L22.6396 25.1139L19.3883 21.8633C19.3832 21.8582 19.3777 21.8535 19.3726 21.8484L18.3554 20.8317C18.029 20.5056 17.8494 20.0704 17.8497 19.6061C17.8502 19.1433 18.0293 18.7103 18.3567 18.3843ZM15.2669 23.5333C15.5919 23.2088 16.0275 23.0301 16.4936 23.0301C16.9559 23.0301 17.3878 23.2062 17.7113 23.5251L20.9727 26.7849C21.2979 27.1088 21.477 27.5427 21.477 28.0068C21.477 28.4708 21.2979 28.9047 20.9714 29.2299C20.6465 29.5543 20.2114 29.733 19.7461 29.733C19.28 29.733 18.8435 29.5538 18.5182 29.2299L17.3359 28.049C17.3356 28.0486 17.3353 28.0484 17.335 28.0482L15.267 25.9826C14.941 25.657 14.7615 25.222 14.7615 24.7579C14.7615 24.294 14.941 23.8588 15.2669 23.5333ZM13.2114 29.7193C13.5378 29.3933 13.974 29.2137 14.4396 29.2137C14.9049 29.2137 15.341 29.3931 15.6673 29.7189L16.8513 30.9015C17.1765 31.2254 17.3557 31.6593 17.3557 32.1234C17.3557 32.5874 17.1765 33.0213 16.8488 33.3477C16.5241 33.6729 16.089 33.8521 15.6235 33.8521C15.1579 33.8521 14.7228 33.6731 14.3957 33.3454L14.2475 33.1978C14.2455 33.1958 14.244 33.1936 14.2421 33.1918C14.2399 33.1897 14.2375 33.1878 14.2353 33.1857L13.2126 32.167C12.5377 31.4906 12.5371 30.3926 13.2114 29.7193ZM37.2623 43.1322C36.8016 42.671 36.0543 42.6706 35.5933 43.1311L34.5433 44.1797C33.5456 45.1775 31.7377 45.0519 29.9893 44.9306C28.0907 44.7986 26.1275 44.6624 24.8571 45.9667L20.51 50.3085L9.63934 39.4538L13.4864 35.6137C14.1222 36.0035 14.8559 36.2124 15.6236 36.2124C16.7203 36.2124 17.7488 35.7872 18.517 35.0177C19.2903 34.2475 19.7163 33.2197 19.7163 32.1233C19.7163 32.1131 19.7156 32.103 19.7156 32.0928C19.7258 32.0929 19.736 32.0935 19.7462 32.0935C20.8414 32.0935 21.869 31.6696 22.6382 30.9013C23.4116 30.1312 23.8375 29.1032 23.8375 28.0069C23.8375 27.9967 23.8368 27.9867 23.8368 27.9765C23.8471 27.9765 23.8575 27.9772 23.8679 27.9772C24.9628 27.9772 25.991 27.5538 26.7654 26.7826C27.5693 25.9774 27.9669 24.9173 27.9593 23.8594C27.9698 23.8594 27.9804 23.8601 27.9909 23.8601C29.0877 23.8601 30.116 23.435 30.8853 22.6642C31.6563 21.8942 32.081 20.8667 32.081 19.771C32.081 19.0048 31.8726 18.2723 31.4841 17.6376L34.856 14.2672C35.1072 14.017 35.4171 13.8599 35.7418 13.7951C35.777 13.7914 35.8116 13.7858 35.846 13.779C36.367 13.7071 36.9141 13.8678 37.3126 14.2647C37.9875 14.9408 37.9875 16.0407 37.315 16.7143L36.2881 17.737C36.2847 17.7404 36.2811 17.7434 36.2777 17.7469L35.095 18.9277C34.6338 19.3883 34.6333 20.1356 35.094 20.5967C35.5548 21.0579 36.302 21.0583 36.763 20.5977L37.794 19.5681C37.7942 19.5679 37.7945 19.5677 37.7947 19.5674L37.9505 19.4122C38.6273 18.7416 39.7237 18.743 40.3998 19.4181C40.7251 19.742 40.9043 20.176 40.9043 20.6401C40.9043 21.104 40.7251 21.5379 40.3972 21.8644L39.3644 22.8993C39.3643 22.8994 39.3642 22.8995 39.3641 22.8998L38.1814 24.0776C37.7196 24.5376 37.718 25.2849 38.178 25.7466C38.638 26.2085 39.3852 26.2099 39.847 25.75L41.035 24.5668C41.3598 24.2415 41.7949 24.0624 42.2603 24.0624C42.7259 24.0624 43.1612 24.2415 43.4882 24.5691C43.8136 24.8931 43.9926 25.3271 43.9926 25.791C43.9926 26.255 43.8136 26.6889 43.4864 27.0147L41.4274 29.0745C40.9666 29.5355 40.9667 30.2827 41.4276 30.7435C41.6581 30.9739 41.96 31.089 42.262 31.089C42.5641 31.089 42.8662 30.9736 43.0966 30.7431L44.1057 29.7337C44.1114 29.7282 44.1177 29.7234 44.1234 29.7176C44.4481 29.3923 44.8832 29.2133 45.3487 29.2133C45.8142 29.2133 46.2494 29.3923 46.5753 29.7188C47.2495 30.3923 47.2489 31.4903 46.5754 32.1651L45.5495 33.1899C45.5491 33.1902 45.5486 33.1906 45.5483 33.191C45.5479 33.1913 45.5476 33.1918 45.5472 33.1921L43.9188 34.8186C43.4577 35.2792 43.4572 36.0264 43.9177 36.4877C44.1482 36.7184 44.4506 36.8338 44.7528 36.8338C45.0547 36.8338 45.3564 36.7188 45.5868 36.4887L46.3834 35.6931L50.201 39.5063L39.3312 50.3628L35.4366 46.4729C35.7082 46.2983 35.968 46.0929 36.2118 45.8491L37.2612 44.801C37.7225 44.3406 37.723 43.5933 37.2623 43.1322ZM57.0761 44.5938L44.4268 57.2277C44.1309 57.5233 43.7348 57.6861 43.3115 57.6861C42.8882 57.6861 42.4921 57.5233 42.1961 57.2276L40.1105 55.1446C39.815 54.8495 39.6522 54.4546 39.6522 54.0326C39.6522 53.6108 39.815 53.2158 40.1105 52.9206L52.7599 40.2867C53.0559 39.991 53.452 39.8282 53.8753 39.8282C54.2986 39.8282 54.6946 39.991 54.9912 40.2874L57.0761 42.3664C57.3717 42.6616 57.5345 43.057 57.5345 43.48C57.5345 43.9032 57.3717 44.2987 57.0761 44.5938Z" fill="#202124"/>
<path d="M14.2242 6.78006C14.4546 7.00998 14.7562 7.12482 15.0579 7.12482C15.3602 7.12482 15.6627 7.00928 15.8932 6.7783C16.3536 6.31693 16.3529 5.56975 15.8915 5.10932L11.591 0.817324C11.1297 0.356777 10.3824 0.35748 9.922 0.818964C9.46157 1.28033 9.46228 2.02752 9.92364 2.48795L14.2242 6.78006Z" fill="#202124"/>
<path d="M44.7329 7.12496C45.0347 7.12496 45.3365 7.00988 45.5669 6.77985L49.8642 2.48774C50.3253 2.02719 50.3258 1.27988 49.8651 0.818751C49.4046 0.357501 48.6574 0.35715 48.1961 0.817814L43.8989 5.10992C43.4377 5.57047 43.4373 6.31778 43.8979 6.77891C44.1284 7.00953 44.4307 7.12496 44.7329 7.12496Z" fill="#202124"/>
<path d="M7.36201 50.9169C6.90509 51.3816 6.91142 52.129 7.3763 52.5859L7.3797 52.5892C7.60904 52.8146 7.90681 52.9269 8.20447 52.9269C8.50997 52.9269 8.81548 52.8086 9.04693 52.5732C9.50384 52.1084 9.49575 51.3595 9.03099 50.9026C8.56622 50.4457 7.81904 50.4521 7.36201 50.9169Z" fill="#202124"/>
<path d="M40.1495 41.4321C40.329 41.4321 40.5111 41.3912 40.6821 41.305C41.2641 41.0115 41.4979 40.3018 41.2044 39.7198C40.9109 39.1379 40.2011 38.904 39.6192 39.1975L39.6127 39.2008C39.0307 39.4944 38.8002 40.2024 39.0936 40.7844C39.3008 41.1955 39.7175 41.4321 40.1495 41.4321Z" fill="#202124"/>
</g>
<defs>
<clipPath id="clip0_233_1206">
<rect width="60" height="60" fill="white" transform="translate(0 0.150757)"/>
</clipPath>
</defs>
</svg>
