<svg width="107" height="90" viewBox="0 0 107 90" fill="none" xmlns="http://www.w3.org/2000/svg">
<path d="M52.6764 5.16113L54.3196 8.47551L57.9875 9.00713L55.3319 11.5864L55.9602 15.2289L52.6764 13.5094L49.3951 15.2289L50.0208 11.5864L47.3652 9.00713L51.0357 8.47551L52.6764 5.16113Z" fill="#C6C6C6"/>
<path d="M52.5888 67.4677L52.4082 17.6809C52.4082 17.6809 61.8807 16.9839 65.2969 0C65.2969 0 66.0498 20.2398 65.9913 21.8677C65.9328 23.4982 52.5888 67.4677 52.5888 67.4677Z" fill="#C6C6C6"/>
<path d="M51.3775 22.9641C51.3775 22.9641 45.4279 21.6897 41.3174 4.74902C41.3174 4.74902 41.8795 25.6018 41.9151 27.2832C41.9508 28.962 52.0465 67.7552 52.0465 67.7552L51.3775 22.9641Z" fill="#C6C6C6"/>
<path d="M61.4013 70.296L52.0051 72.4886L43.2168 70.296L46.2285 65.5674H58.2701L61.4013 70.296Z" fill="#C6C6C6"/>
<path d="M38.9003 86.799C40.0577 85.8451 41.3728 85.138 42.7183 84.5835C43.2194 84.3774 43.7333 84.1892 44.2572 84.0239C42.8811 83.2938 41.8764 82.2001 40.8437 81.0122C40.4596 80.6713 37.598 77.2018 37.6285 77.1993C39.4091 76.8025 40.9632 76.4845 42.7921 76.805C43.9368 77.0009 44.9084 77.4587 45.8954 78.0768C46.7068 78.583 47.5233 79.196 48.4543 79.8319C49.0927 80.2669 49.7592 80.6993 50.4866 80.9282C51.2116 81.1572 52.0154 81.1623 52.664 80.7578C52.7454 80.7069 52.8319 80.6484 52.926 80.6764C53.0049 80.6993 53.0684 80.7807 53.1168 80.8646C54.0198 82.4086 53.0735 85.461 52.2011 86.3971C49.866 89.0145 47.5258 90.1948 44.1555 89.887C41.1998 89.5766 39.3226 89.4749 36.5602 89.9989C36.3007 90.0498 37.308 88.4371 37.3843 88.3328C37.8549 87.7707 38.3458 87.2568 38.9003 86.799Z" fill="#C6C6C6"/>
<path d="M25.2446 81.1828C26.4808 80.6868 27.7984 80.4579 29.1033 80.3689C29.5891 80.3358 30.08 80.3256 30.5761 80.3333C29.551 79.2878 28.9252 78.0287 28.297 76.673C28.0451 76.2609 26.318 72.3284 26.3434 72.3335C28.0146 72.5319 29.4619 72.7278 30.9932 73.5646C31.9522 74.0835 32.6949 74.7779 33.4071 75.6123C33.9922 76.2965 34.5569 77.0749 35.208 77.9041C35.6557 78.4713 36.1263 79.0436 36.6961 79.4532C37.2633 79.8627 37.9501 80.0993 38.5987 79.9365C38.6801 79.9161 38.7691 79.8907 38.8429 79.9416C38.9065 79.9848 38.9396 80.0738 38.9599 80.1603C39.3593 81.7577 37.8305 84.1411 36.864 84.7083C34.2465 86.321 31.9623 86.6899 29.1109 85.4409C26.6181 84.309 24.9978 83.6629 22.4516 83.3043C22.21 83.2712 23.4691 82.1494 23.5607 82.0808C24.1025 81.7272 24.6519 81.4219 25.2446 81.1828Z" fill="#C6C6C6"/>
<path d="M14.4318 72.0332C15.64 71.9772 16.866 72.1833 18.0463 72.5114C18.4863 72.6335 18.9264 72.7759 19.3664 72.9362C18.6898 71.6898 18.4126 70.3722 18.1506 68.9605C18.0183 68.5179 17.3366 64.4455 17.3544 64.4531C18.8043 65.1654 20.0634 65.8038 21.2487 67.0349C21.9915 67.8031 22.5002 68.6527 22.9479 69.6193C23.3167 70.4104 23.6423 71.2777 24.034 72.2138C24.3011 72.8548 24.5885 73.506 25.0006 74.0427C25.4101 74.5794 25.9621 74.9965 26.5726 75.05C26.6489 75.0576 26.7328 75.0601 26.7862 75.1288C26.832 75.1848 26.8422 75.2738 26.8397 75.3577C26.8219 76.8865 24.9218 78.5246 23.9399 78.7357C21.2614 79.3691 19.1604 79.0104 16.9144 77.0264C14.9583 75.256 13.661 74.1749 11.4811 73.0583C11.2751 72.954 12.6385 72.3435 12.7351 72.3105C13.2947 72.1604 13.8518 72.0586 14.4318 72.0332Z" fill="#C6C6C6"/>
<path d="M6.84033 60.3325C7.91629 60.6759 8.95155 61.2609 9.92577 61.9401C10.287 62.1919 10.6482 62.4641 11.0043 62.7515C10.6711 61.4034 10.7118 60.1188 10.783 58.7503C10.7626 58.3077 11.0297 54.3651 11.045 54.3753C12.1718 55.5097 13.1486 56.5068 13.9422 58.0152C14.4407 58.9564 14.7129 59.8924 14.9062 60.9124C15.0665 61.7467 15.1708 62.637 15.3183 63.6036C15.4201 64.2675 15.5345 64.9441 15.7838 65.5571C16.0331 66.1701 16.4324 66.7196 16.9666 66.9612C17.0327 66.9917 17.1065 67.0223 17.1396 67.0986C17.1675 67.1647 17.1574 67.2461 17.137 67.3199C16.7834 68.6833 14.7307 69.5507 13.8099 69.4286C11.2866 69.1513 9.50353 68.1669 7.94681 65.6563C6.60377 63.4281 5.69314 62.0291 4.0296 60.302C3.87189 60.1392 5.19967 60.0298 5.29125 60.0298C5.81269 60.0781 6.32397 60.1697 6.84033 60.3325Z" fill="#C6C6C6"/>
<path d="M2.85105 47.0597C3.68537 47.7389 4.43829 48.6291 5.12507 49.5855C5.37944 49.9417 5.63126 50.313 5.8729 50.6971C5.88308 49.3414 6.20612 48.1636 6.57241 46.9122C6.65126 46.4976 7.77555 42.8983 7.79082 42.9085C8.48269 44.3558 9.09825 45.6225 9.45182 47.2912C9.67566 48.3341 9.70872 49.2956 9.65531 50.3003C9.61206 51.1244 9.51286 51.9791 9.43401 52.9177C9.38059 53.5613 9.33481 54.2201 9.42129 54.8662C9.50778 55.5097 9.74179 56.1456 10.1615 56.5399C10.2149 56.5882 10.2734 56.6416 10.2861 56.723C10.2963 56.7917 10.2709 56.8629 10.2378 56.924C9.63496 58.0508 7.6382 58.1678 6.85984 57.7557C4.71046 56.6747 3.3725 55.1892 2.59415 52.3607C1.93789 49.8602 1.48003 48.2552 0.480374 46.0906C0.383716 45.8871 1.53344 46.2279 1.60975 46.261C2.03963 46.4797 2.4517 46.7341 2.85105 47.0597Z" fill="#C6C6C6"/>
<path d="M2.84542 33.1817C3.3338 34.1152 3.70772 35.2217 4.02568 36.3663C4.14269 36.7911 4.25461 37.2286 4.35635 37.6763C4.70992 36.3918 5.27969 35.3743 5.91052 34.3034C6.0784 33.9397 7.97087 30.8466 7.98613 30.8543C8.13875 32.4924 8.30409 33.927 8.17182 35.649C8.09042 36.725 7.88185 37.6534 7.59442 38.5895C7.35786 39.3577 7.07042 40.1335 6.78045 40.9932C6.58204 41.5808 6.38873 42.1887 6.31242 42.8221C6.23611 43.4555 6.28698 44.1296 6.55152 44.6408C6.58459 44.7044 6.62274 44.7731 6.61511 44.8545C6.60748 44.9232 6.56932 44.9817 6.52608 45.0249C5.75536 45.8745 4.02822 45.3098 3.46862 44.6637C1.90682 42.9264 1.14627 41.0873 1.23021 38.1469C1.33704 35.5549 1.39555 33.8685 1.20732 31.4546C1.18951 31.2256 2.01365 31.9404 2.06707 31.9989C2.34941 32.3525 2.61141 32.7366 2.84542 33.1817Z" fill="#C6C6C6"/>
<path d="M7.20418 19.6597C7.23979 20.7433 7.14313 21.9591 7.00577 23.1903C6.9549 23.6481 6.8964 24.1161 6.83281 24.5893C7.52722 23.4446 8.31321 22.6307 9.17042 21.7734C9.41715 21.4758 11.9862 18.9983 12.004 19.0034C11.5131 20.7 11.1417 22.1881 10.4728 23.8542C10.0582 24.8945 9.60284 25.7415 9.08648 26.5657C8.66423 27.2423 8.20383 27.9062 7.72054 28.6438C7.38986 29.15 7.05919 29.6766 6.81755 30.2667C6.5759 30.8568 6.42582 31.5258 6.50213 32.1083C6.5123 32.1821 6.52248 32.2609 6.4945 32.3347C6.47161 32.3983 6.42328 32.4415 6.37749 32.4695C5.52028 33.024 4.27644 31.8972 4.0119 31.0858C3.25643 28.883 3.20302 26.8531 4.23065 24.0068C5.17435 21.5064 5.81535 19.8632 6.58607 17.4136C6.65984 17.1822 7.01849 18.1564 7.04138 18.2302C7.12786 18.6753 7.18637 19.1408 7.20418 19.6597Z" fill="#C6C6C6"/>
<path d="M16.309 7.43962C15.7876 8.5461 15.1237 9.75179 14.4547 10.9549C14.2054 11.4026 13.951 11.8579 13.6916 12.3183C14.7243 11.3721 15.6934 10.7794 16.7465 10.1588C17.0619 9.93494 20.2186 8.12894 20.2415 8.13148C18.9976 9.73652 18.0082 11.161 16.7541 12.6668C15.9758 13.608 15.2712 14.3329 14.5386 15.0121C13.9383 15.5691 13.3177 16.0982 12.6589 16.6909C12.2061 17.0978 11.7508 17.5201 11.3387 18.0364C10.9292 18.5503 10.5655 19.1709 10.4103 19.7788C10.3899 19.8552 10.3721 19.9391 10.3213 20.0027C10.2806 20.0587 10.2271 20.0866 10.1814 20.0994C9.3216 20.3741 8.76963 18.8479 8.87901 17.9551C9.14355 15.5157 9.92699 13.4808 11.9873 10.9371C13.8417 8.71398 15.1313 7.24121 17.011 4.99263C17.1891 4.77896 16.9424 5.8651 16.922 5.9465C16.7541 6.42216 16.5583 6.91054 16.309 7.43962Z" fill="#C6C6C6"/>
<path d="M68.4115 86.799C67.2542 85.8451 65.9391 85.138 64.5935 84.5835C64.0924 84.3774 63.5786 84.1892 63.0546 84.0239C64.4307 83.2938 65.4355 82.2001 66.4682 81.0122C66.8523 80.6713 69.7139 77.2018 69.6834 77.1993C67.9028 76.8025 66.3486 76.4845 64.5197 76.805C63.3751 77.0009 62.4034 77.4587 61.4165 78.0768C60.6051 78.583 59.7886 79.196 58.8576 79.8319C58.2191 80.2669 57.5527 80.6993 56.8252 80.9282C56.1003 81.1572 55.2965 81.1623 54.6479 80.7578C54.5665 80.7069 54.48 80.6484 54.3859 80.6764C54.307 80.6993 54.2434 80.7807 54.1951 80.8646C53.2921 82.4086 54.2383 85.461 55.1108 86.3971C57.4459 89.0145 59.786 90.1948 63.1563 89.887C66.1121 89.5766 67.9893 89.4749 70.7517 89.9989C71.0111 90.0498 70.0038 88.4371 69.9275 88.3328C69.457 87.7707 68.966 87.2568 68.4115 86.799Z" fill="#C6C6C6"/>
<path d="M82.0676 81.1828C80.8314 80.6868 79.5138 80.4579 78.2089 80.3689C77.723 80.3358 77.2321 80.3256 76.7361 80.3333C77.7612 79.2878 78.3869 78.0287 79.0152 76.673C79.267 76.2609 80.9942 72.3284 80.9687 72.3335C79.2976 72.5319 77.8502 72.7278 76.3189 73.5646C75.36 74.0835 74.6172 74.7779 73.905 75.6123C73.32 76.2965 72.7553 77.0749 72.1041 77.9041C71.6564 78.4713 71.1859 79.0436 70.6161 79.4532C70.0489 79.8627 69.3621 80.0993 68.7134 79.9365C68.632 79.9161 68.543 79.8907 68.4692 79.9416C68.4057 79.9848 68.3726 80.0738 68.3522 80.1603C67.9529 81.7577 69.4816 84.1411 70.4482 84.7083C73.0656 86.321 75.3498 86.6899 78.2012 85.4409C80.694 84.309 82.3143 83.6629 84.8605 83.3043C85.1022 83.2712 83.8431 82.1494 83.7515 82.0808C83.2097 81.7272 82.6603 81.4219 82.0676 81.1828Z" fill="#C6C6C6"/>
<path d="M92.879 72.0332C91.6707 71.9772 90.4447 72.1833 89.2645 72.5114C88.8244 72.6335 88.3844 72.7759 87.9443 72.9362C88.6209 71.6898 88.8982 70.3722 89.1602 68.9605C89.2924 68.5179 89.9741 64.4455 89.9563 64.4531C88.5039 65.1654 87.2473 65.8038 86.062 67.0349C85.3192 67.8031 84.8105 68.6527 84.3628 69.6193C83.994 70.4104 83.6684 71.2777 83.2767 72.2138C83.0096 72.8548 82.7222 73.506 82.3101 74.0427C81.9006 74.5794 81.3486 74.9965 80.7381 75.05C80.6618 75.0576 80.5779 75.0601 80.5245 75.1288C80.4787 75.1848 80.4685 75.2738 80.4711 75.3577C80.4889 76.8865 82.389 78.5246 83.3708 78.7357C86.0493 79.3691 88.1503 79.0104 90.3964 77.0264C92.3524 75.256 93.6497 74.1749 95.8296 73.0583C96.0356 72.954 94.6722 72.3435 94.5756 72.3105C94.0134 72.1604 93.4589 72.0586 92.879 72.0332Z" fill="#C6C6C6"/>
<path d="M100.47 60.3325C99.3937 60.6759 98.3585 61.2609 97.3843 61.9401C97.0231 62.1919 96.6619 62.4641 96.3058 62.7515C96.639 61.4034 96.5983 60.1188 96.527 58.7503C96.5474 58.3077 96.2803 54.3651 96.2651 54.3753C95.1408 55.5097 94.1615 56.5068 93.3678 58.0152C92.8693 58.9564 92.5971 59.8924 92.4038 60.9124C92.2435 61.7467 92.1393 62.637 91.9917 63.6036C91.89 64.2675 91.7755 64.9441 91.5262 65.5571C91.277 66.1701 90.8776 66.7196 90.3434 66.9612C90.2773 66.9917 90.2035 67.0223 90.1705 67.0986C90.1425 67.1647 90.1527 67.2461 90.173 67.3199C90.5266 68.6833 92.5793 69.5507 93.5001 69.4286C96.0234 69.1513 97.8065 68.1669 99.3632 65.6563C100.706 63.4281 101.617 62.0291 103.28 60.302C103.438 60.1392 102.11 60.0298 102.019 60.0298C101.495 60.0781 100.986 60.1697 100.47 60.3325Z" fill="#C6C6C6"/>
<path d="M104.457 47.0597C103.623 47.7389 102.87 48.6291 102.183 49.5855C101.928 49.9417 101.677 50.313 101.435 50.6971C101.425 49.3414 101.102 48.1636 100.736 46.9122C100.657 46.4976 99.5324 42.8983 99.5171 42.9085C98.8252 44.3558 98.2097 45.6225 97.8561 47.2912C97.6323 48.3341 97.5992 49.2956 97.6526 50.3003C97.6959 51.1244 97.7951 51.9791 97.8739 52.9177C97.9273 53.5613 97.9731 54.2201 97.8866 54.8662C97.8001 55.5097 97.5661 56.1456 97.1464 56.5399C97.093 56.5882 97.0345 56.6416 97.0218 56.723C97.0116 56.7917 97.0371 56.8629 97.0701 56.924C97.673 58.0508 99.6697 58.1678 100.448 57.7557C102.597 56.6747 103.935 55.1892 104.714 52.3607C105.37 49.8602 105.828 48.2552 106.828 46.0906C106.924 45.8871 105.774 46.2279 105.698 46.261C105.271 46.4797 104.859 46.7341 104.457 47.0597Z" fill="#C6C6C6"/>
<path d="M104.464 33.1817C103.976 34.1152 103.602 35.2217 103.284 36.3663C103.167 36.7911 103.055 37.2286 102.953 37.6763C102.6 36.3918 102.03 35.3743 101.399 34.3034C101.231 33.9397 99.3386 30.8466 99.3233 30.8543C99.1681 32.4924 99.0028 33.927 99.1376 35.649C99.219 36.725 99.4276 37.6534 99.715 38.5895C99.9516 39.3577 100.239 40.1335 100.529 40.9932C100.727 41.5808 100.921 42.1887 100.997 42.8221C101.073 43.4555 101.022 44.1296 100.758 44.6408C100.725 44.7044 100.687 44.7731 100.694 44.8545C100.702 44.9232 100.74 44.9817 100.783 45.0249C101.554 45.8745 103.281 45.3098 103.841 44.6637C105.403 42.9264 106.163 41.0873 106.079 38.1469C105.972 35.5549 105.914 33.8685 106.102 31.4546C106.12 31.2256 105.296 31.9404 105.242 31.9989C104.96 32.3525 104.698 32.7366 104.464 33.1817Z" fill="#C6C6C6"/>
<path d="M100.106 19.6597C100.07 20.7433 100.167 21.9591 100.304 23.1903C100.355 23.6481 100.413 24.1161 100.477 24.5893C99.7825 23.4446 98.9965 22.6307 98.1393 21.7734C97.8926 21.4758 95.3235 18.9983 95.3057 19.0034C95.7966 20.7 96.168 22.1881 96.8369 23.8542C97.2516 24.8945 97.7069 25.7415 98.2232 26.5657C98.6455 27.2423 99.1059 27.9062 99.5892 28.6438C99.9198 29.15 100.251 29.6766 100.492 30.2667C100.734 30.8568 100.884 31.5258 100.808 32.1083C100.797 32.1821 100.787 32.2609 100.815 32.3347C100.838 32.3983 100.886 32.4415 100.932 32.4695C101.789 33.024 103.033 31.8972 103.298 31.0858C104.053 28.883 104.107 26.8531 103.079 24.0068C102.135 21.5064 101.494 19.8632 100.724 17.4136C100.65 17.1822 100.291 18.1564 100.268 18.2302C100.182 18.6753 100.123 19.1408 100.106 19.6597Z" fill="#C6C6C6"/>
<path d="M91.0028 7.43962C91.5242 8.5461 92.1881 9.75179 92.8571 10.9549C93.1064 11.4026 93.3608 11.8579 93.6202 12.3183C92.5875 11.3721 91.6184 10.7794 90.5653 10.1588C90.2499 9.93494 87.0932 8.12894 87.0703 8.13148C88.3142 9.73652 89.3036 11.161 90.5577 12.6668C91.336 13.608 92.0406 14.3329 92.7732 15.0121C93.3735 15.5691 93.9941 16.0982 94.6529 16.6909C95.1057 17.0978 95.561 17.5201 95.9731 18.0364C96.3826 18.5503 96.7464 19.1709 96.9015 19.7788C96.9219 19.8552 96.9397 19.9391 96.9905 20.0027C97.0312 20.0587 97.0846 20.0866 97.1304 20.0994C97.9902 20.3741 98.5422 18.8479 98.4328 17.9551C98.1682 15.5157 97.3848 13.4808 95.3244 10.9371C93.4701 8.71398 92.1805 7.24121 90.3007 4.99263C90.1227 4.77896 90.3694 5.8651 90.3898 5.9465C90.5602 6.42216 90.7561 6.91054 91.0028 7.43962Z" fill="#C6C6C6"/>
</svg>
