<svg width="60" height="61" viewBox="0 0 60 61" fill="none" xmlns="http://www.w3.org/2000/svg">
<g clip-path="url(#clip0_233_1180)">
<path d="M25.7974 43.3861C33.9702 42.6547 41.9422 39.1624 48.1982 32.9064C56.6886 24.4161 60.0894 12.7653 58.4056 1.74126C47.3814 0.0573953 35.7307 3.45828 27.2404 11.9486C20.9843 18.2047 17.4921 26.1767 16.7607 34.3495L25.7974 43.3861Z" fill="#E67E95"/>
<path d="M43.159 37.1141C45.3192 42.9854 44.0422 49.8354 39.328 54.5497C37.0489 56.8287 34.2711 58.3034 31.346 58.9751L28.0298 55.6589C30.5359 52.9994 31.8293 49.614 31.9091 46.2058C31.9389 44.9335 31.7997 43.6583 31.4914 42.4163L43.159 37.1141Z" fill="#93B5FD"/>
<path d="M23.0324 16.9878C17.1611 14.8276 10.3111 16.1046 5.59677 20.8188C3.31775 23.0978 1.84306 25.8757 1.17139 28.8008L4.48755 32.117C7.14705 29.6109 10.5325 28.3175 13.9407 28.2377C15.213 28.2079 16.4882 28.3471 17.7302 28.6554L23.0324 16.9878Z" fill="#93B5FD"/>
<path d="M58.4057 1.74123C53.108 0.931993 47.6658 1.29771 42.499 2.83756L42.2559 3.26421L56.9707 17.9791L57.2398 17.8795C58.8381 12.6438 59.227 7.11799 58.4057 1.74123Z" fill="#F2CC73"/>
<path d="M36.8959 32.117C31.9993 32.117 28.0298 28.1475 28.0298 23.2509C28.0298 18.3542 31.9992 14.3847 36.8959 14.3847C41.7926 14.3847 45.762 18.3542 45.762 23.2509C45.762 28.1475 41.7925 32.117 36.8959 32.117Z" fill="white"/>
<path d="M36.8957 27.0006C34.8248 27.0006 33.146 25.3218 33.146 23.2509C33.146 21.18 34.8248 19.5011 36.8957 19.5011C38.9666 19.5011 40.6455 21.18 40.6455 23.2509C40.6455 25.3218 38.9666 27.0006 36.8957 27.0006Z" fill="#F2CC73"/>
<path d="M21.6401 49.2691L10.8779 38.5069L17.8072 35.3958L24.7512 42.3398L21.6401 49.2691Z" fill="#93B5FD"/>
<path d="M12.5973 40.2263C12.5671 40.226 12.5372 40.224 12.5068 40.224C8.61086 40.224 5.37918 43.2387 5.10873 47.1253L4.51709 55.6296L13.0215 55.038C16.908 54.7676 19.9226 51.5359 19.9226 47.6399C19.9226 47.6096 19.9207 47.5797 19.9203 47.5494L12.5973 40.2263Z" fill="#F5D996"/>
<path d="M26.8579 23.2509C26.8579 28.7858 31.361 33.2888 36.8958 33.2888C42.4307 33.2888 46.9336 28.7858 46.9336 23.2509C46.9336 17.7159 42.4307 13.213 36.8958 13.213C31.361 13.213 26.8579 17.7159 26.8579 23.2509ZM44.5902 23.2509C44.5902 27.4936 41.1385 30.9452 36.8959 30.9452C32.6532 30.9452 29.2016 27.4934 29.2016 23.2509C29.2016 19.0083 32.6532 15.5565 36.8959 15.5565C41.1385 15.5565 44.5902 19.0082 44.5902 23.2509Z" fill="#202124"/>
<path d="M31.9746 23.2508C31.9746 25.9646 34.1824 28.1724 36.8961 28.1724C39.6099 28.1724 41.8177 25.9646 41.8177 23.2508C41.8177 20.5371 39.6099 18.3293 36.8961 18.3293C34.1824 18.3293 31.9746 20.5371 31.9746 23.2508ZM39.4741 23.2508C39.4741 24.6723 38.3176 25.8288 36.8961 25.8288C35.4746 25.8288 34.3182 24.6723 34.3182 23.2508C34.3182 21.8293 35.4746 20.6729 36.8961 20.6729C38.3176 20.6729 39.4741 21.8293 39.4741 23.2508Z" fill="#202124"/>
<path d="M59.564 1.56419C59.4865 1.05774 59.0891 0.660155 58.5825 0.582817C52.8918 -0.286417 46.9906 0.173394 41.5179 1.9128C35.8608 3.71079 30.6373 6.89455 26.4118 11.1199C25.0106 12.5213 23.7318 14.018 22.5803 15.6004C16.3294 13.6584 9.42671 15.3319 4.76849 19.9902C2.4112 22.3475 0.772567 25.3035 0.0297691 28.5386C-0.0605759 28.9319 0.0577749 29.3441 0.343223 29.6295L3.65939 32.9457C3.88789 33.1742 4.18787 33.2889 4.48808 33.2889C4.77669 33.2889 5.06566 33.1828 5.29158 32.9699C7.6477 30.7497 10.7293 29.4851 13.9686 29.4092C14.7545 29.3913 15.5381 29.4445 16.311 29.5652C15.9751 31.1023 15.735 32.6641 15.5936 34.2451C15.569 34.5195 15.6434 34.7905 15.7973 35.0138L10.3979 37.438C10.0464 37.5958 9.79488 37.9163 9.7254 38.2951C9.65567 38.6741 9.77672 39.063 10.0493 39.3354L10.11 39.3961C6.74272 40.3827 4.19408 43.3902 3.93992 47.0438L3.34816 55.5483C3.32461 55.8866 3.4487 56.2185 3.68845 56.4582C3.90898 56.6788 4.20732 56.8015 4.51691 56.8015C4.54397 56.8015 4.57116 56.8005 4.59835 56.7986L13.1028 56.207C16.7564 55.9527 19.7639 53.4041 20.7504 50.0368L20.8112 50.0976C21.0331 50.3193 21.3319 50.4409 21.6398 50.4409C21.7102 50.4409 21.781 50.4345 21.8516 50.4215C22.2305 50.3519 22.5511 50.1005 22.7088 49.7489L25.1327 44.3502C25.3276 44.4845 25.5589 44.5579 25.7971 44.5579C25.8319 44.5579 25.8668 44.5564 25.9017 44.5532C27.4828 44.4116 29.0447 44.1717 30.5819 43.8358C30.7027 44.6092 30.7561 45.393 30.7377 46.1781C30.6617 49.4177 29.3972 52.4991 27.1769 54.8552C26.7424 55.3163 26.7532 56.0393 27.2011 56.4874L30.5173 59.8036C30.7395 60.0257 31.0386 60.1468 31.3459 60.1468C31.4332 60.1468 31.5211 60.1371 31.6081 60.117C34.8431 59.3742 37.799 57.7355 40.1563 55.3783C44.8145 50.7202 46.4882 43.8174 44.5462 37.5665C46.1286 36.415 47.6253 35.1362 49.0267 33.735C49.536 33.2256 50.0363 32.6961 50.5135 32.161C50.9444 31.6782 50.9021 30.9375 50.4192 30.5066C49.9362 30.0757 49.1956 30.1181 48.7648 30.6009C48.3169 31.1029 47.8475 31.5999 47.3694 32.0778C44.4082 35.0391 40.9956 37.4197 37.2266 39.1535C33.7493 40.7531 30.0539 41.7656 26.2344 42.1664L17.9801 33.9121C18.3808 30.0926 19.3935 26.397 20.9931 22.9198C22.7269 19.1508 25.1074 15.7383 28.0687 12.7771C31.9459 8.89983 36.5177 6.06035 41.6648 4.33055L55.817 18.4829C55.4024 19.7107 54.9195 20.9196 54.3667 22.1043C54.0931 22.6908 54.3467 23.388 54.9332 23.6616C55.5201 23.9352 56.217 23.6815 56.4906 23.0951C59.6264 16.3749 60.689 8.9296 59.564 1.56419ZM38.2063 41.2826C39.6934 40.5985 41.128 39.8196 42.5056 38.9507C43.8677 44.1889 42.3717 49.8489 38.4993 53.7213C36.6056 55.615 34.2674 56.9742 31.7048 57.6768L29.6332 55.6052C31.784 52.9572 33 49.6704 33.0807 46.2332C33.104 45.2365 33.03 44.2411 32.8629 43.2613C34.6878 42.74 36.4726 42.0801 38.2063 41.2826ZM18.7389 48.0253C18.5475 51.1189 16.0695 53.6513 12.9402 53.869L5.77951 54.3672L6.27776 47.2065C6.49559 44.0752 9.03076 41.5959 12.1211 41.4073L18.7389 48.0253ZM21.2669 47.2388L12.9079 38.8799L17.5497 36.7957L23.351 42.5969L21.2669 47.2388ZM18.8643 21.9405C18.0667 23.6742 17.407 25.459 16.8856 27.2841C15.906 27.117 14.9109 27.0428 13.9136 27.0662C10.4766 27.1467 7.18988 28.3627 4.54175 30.5137L2.47014 28.4421C3.17263 25.8795 4.53191 23.5412 6.42564 21.6474C10.2982 17.775 15.9582 16.2792 21.1962 17.6413C20.3272 19.0188 19.5484 20.4533 18.8643 21.9405ZM44.2271 3.57838C48.4992 2.49787 52.9881 2.22168 57.3682 2.7791C57.9353 7.20976 57.6601 11.6579 56.5736 15.9248L44.2271 3.57838Z" fill="#202124"/>
<path d="M52.8544 28.3737C53.5016 28.3737 54.0262 27.849 54.0262 27.2019C54.0262 26.5547 53.5016 26.0301 52.8544 26.0301C52.2072 26.0301 51.6826 26.5547 51.6826 27.2019C51.6826 27.849 52.2072 28.3737 52.8544 28.3737Z" fill="#202124"/>
</g>
<defs>
<clipPath id="clip0_233_1180">
<rect width="60" height="60" fill="white" transform="translate(0 0.150757)"/>
</clipPath>
</defs>
</svg>
