<svg width="16" height="16" viewBox="0 0 16 16" fill="none" xmlns="http://www.w3.org/2000/svg">
<g clip-path="url(#clip0_518_628)">
<path d="M3.9335 1.54632C3.76865 1.55699 3.64399 1.70125 3.64399 1.86645V3.42156C3.64399 3.61711 3.48546 3.77567 3.28988 3.77567C3.09432 3.77567 2.93577 3.61714 2.93577 3.42156V1.86645C2.93577 1.70125 2.81111 1.55699 2.64625 1.54632C2.46561 1.53463 2.31543 1.67769 2.31543 1.85582V3.42156C2.31543 3.61711 2.15691 3.77567 1.96132 3.77567C1.76577 3.77567 1.60721 3.61714 1.60721 3.42156V1.86645C1.60721 1.70125 1.48255 1.55699 1.3177 1.54632C1.13711 1.53463 0.986938 1.67769 0.986938 1.85582V4.59118C0.986938 5.03303 1.17089 5.45508 1.49503 5.75535C1.50045 5.76039 1.5059 5.7654 1.51132 5.77043C1.83579 6.07093 2.02021 6.18293 2.02021 6.62517V9.62778L2.62563 10.405L3.23105 9.62778V6.62517C3.23105 6.18293 3.41547 6.0709 3.73994 5.77043L3.75541 5.75611C4.07987 5.45558 4.26429 5.03335 4.26429 4.59109V1.85582C4.26432 1.67769 4.11415 1.53463 3.9335 1.54632Z" fill="#D4D2D3"/>
<path d="M2.0202 9.62769V13.8486C2.0202 14.183 2.29126 14.454 2.62562 14.454C2.95999 14.454 3.23104 14.183 3.23104 13.8486V9.62769H2.0202Z" fill="#DC5A64"/>
<path d="M14.9421 9.17798L14.3367 9.83979V13.9153C14.3367 14.2496 14.6077 14.5207 14.9421 14.5207C15.2765 14.5207 15.5475 14.2496 15.5475 13.9153V9.83979L14.9421 9.17798Z" fill="#DC5A64"/>
<path d="M14.9632 1.61285C14.4053 2.38151 13.6402 4.3202 13.5771 9.18533C13.5725 9.54524 13.8627 9.83979 14.2226 9.83979H15.5475V1.8033C15.5475 1.49047 15.1469 1.35963 14.9632 1.61285Z" fill="#D4D2D3"/>
<path d="M8.59398 12.3823C11.0143 12.3823 12.9764 10.4202 12.9764 7.99986C12.9764 5.57951 11.0143 3.61743 8.59398 3.61743C6.17363 3.61743 4.21155 5.57951 4.21155 7.99986C4.21155 10.4202 6.17363 12.3823 8.59398 12.3823Z" fill="#DC5A64"/>
<path d="M8.59393 11.4292C10.4879 11.4292 12.0232 9.89383 12.0232 7.99987C12.0232 6.10591 10.4879 4.57056 8.59393 4.57056C6.69997 4.57056 5.16461 6.10591 5.16461 7.99987C5.16461 9.89383 6.69997 11.4292 8.59393 11.4292Z" fill="#EFEDEE"/>
<path d="M5.89703 7.99987C5.89703 6.22964 7.23839 4.77282 8.96014 4.59004C8.83982 4.57727 8.71765 4.57056 8.59393 4.57056C6.69997 4.57056 5.16461 6.10592 5.16461 7.99987C5.16461 9.89383 6.69997 11.4292 8.59393 11.4292C8.71765 11.4292 8.83982 11.4225 8.96014 11.4097C7.23839 11.2269 5.89703 9.77011 5.89703 7.99987Z" fill="#D4D2D3"/>
<path d="M8.59398 3.39795C6.05634 3.39795 3.99182 5.46247 3.99182 8.00011C3.99182 10.5377 6.05634 12.6023 8.59398 12.6023C11.1316 12.6023 13.1961 10.5377 13.1961 8.00011C13.1961 5.46247 11.1316 3.39795 8.59398 3.39795ZM8.59398 12.1628C6.29866 12.1628 4.43127 10.2954 4.43127 8.00011C4.43127 5.70479 6.29866 3.8374 8.59398 3.8374C10.8893 3.8374 12.7567 5.70479 12.7567 8.00011C12.7567 10.2954 10.8893 12.1628 8.59398 12.1628Z" fill="#092D4B"/>
<path d="M8.5939 4.35107C7.75059 4.35107 6.92799 4.6456 6.27769 5.18038C6.18397 5.25746 6.17046 5.39592 6.24754 5.48967C6.32462 5.58342 6.46308 5.59689 6.5568 5.51981C7.12867 5.04954 7.8521 4.79053 8.59387 4.79053C10.3636 4.79053 11.8035 6.23035 11.8035 8.00012C11.8035 9.76988 10.3636 11.2097 8.59387 11.2097C6.8241 11.2097 5.38428 9.76988 5.38428 8.00012C5.38428 7.31952 5.59472 6.66925 5.99286 6.11958C6.06405 6.02132 6.04208 5.88394 5.94382 5.81275C5.84556 5.74153 5.70818 5.76351 5.63696 5.8618C5.18415 6.4869 4.94482 7.22633 4.94482 8.00012C4.94482 10.0122 6.58179 11.6492 8.59387 11.6492C10.606 11.6492 12.2429 10.0122 12.2429 8.00012C12.2429 5.98804 10.606 4.35107 8.5939 4.35107Z" fill="#092D4B"/>
<path d="M15.5475 5.20616C15.6688 5.20616 15.7672 5.10778 15.7672 4.98643V1.80353C15.7672 1.56374 15.6198 1.36097 15.3916 1.28691C15.1639 1.21297 14.9259 1.29034 14.7854 1.48402C14.1685 2.33404 13.42 4.35966 13.3575 9.18268C13.3518 9.61768 13.6848 10.0009 14.117 10.0532V13.9155C14.117 14.3705 14.4871 14.7406 14.9421 14.7406C15.3971 14.7406 15.7673 14.3705 15.7673 13.9155V5.86534C15.7673 5.74399 15.6689 5.64561 15.5475 5.64561C15.4262 5.64561 15.3278 5.74399 15.3278 5.86534V9.62029C15.3278 9.62029 14.2229 9.62029 14.2227 9.62029C13.9879 9.62029 13.7938 9.42277 13.7969 9.1884C13.8245 7.06115 14.0358 3.26507 15.1411 1.74213C15.1792 1.6896 15.2294 1.69628 15.256 1.70489C15.2776 1.71189 15.3278 1.73556 15.3278 1.80356V4.98646C15.3278 5.10778 15.4261 5.20616 15.5475 5.20616ZM15.3278 10.0597V13.9155C15.3278 14.1281 15.1547 14.3012 14.9421 14.3012C14.7294 14.3012 14.5564 14.1281 14.5564 13.9155V10.0597H15.3278Z" fill="#092D4B"/>
<path d="M1.34896 5.9136C1.38681 5.95274 1.42595 5.99057 1.46621 6.02701C1.71625 6.25333 1.80048 6.32959 1.80048 6.62546V13.849C1.80048 14.304 2.17065 14.6741 2.62563 14.6741C3.08061 14.6741 3.45078 14.304 3.45078 13.849V6.62546C3.45078 6.32956 3.535 6.2533 3.78505 6.02701C4.20453 5.64732 4.48405 5.17163 4.48405 4.59135V1.8561C4.48405 1.55238 4.22714 1.30752 3.91932 1.32735C3.64173 1.34531 3.42426 1.58226 3.42426 1.86674V3.42184C3.42426 3.49594 3.364 3.5562 3.28991 3.5562C3.21582 3.5562 3.15552 3.49591 3.15552 3.42184V1.86671C3.15552 1.58223 2.93808 1.34528 2.66049 1.32732C2.35238 1.30725 2.09574 1.55238 2.09577 1.85607V3.42181C2.09577 3.49591 2.0355 3.55617 1.96141 3.55617C1.88732 3.55617 1.82706 3.49588 1.82706 3.42181V1.86671C1.82706 1.58223 1.60961 1.34528 1.33203 1.32732C1.02388 1.30728 0.767212 1.55238 0.767212 1.8561V4.59146C0.767212 4.59179 0.767212 4.59211 0.767212 4.59243C0.767476 5.09502 1.00525 5.55823 1.34896 5.9136ZM3.01132 13.849C3.01132 14.0617 2.8383 14.2347 2.62563 14.2347C2.41296 14.2347 2.23994 14.0617 2.23994 13.849V9.84779H3.01132V13.849ZM1.20667 1.8561C1.20667 1.8041 1.25073 1.76256 1.30355 1.76587C1.34987 1.76888 1.38754 1.81409 1.38754 1.86671V3.42181C1.38754 3.73822 1.64495 3.99562 1.96135 3.99562C2.27776 3.99562 2.53516 3.73819 2.53516 3.42181V1.8561C2.53516 1.8041 2.57896 1.76256 2.63205 1.76587C2.67836 1.76888 2.71604 1.81409 2.71604 1.86671V3.42181C2.71604 3.73822 2.97347 3.99562 3.28988 3.99562C3.60628 3.99562 3.86369 3.73819 3.86369 3.42181V1.86671C3.86369 1.81409 3.90136 1.76886 3.94768 1.76587C4.00036 1.76235 4.04457 1.8041 4.04457 1.8561C4.04457 1.8561 4.04457 4.59044 4.04457 4.59135C4.04457 5.0446 3.81582 5.40636 3.49012 5.70117C3.22261 5.94331 3.01129 6.13456 3.01129 6.62546V9.40834H2.23991V6.62546C2.23991 6.13462 2.02862 5.94334 1.76111 5.7012C1.43339 5.40457 1.20667 5.04808 1.20667 4.59143V1.8561Z" fill="#092D4B"/>
</g>
<defs>
<clipPath id="clip0_518_628">
<rect width="15" height="15" fill="white" transform="translate(0.767212 0.5)"/>
</clipPath>
</defs>
</svg>
