<svg width="93" height="90" viewBox="0 0 93 90" fill="none" xmlns="http://www.w3.org/2000/svg">
<path d="M46.2935 24.3467L51.4563 36.056L64.1788 34.6722L56.619 44.9997L64.1788 55.3252L51.4563 53.9413L46.2935 65.6527L41.1308 53.9413L28.4082 55.3252L35.968 44.9997L28.4082 34.6722L41.1308 36.056L46.2935 24.3467Z" fill="#C6C6C6"/>
<path d="M2.58711 60.7426C2.57906 60.7426 2.57301 60.7426 2.56495 60.7406C2.47028 60.7285 2.35143 60.658 2.33129 60.4948C2.06741 58.3475 1.74311 56.8005 1.29592 54.6593L1.12873 53.8596C0.584858 51.0758 0.721832 48.7694 1.60008 45.8949C1.82368 45.1476 2.56294 43.947 3.31227 43.7315C3.57816 43.655 3.82593 43.7073 4.02535 43.8826C4.10794 43.9531 4.16635 44.0538 4.18851 44.1686C4.21268 44.2935 4.19656 44.4164 4.18045 44.5151C4.0898 45.1436 4.13412 45.8768 4.30534 46.5899C4.46649 47.2586 4.71627 47.8549 4.93986 48.3605C5.12316 48.7774 5.30646 49.1682 5.48373 49.5509C5.65494 49.9196 5.82213 50.2781 5.98127 50.6407C6.44457 51.6861 6.77492 52.5986 7.05088 53.5998C7.52828 55.3079 7.76195 56.8146 8.01172 58.408L8.04596 58.6255C8.06006 58.7202 8.01777 58.8149 7.93719 58.8672C7.88079 58.9035 7.8123 58.9156 7.74785 58.8995C7.53634 58.8491 5.51999 56.3513 5.29237 56.0613L5.29035 56.0633C4.81295 55.465 4.34764 54.8607 3.93269 54.1235C3.9347 54.2564 3.93471 54.3853 3.93471 54.5143C3.93672 56.0552 3.86219 57.2296 3.70305 58.2106C3.62046 58.7121 3.50364 59.1996 3.34249 59.7012C3.34249 59.7052 3.34047 59.7072 3.33846 59.7112C3.33846 59.7173 2.95372 60.7426 2.58711 60.7426ZM3.54191 44.1827C3.51371 44.1827 3.48148 44.1888 3.44925 44.1968C2.95977 44.3378 2.28093 45.3249 2.06943 46.0339C1.20326 48.864 1.07434 51.0295 1.60814 53.7609L1.77534 54.5566C2.18223 56.5064 2.48841 57.9668 2.7402 59.8361C2.80869 59.7052 2.8671 59.5864 2.88725 59.536C3.04034 59.0626 3.15113 58.6014 3.22969 58.126C3.38479 57.1712 3.45529 56.023 3.45529 54.5082C3.45529 54.0369 3.44723 53.5393 3.43313 53.0277C3.4291 52.9108 3.50968 52.8081 3.6245 52.7819C3.74133 52.7557 3.85614 52.8182 3.90046 52.9249C4.39397 54.1013 4.99827 54.901 5.67912 55.7511C5.68516 55.7591 5.69322 55.7692 5.69926 55.7793C5.81609 55.9767 6.80916 57.149 7.44368 57.8822C7.22814 56.5185 6.99851 55.1931 6.58758 53.7246C6.31766 52.7477 5.99537 51.8553 5.54214 50.8321C5.38301 50.4715 5.21784 50.1149 5.04863 49.7504C4.86936 49.3656 4.68605 48.9708 4.50073 48.5518C4.26909 48.0261 4.00923 47.4077 3.83802 46.6986C3.6527 45.9271 3.60435 45.1295 3.70305 44.4486C3.71312 44.3741 3.72521 44.3016 3.71715 44.2593C3.65672 44.2069 3.60435 44.1827 3.54191 44.1827ZM3.11487 59.6206H3.11688H3.11487Z" fill="#C6C6C6"/>
<path d="M8.72905 72.6529C8.62431 72.6529 8.52963 72.5905 8.4833 72.4837C7.6393 70.5842 6.896 69.2829 5.87071 67.4801L5.59273 66.9926C4.34384 64.7285 3.89263 62.688 4.03363 59.9485C4.06385 59.2636 4.47276 58.0228 5.12742 57.5756C5.36712 57.4104 5.62496 57.3681 5.86869 57.4507C5.97545 57.4849 6.06408 57.5575 6.1225 57.6582C6.18293 57.7629 6.19703 57.8777 6.20911 57.9704C6.27559 58.5243 6.49918 59.1226 6.8396 59.6624C7.15787 60.1701 7.53656 60.579 7.89511 60.9536C8.15899 61.2276 8.41683 61.4874 8.67064 61.7392C8.95063 62.0192 9.22256 62.2912 9.48846 62.5691C10.2076 63.3225 10.7635 64.0094 11.2913 64.799C12.2098 66.1647 12.8383 67.4539 13.503 68.8196L13.5635 68.9425C13.6138 69.0452 13.5856 69.1681 13.497 69.2386C13.3499 69.3575 13.3499 69.3575 11.8231 68.4993C11.3074 68.2093 10.4271 67.7097 10.2257 67.5587C9.57507 67.1699 8.97077 66.7892 8.38057 66.2775C8.41884 66.4024 8.4551 66.5253 8.49136 66.6482C8.8902 68.0078 9.12185 69.0754 9.22257 70.0061C9.27293 70.4835 9.28501 70.9589 9.25882 71.4624C9.25882 71.4665 9.25882 71.4705 9.25882 71.4745C9.25681 71.4846 9.13595 72.5925 8.77337 72.6509C8.75725 72.6509 8.74315 72.6529 8.72905 72.6529ZM5.63302 57.8918C5.57863 57.8918 5.50007 57.908 5.40137 57.9744C4.95016 58.2826 4.5493 59.318 4.51909 59.9686C4.3801 62.6477 4.79908 64.5472 6.01574 66.7509L6.2917 67.2364C7.2324 68.8861 7.9354 70.1209 8.69682 71.7767C8.73107 71.6256 8.76128 71.4846 8.76934 71.4262C8.79351 70.9528 8.78344 70.5036 8.7351 70.0564C8.63841 69.154 8.41079 68.1146 8.02202 66.7831C7.90116 66.3702 7.7662 65.9351 7.62117 65.496C7.58491 65.3872 7.63124 65.2663 7.72994 65.2099C7.82865 65.1535 7.95554 65.1717 8.0341 65.2563C8.80962 66.1124 9.60529 66.62 10.4876 67.1477C10.4976 67.1538 10.5077 67.1598 10.5158 67.1679C10.6709 67.2948 11.9822 68.0361 12.794 68.4832C12.2139 67.3008 11.6639 66.2312 10.8844 65.0709C10.3728 64.3055 9.83291 63.6367 9.13394 62.9055C8.87006 62.6296 8.60215 62.3596 8.32619 62.0837C8.07238 61.8299 7.81051 61.568 7.54462 61.292C7.16794 60.8992 6.77112 60.4702 6.42667 59.9223C6.04797 59.322 5.8002 58.6533 5.72567 58.0409C5.71963 57.9885 5.71157 57.92 5.69949 57.8999C5.68136 57.8959 5.6592 57.8918 5.63302 57.8918ZM9.01307 71.4483H9.01509H9.01307Z" fill="#C6C6C6"/>
<path d="M17.636 81.4086C17.5595 81.4086 17.4829 81.3743 17.4265 81.3078C16.0527 79.7145 14.9912 78.7416 13.3858 77.2691L13.2367 77.1321C11.452 75.4542 10.4952 73.7621 9.9352 71.2926C9.77203 70.5976 9.8949 69.4676 10.3401 68.8955C10.5294 68.6497 10.7711 68.5188 11.037 68.5128C11.1458 68.5108 11.2566 68.547 11.3412 68.6195C11.4339 68.6981 11.4802 68.8049 11.5144 68.8814C11.7159 69.3407 12.0764 69.7899 12.5357 70.1585C12.9668 70.505 13.4321 70.7507 13.8712 70.9723C14.1653 71.1213 14.4534 71.2583 14.7333 71.3953C15.106 71.5746 15.4585 71.7458 15.811 71.9291C16.6953 72.3884 17.4064 72.8436 18.1174 73.4036C19.3824 74.3967 20.299 75.3857 21.3605 76.5298C21.4492 76.6245 21.4612 76.7897 21.3686 76.8823C21.2618 76.9911 21.2598 76.9911 19.604 76.6547C19.034 76.5379 18.059 76.3365 17.8294 76.2619C17.0982 76.0968 16.4153 75.9296 15.7163 75.6395C15.7828 75.7402 15.8493 75.8389 15.9137 75.9376C16.645 77.0556 17.1445 77.9661 17.4869 78.804C17.6602 79.229 17.7951 79.6682 17.9019 80.1415C17.9019 80.1456 17.9039 80.1496 17.9039 80.1536C17.9059 80.1637 18.0771 81.2293 17.7488 81.3864C17.7105 81.4005 17.6723 81.4086 17.636 81.4086ZM11.029 68.9982C10.9162 69.0063 10.8175 69.0707 10.7228 69.1916C10.3844 69.6267 10.2756 70.6178 10.4086 71.1798C10.9544 73.5808 11.8387 75.148 13.567 76.7736L13.7141 76.9085C15.1946 78.2662 16.2159 79.2029 17.4446 80.5867C17.4386 80.4356 17.4305 80.2926 17.4225 80.2342C17.3238 79.7911 17.1969 79.3821 17.0357 78.9833C16.7054 78.1755 16.2199 77.2913 15.5069 76.1995C15.2812 75.8571 15.0415 75.5045 14.7918 75.152C14.7253 75.0594 14.7333 74.9325 14.8099 74.8479C14.8864 74.7633 15.0113 74.7431 15.11 74.7975C16.0668 75.3333 16.9612 75.5609 17.9482 75.7845C17.9583 75.7865 17.9684 75.7906 17.9784 75.7926C18.1617 75.8591 19.6181 76.1592 20.5165 76.3365C19.6564 75.4159 18.8527 74.5981 17.8133 73.7843C17.1264 73.2424 16.4395 72.8013 15.5834 72.3581C15.2369 72.1769 14.8864 72.0097 14.5178 71.8304C14.2358 71.6934 13.9457 71.5544 13.6496 71.4054C13.1863 71.1717 12.6948 70.9118 12.2275 70.5372C11.7098 70.1202 11.2969 69.6066 11.0693 69.0869C11.0572 69.0546 11.0411 69.0184 11.029 68.9982Z" fill="#C6C6C6"/>
<path d="M28.505 87.1903C28.4506 87.1903 28.3963 87.1741 28.3439 87.1399C26.5249 85.9353 25.2076 85.2867 23.2114 84.3077C21.054 83.22 19.6923 81.9067 18.5079 79.7755C18.1795 79.1954 17.9982 78.1278 18.2561 77.467C18.3729 77.1669 18.5723 76.9635 18.8342 76.8789C18.9389 76.8426 19.0497 76.8446 19.1525 76.8889C19.2653 76.9373 19.3398 77.0239 19.3942 77.0884C19.7024 77.4469 20.1637 77.7571 20.6995 77.9666C21.199 78.162 21.7127 78.2587 22.1941 78.3413C22.4882 78.3916 22.7742 78.4359 23.0522 78.4803C23.4853 78.5467 23.8942 78.6112 24.3092 78.6898C25.276 78.8731 26.0818 79.1047 26.9157 79.4411C28.4345 80.0494 29.625 80.7806 30.884 81.5541C30.9404 81.5884 30.9807 81.6448 30.9948 81.7092C31.0089 81.7737 30.9968 81.8422 30.9585 81.8966C30.8819 82.0114 30.8819 82.0114 29.21 82.1302C28.6279 82.1725 27.6389 82.239 27.3992 82.231C26.6518 82.2733 25.9488 82.2974 25.2035 82.2169C25.2922 82.2914 25.3788 82.3639 25.4654 82.4384C26.4444 83.2784 27.1877 84.0298 27.7376 84.7328C28.0176 85.0933 28.2633 85.474 28.4909 85.8991C28.4929 85.9031 28.495 85.9051 28.497 85.9091C28.501 85.9192 28.9462 86.8921 28.6742 87.1278C28.6259 87.1701 28.5655 87.1903 28.505 87.1903ZM28.6138 86.733C28.6138 86.735 28.6138 86.735 28.6138 86.733C28.6138 86.735 28.6138 86.735 28.6138 86.733ZM18.9712 77.3462C18.8543 77.3905 18.7697 77.4872 18.7093 77.6423C18.5119 78.1519 18.665 79.0624 18.9329 79.5378C20.0811 81.6045 21.342 82.8191 23.4289 83.8726C25.2096 84.7469 26.537 85.3975 28.1706 86.445C28.1263 86.3039 28.08 86.171 28.0578 86.1186C27.8463 85.7218 27.6147 85.3673 27.3548 85.0309C26.8271 84.3521 26.106 83.6249 25.1512 82.805C24.845 82.5432 24.5207 82.2753 24.1883 82.0134C24.0997 81.9429 24.0715 81.82 24.1198 81.7173C24.1682 81.6146 24.281 81.5582 24.3938 81.5844C25.4493 81.8241 26.3739 81.7979 27.3871 81.7415C27.3951 81.7415 27.4052 81.7415 27.4153 81.7415C27.6127 81.7495 29.0892 81.6508 30.0017 81.5803C28.9824 80.9619 27.9652 80.3818 26.7364 79.8903C25.9307 79.566 25.1552 79.3424 24.2205 79.1651C23.8136 79.0886 23.4088 79.0241 22.9797 78.9577C22.6977 78.9133 22.4096 78.869 22.1135 78.8187C21.6059 78.7321 21.0641 78.6313 20.5222 78.4178C19.9139 78.1801 19.3821 77.8216 19.0296 77.4086C19.0094 77.3885 18.9873 77.3603 18.9712 77.3462Z" fill="#C6C6C6"/>
<path d="M40.5322 90C40.5 90 40.4657 89.994 40.4315 89.9839C38.399 89.2809 37.0071 88.9868 34.7208 88.5255C32.3499 88.0239 30.6901 87.1175 28.986 85.3952C28.5167 84.9279 28.0614 83.959 28.1299 83.262C28.1621 82.9438 28.3011 82.694 28.5308 82.5409C28.6234 82.4785 28.7322 82.4523 28.839 82.4664C28.9598 82.4825 29.0545 82.5449 29.123 82.5913C29.5158 82.8511 30.0435 83.0264 30.6156 83.0848C31.1474 83.1412 31.6691 83.0989 32.1566 83.0525C32.4366 83.0264 32.7085 82.9961 32.9744 82.9679C33.4276 82.9196 33.8547 82.8733 34.2898 82.841C35.2707 82.7685 36.1087 82.7887 37.0071 82.9035C38.6528 83.111 40.0508 83.544 41.4044 83.961C41.4689 83.9812 41.5232 84.0275 41.5535 84.0899C41.5837 84.1504 41.5857 84.2229 41.5595 84.2853C41.5112 84.4062 41.5112 84.4062 39.9339 84.9299C39.382 85.1132 38.4373 85.4234 38.2117 85.4738C37.5026 85.6994 36.8339 85.8968 36.0966 86.0056C36.2014 86.0539 36.3021 86.1023 36.4048 86.1506C37.5711 86.7126 38.4876 87.2524 39.2088 87.7983C39.5754 88.0763 39.9138 88.3825 40.2462 88.737C40.2482 88.739 40.2502 88.743 40.2542 88.7451C40.2603 88.7531 40.9471 89.5891 40.7477 89.8811C40.6994 89.9597 40.6188 90 40.5322 90ZM28.7906 82.9538C28.6899 83.0284 28.6335 83.1432 28.6174 83.3084C28.563 83.8422 28.9497 84.668 29.3325 85.0488C30.9862 86.7207 32.5252 87.5606 34.8195 88.0461C36.8661 88.459 38.2761 88.7551 40.0769 89.3473C39.9984 89.2245 39.9198 89.1117 39.8856 89.0674C39.5734 88.735 39.2571 88.449 38.9147 88.1891C38.2197 87.6613 37.3294 87.1396 36.1933 86.5917C35.8267 86.4145 35.444 86.2392 35.0532 86.072C34.9484 86.0257 34.89 85.9149 34.9102 85.8021C34.9323 85.6893 35.027 85.6067 35.1418 85.6047C36.2235 85.5705 37.0756 85.3247 38.0747 85.0065C38.0828 85.0044 38.0928 85.0024 38.1009 85.0004C38.2902 84.9621 39.6862 84.5029 40.5503 84.2108C39.4344 83.8744 38.2661 83.5561 36.9447 83.3889C36.0785 83.2761 35.2707 83.258 34.324 83.3285C33.897 83.3587 33.4719 83.405 33.0248 83.4534C32.7568 83.4816 32.4829 83.5118 32.2009 83.538C31.6872 83.5884 31.1393 83.6307 30.5612 83.5702C29.9126 83.5038 29.3063 83.3003 28.8571 83.0022C28.839 82.9841 28.8108 82.9639 28.7906 82.9538Z" fill="#C6C6C6"/>
<path d="M52.9122 89.837C52.9022 89.837 52.8921 89.837 52.882 89.835C50.7126 89.6356 49.222 89.6859 46.9679 89.7826C44.5447 89.8612 42.6975 89.3878 40.5926 88.1389C40.0084 87.7985 39.3074 86.9666 39.1986 86.2756C39.1503 85.9654 39.2188 85.6955 39.4001 85.4941C39.4726 85.4115 39.5713 85.3571 39.6801 85.345C39.8009 85.3289 39.9077 85.3672 39.9862 85.3934C40.4375 85.5485 40.9934 85.5887 41.5635 85.5062C42.0892 85.4316 42.5646 85.2725 43.046 85.1013C43.3018 85.0106 43.5516 84.918 43.7933 84.8293C44.2244 84.6702 44.6333 84.5212 45.0523 84.3842C45.9829 84.08 46.7987 83.8967 47.6991 83.796C49.3408 83.6066 50.8113 83.6912 52.2354 83.7738C52.3019 83.7779 52.3643 83.8081 52.4087 83.8605C52.451 83.9128 52.4711 83.9793 52.4651 84.0458C52.449 84.1787 52.4489 84.1787 51.0591 85.063C50.5736 85.3712 49.7437 85.8949 49.5382 85.9997C48.9138 86.3844 48.3216 86.7349 47.6387 87.0169C47.7535 87.0391 47.8683 87.0632 47.9812 87.0854C49.2562 87.3513 50.2876 87.6555 51.1316 88.014C51.5606 88.1973 51.9695 88.4129 52.3845 88.6747C52.3885 88.6767 52.3905 88.6787 52.3946 88.6808C52.4026 88.6868 53.295 89.3213 53.1681 89.6658C53.1278 89.7705 53.0291 89.837 52.9122 89.837ZM39.7506 85.8325C39.676 85.9251 39.6539 86.044 39.678 86.2011C39.7606 86.7329 40.3589 87.4419 40.8383 87.7199C42.8849 88.9326 44.5971 89.3757 46.9478 89.2971C49.0226 89.2065 50.4588 89.1582 52.3684 89.3032C52.2596 89.2045 52.1569 89.1159 52.1126 89.0816C51.7238 88.8359 51.339 88.6324 50.9382 88.4612C50.1224 88.1147 49.1213 87.8206 47.8784 87.5608C47.4796 87.4782 47.0606 87.3996 46.6376 87.3291C46.5248 87.311 46.4402 87.2163 46.4341 87.1015C46.4281 86.9887 46.5006 86.884 46.6114 86.8538C47.6488 86.5617 48.4062 86.1225 49.2885 85.5767C49.2965 85.5726 49.3046 85.5686 49.3126 85.5646C49.4859 85.482 50.7106 84.7085 51.47 84.219C50.2956 84.1586 49.0749 84.1263 47.7535 84.2794C46.8874 84.3781 46.1018 84.5534 45.2034 84.8475C44.7904 84.9824 44.3876 85.1315 43.9605 85.2886C43.7148 85.3793 43.465 85.4699 43.2072 85.5626C42.7217 85.7338 42.2 85.909 41.632 85.9916C40.9874 86.0843 40.3488 86.0379 39.8352 85.8587C39.807 85.8486 39.7727 85.8365 39.7506 85.8325Z" fill="#C6C6C6"/>
<path d="M55.9678 88.5624C54.8679 88.5624 53.7661 88.3811 52.5414 88.0145C51.8766 87.8211 50.9742 87.1765 50.6942 86.5279C50.5713 86.2459 50.5714 85.974 50.6902 85.7403C50.7547 85.6114 50.8554 85.551 50.9259 85.5248C51.0387 85.4825 51.1535 85.4926 51.2361 85.5006C51.7115 85.5449 52.2614 85.4503 52.7912 85.2347C53.2786 85.0373 53.6956 84.7694 54.1166 84.4914C54.3422 84.3404 54.5597 84.1933 54.7733 84.0463C55.1479 83.7904 55.5004 83.5487 55.8691 83.3171C56.6869 82.7994 57.4302 82.4288 58.2742 82.1125C59.7869 81.5425 61.1809 81.2725 62.6554 80.9865C62.7198 80.9724 62.7883 80.9885 62.8427 81.0268C62.8971 81.065 62.9333 81.1235 62.9434 81.1879C62.9656 81.3229 62.9656 81.3229 61.8516 82.5214C61.4649 82.9384 60.8022 83.6474 60.6289 83.7985C60.1274 84.3222 59.6459 84.8057 59.0618 85.2408C59.1827 85.2347 59.3015 85.2287 59.4224 85.2247C60.7297 85.1743 61.8073 85.2186 62.7178 85.3596C63.1811 85.4321 63.6343 85.5409 64.1057 85.694C64.1097 85.696 64.1117 85.696 64.1158 85.698C64.1258 85.7021 65.1592 86.0969 65.1229 86.4615C65.1129 86.5622 65.0363 86.675 64.8893 86.6971C62.7521 87.0355 61.3843 87.4243 59.1524 88.083C58.0244 88.4033 56.9971 88.5624 55.9678 88.5624ZM51.1152 85.982C51.0729 86.0828 51.081 86.1976 51.1414 86.3366C51.3549 86.8281 52.1425 87.3921 52.6804 87.5492C54.9868 88.2361 56.7634 88.2562 59.0155 87.6177C61.0056 87.0315 62.3854 86.6367 64.2527 86.3104C64.1198 86.2399 63.9969 86.1795 63.9466 86.1573C63.5034 86.0143 63.0784 85.9115 62.6433 85.8451C61.765 85.7101 60.7176 85.6678 59.4425 85.7162C59.0255 85.7323 58.6005 85.7585 58.1795 85.7907C58.0707 85.7987 57.962 85.7282 57.9277 85.6195C57.8935 85.5107 57.9398 85.3939 58.0385 85.3354C58.9631 84.8057 59.6036 84.1691 60.2865 83.4561C60.2925 83.45 60.3006 83.442 60.3087 83.4359C60.4537 83.3151 61.4347 82.2636 62.039 81.6069C60.8425 81.8446 59.6802 82.1065 58.4474 82.5718C57.6356 82.8759 56.9205 83.2345 56.1309 83.732C55.7704 83.9597 55.4199 84.1973 55.0492 84.4512C54.8337 84.5982 54.6161 84.7473 54.3885 84.8983C53.9635 85.1803 53.5062 85.4744 52.9765 85.688C52.3762 85.9317 51.7457 86.0364 51.2018 85.9881C51.1716 85.9841 51.1374 85.982 51.1152 85.982Z" fill="#C6C6C6"/>
<path d="M64.7113 85.0334C64.5018 85.0334 64.2883 85.0294 64.0688 85.0193C63.3718 84.9952 62.3284 84.5943 61.8852 84.0323C61.6959 83.7926 61.6234 83.5307 61.6757 83.2769C61.6979 83.1641 61.7583 83.0695 61.851 83.005C61.9497 82.9365 62.0625 82.9184 62.1431 82.9043C62.6164 82.8298 63.122 82.6041 63.5752 82.2657C63.9962 81.9535 64.3407 81.5768 64.6569 81.2183C64.8423 81.0088 65.0195 80.8013 65.1928 80.5999C65.4788 80.2675 65.7487 79.9513 66.0368 79.6411C66.6894 78.932 67.3078 78.3821 68.037 77.8584C69.3081 76.9398 70.5046 76.3396 71.8904 75.6426L71.9629 75.6063C72.0234 75.5761 72.0959 75.5721 72.1583 75.5963C72.2228 75.6204 72.2732 75.6708 72.2973 75.7353C72.3457 75.8581 72.3457 75.8581 71.5984 77.3145C71.3385 77.8221 70.8893 78.6863 70.7584 78.8817C70.4139 79.5222 70.0775 80.1185 69.6263 80.6966C69.7452 80.6583 69.862 80.622 69.9768 80.5858C71.2317 80.197 72.2832 79.9573 73.1917 79.8526C73.659 79.8002 74.1263 79.7841 74.6178 79.8082C74.6219 79.8082 74.6259 79.8082 74.6299 79.8082C74.642 79.8103 75.7418 79.917 75.8043 80.2796C75.8244 80.4005 75.762 80.5133 75.6431 80.5677C73.6268 81.4942 72.3719 82.2617 70.4744 83.426C68.597 84.55 66.8868 85.0334 64.7113 85.0334ZM62.1531 83.3998C62.141 83.5066 62.1793 83.6133 62.272 83.7302C62.6084 84.1592 63.5269 84.5137 64.0909 84.5319C66.5121 84.6306 68.2304 84.2015 70.2286 83.009C71.9146 81.9757 73.1736 81.2042 74.9401 80.3622C74.7911 80.33 74.6521 80.3018 74.5957 80.2937C74.1324 80.2736 73.6933 80.2856 73.2562 80.336C72.3799 80.4367 71.3566 80.6704 70.1299 81.0491C69.7472 81.1679 69.3423 81.3009 68.9294 81.4459C68.8226 81.4842 68.7037 81.4419 68.6433 81.3452C68.5829 81.2485 68.597 81.1236 68.6776 81.043C69.4309 80.2877 69.8781 79.5061 70.3454 78.6359C70.3495 78.6278 70.3555 78.6178 70.3615 78.6097C70.4723 78.4546 71.1391 77.1654 71.544 76.3637C70.4139 76.9358 69.3947 77.4817 68.3311 78.2491C67.6281 78.7547 67.0339 79.2845 66.4034 79.9674C66.1214 80.2715 65.8535 80.5838 65.5714 80.9141C65.3962 81.1176 65.2189 81.325 65.0316 81.5365C64.6972 81.9152 64.3346 82.3121 63.8754 82.6545C63.3597 83.0392 62.7776 83.2971 62.2357 83.3817C62.2055 83.3897 62.1733 83.3938 62.1531 83.3998Z" fill="#C6C6C6"/>
<path d="M73.7436 79.2231C73.1454 79.2231 72.4686 79.0801 72.0576 78.778C71.8058 78.5947 71.6648 78.357 71.6467 78.0951C71.6387 77.9823 71.6709 77.8735 71.7414 77.7869C71.8199 77.6922 71.9247 77.6439 72.0012 77.6096C72.4343 77.4122 72.8614 77.0577 73.2058 76.6045C73.5281 76.1855 73.7598 75.7222 73.9672 75.2851C74.0941 75.0172 74.215 74.7573 74.3318 74.5015C74.5131 74.1067 74.6843 73.732 74.8737 73.3574C75.3108 72.4811 75.756 71.764 76.318 71.0348C77.2506 69.8142 78.1913 68.8956 79.279 67.83L79.4764 67.6367C79.5288 67.5843 79.6033 67.5601 79.6759 67.5682C79.7504 67.5762 79.8149 67.6185 79.8531 67.681C79.9176 67.7837 79.9176 67.7837 79.5953 69.4375C79.4825 70.0196 79.2831 71.0147 79.2126 71.2423C79.0534 71.9796 78.8923 72.6685 78.6103 73.3715C78.713 73.301 78.8137 73.2305 78.9144 73.164C80.0465 72.3965 80.965 71.8648 81.805 71.4921C82.2361 71.3007 82.6792 71.1456 83.1627 71.0187C83.1667 71.0167 83.1707 71.0167 83.1748 71.0167C83.1869 71.0147 84.2645 70.7931 84.4317 71.1215C84.4881 71.2302 84.4619 71.3592 84.3652 71.4478C82.7518 72.9183 81.7808 74.004 80.3124 75.6457L80.1653 75.8108C78.5136 77.6117 76.8497 78.5785 74.4184 79.1546C74.2251 79.199 73.9914 79.2231 73.7436 79.2231ZM72.1362 78.087C72.1523 78.1978 72.2208 78.2945 72.3457 78.3872C72.7888 78.7115 73.7638 78.8102 74.3056 78.6793C76.6664 78.1193 78.2074 77.2229 79.8048 75.4825L79.9498 75.3193C81.2551 73.8589 82.23 72.7692 83.636 71.4558C83.483 71.4679 83.3379 71.484 83.2795 71.4941C82.8263 71.615 82.4093 71.76 82.0044 71.9413C81.1927 72.3019 80.2983 72.8195 79.1904 73.5709C78.848 73.8025 78.4955 74.0503 78.1409 74.3102C78.0483 74.3786 77.9214 74.3726 77.8368 74.2961C77.7502 74.2215 77.728 74.0966 77.7844 73.9959C78.3081 73.0351 78.5277 72.1306 78.7432 71.1315C78.7452 71.1215 78.7473 71.1114 78.7513 71.1013C78.8178 70.914 79.1098 69.4334 79.2811 68.5169C78.3484 69.4314 77.5205 70.2694 76.7067 71.335C76.1649 72.04 75.7338 72.7309 75.3108 73.579C75.1255 73.9476 74.9563 74.3182 74.777 74.709C74.6581 74.9668 74.5373 75.2287 74.4104 75.4986C74.1908 75.9599 73.9451 76.4494 73.5946 76.9066C73.2018 77.4203 72.7083 77.8292 72.2087 78.0568C72.1866 78.0609 72.1563 78.075 72.1362 78.087Z" fill="#C6C6C6"/>
<path d="M81.0958 70.8527C80.8541 70.8527 80.6244 70.8225 80.4291 70.752C80.1309 70.6452 79.9255 70.4499 79.8368 70.192C79.7986 70.0873 79.8006 69.9745 79.8429 69.8717C79.8892 69.7589 79.9738 69.6824 80.0363 69.626C80.4049 69.2936 80.7211 68.8062 80.9326 68.2462C81.13 67.7224 81.2267 67.1866 81.3073 66.683C81.3597 66.3628 81.404 66.0505 81.4503 65.7444C81.5148 65.3012 81.5772 64.8822 81.6518 64.4552C81.833 63.4299 82.0627 62.5597 82.3991 61.6351C82.9329 60.1526 83.5734 58.8795 84.2523 57.5319L84.4839 57.0726C84.5202 56.9981 84.5927 56.9498 84.6753 56.9397C84.7579 56.9316 84.8384 56.9639 84.8908 57.0283C85.0157 57.1814 85.2131 60.5292 85.2292 60.8818H85.2312C85.2816 61.6915 85.3158 62.4529 85.2393 63.2647C85.3138 63.164 85.3883 63.0653 85.4629 62.9666C86.3452 61.7963 87.0764 60.9462 87.7633 60.2875C88.1218 59.9431 88.5025 59.6309 88.9275 59.3347C88.9316 59.3327 88.9356 59.3287 88.9396 59.3267C88.9799 59.3025 89.9045 58.7365 90.1724 58.9903C90.2409 59.0547 90.2933 59.1817 90.2167 59.3247C89.137 61.3068 88.5065 62.7289 87.6323 64.6969L87.3946 65.2327C86.2948 67.6217 85.0056 69.072 82.7959 70.4096C82.3689 70.6634 81.6941 70.8527 81.0958 70.8527ZM80.3021 70.045C80.3465 70.1578 80.4411 70.2384 80.5942 70.2927C81.1159 70.4801 82.0526 70.2867 82.5401 69.9866C84.6592 68.7034 85.8939 67.3135 86.9474 65.0252L87.1831 64.4935C87.9889 62.6785 88.5891 61.3269 89.5218 59.5724C89.3808 59.6369 89.2498 59.7013 89.1955 59.7336C88.7946 60.0156 88.436 60.3097 88.0976 60.634C87.4309 61.2745 86.7158 62.1065 85.8496 63.2567C85.5858 63.6072 85.3158 63.9758 85.0459 64.3545C84.9794 64.4491 84.8546 64.4814 84.7498 64.4371C84.6451 64.3907 84.5846 64.2779 84.6088 64.1631C84.8485 63.0089 84.8122 62.0058 84.7438 60.91C84.7438 60.8999 84.7438 60.8898 84.7438 60.8797C84.7558 60.6622 84.629 59.0527 84.5403 58.0436C83.9018 59.3146 83.3458 60.4487 82.8583 61.8003C82.532 62.6987 82.3064 63.5427 82.1332 64.5398C82.0587 64.9608 81.9982 65.3757 81.9338 65.8149C81.8874 66.1231 81.8431 66.4373 81.7907 66.7596C81.7061 67.2873 81.6034 67.8514 81.3899 68.4174C81.1522 69.0499 80.7896 69.6038 80.3727 69.9805C80.3465 70.0027 80.3162 70.0289 80.3021 70.045Z" fill="#C6C6C6"/>
<path d="M86.3049 59.9446C86.2848 59.9446 86.2667 59.9446 86.2465 59.9425C85.9343 59.9284 85.6865 59.7955 85.5335 59.5598C85.471 59.4692 85.4428 59.3584 85.4549 59.2456C85.467 59.1227 85.5234 59.024 85.5677 58.9434C85.8316 58.4701 85.9988 57.8476 86.0471 57.1829C86.0914 56.5625 86.035 55.9642 85.9726 55.4042C85.9323 55.0497 85.89 54.7073 85.8477 54.3689C85.7873 53.8754 85.7288 53.4101 85.6825 52.9286C85.5697 51.7784 85.5455 50.7672 85.606 49.6513C85.6966 47.9129 85.9242 46.3981 86.1881 44.6477L86.2989 43.9044C86.313 43.8137 86.3775 43.7372 86.4641 43.709C86.5527 43.6808 86.6474 43.703 86.7138 43.7694C86.8468 43.9024 87.9889 47.4919 88.0937 47.8303C88.3676 48.6804 88.6114 49.4841 88.7644 50.3704C88.8067 50.2395 88.847 50.1086 88.8893 49.9796C89.4151 48.3561 89.8562 47.1978 90.3175 46.2269C90.5612 45.7173 90.8332 45.2339 91.1494 44.7504C91.1514 44.7464 91.1555 44.7424 91.1575 44.7383C91.232 44.6376 91.8967 43.7533 92.2351 43.8983C92.3258 43.9366 92.4184 44.0434 92.3882 44.2126C91.9411 46.7164 91.7356 48.5092 91.4737 50.7773L91.367 51.6979C90.9903 54.6368 90.1664 56.6189 88.4301 58.7742C87.9748 59.3503 87.022 59.9446 86.3049 59.9446ZM86.6373 44.9438C86.3895 46.5895 86.178 48.0358 86.0934 49.6795C86.033 50.7713 86.0572 51.7603 86.168 52.8843C86.2143 53.3597 86.2727 53.823 86.3331 54.3105C86.3754 54.6509 86.4177 54.9953 86.458 55.3519C86.5225 55.934 86.5809 56.5585 86.5346 57.2192C86.4822 57.9544 86.2928 58.6473 86.0008 59.1731C85.9746 59.2194 85.9444 59.2738 85.9424 59.298C85.9867 59.3584 86.0652 59.447 86.2707 59.4571C86.2828 59.4571 86.2949 59.4571 86.309 59.4571C86.8528 59.4571 87.6827 58.9354 88.0554 58.4701C89.4533 56.7357 90.4686 54.9127 90.8876 51.6394L90.9943 50.7209C91.234 48.632 91.4294 46.946 91.8061 44.7383C91.6913 44.8612 91.5906 44.978 91.5563 45.0223C91.2542 45.4856 90.9943 45.9469 90.7627 46.4344C90.3094 47.3852 89.8764 48.5253 89.3567 50.1287C89.2036 50.6041 89.0485 51.0996 88.8994 51.6032C88.8652 51.716 88.7544 51.7885 88.6396 51.7764C88.5227 51.7623 88.4321 51.6697 88.424 51.5508C88.3293 50.2254 88.0111 49.1477 87.6364 47.9774C87.6344 47.9693 87.6324 47.9613 87.6304 47.9512C87.574 47.7075 87.0059 46.0215 86.6373 44.9438Z" fill="#C6C6C6"/>
<path d="M89.0359 46.3047C88.8586 46.3047 88.6955 46.2422 88.5565 46.1194C88.4739 46.0489 88.4155 45.9481 88.3933 45.8333C88.3692 45.7084 88.3853 45.5856 88.3994 45.4869C88.49 44.8564 88.4457 44.1232 88.2745 43.4121C88.1133 42.7433 87.8636 42.1471 87.64 41.6415C87.4567 41.2265 87.2754 40.8337 87.0981 40.453C86.9269 40.0844 86.7597 39.7238 86.5986 39.3613C86.1353 38.3158 85.8049 37.4033 85.529 36.4022C85.0516 34.6961 84.8179 33.1913 84.5701 31.6L84.5359 31.3784C84.5218 31.2838 84.5641 31.1871 84.6447 31.1347C84.699 31.0984 84.7695 31.0864 84.832 31.1025C85.0435 31.1528 87.0578 33.6506 87.2854 33.9387L87.2875 33.9366C87.7649 34.5329 88.2302 35.1392 88.6451 35.8765C88.6431 35.7455 88.6431 35.6146 88.6431 35.4857C88.6431 33.9447 88.7156 32.7703 88.8748 31.7894C88.9573 31.2858 89.0742 30.7983 89.2353 30.2988C89.2353 30.2947 89.2373 30.2927 89.2394 30.2887C89.2434 30.2786 89.6402 29.2009 90.0169 29.2533C90.1116 29.2654 90.2304 29.3359 90.2506 29.4991C90.5144 31.6484 90.8387 33.1954 91.2859 35.3366L91.4531 36.1363C91.997 38.9201 91.86 41.2265 90.9818 44.101C90.7582 44.8483 90.0189 46.0489 89.2696 46.2644C89.191 46.2946 89.1125 46.3047 89.0359 46.3047ZM85.1442 32.1137C85.3598 33.4774 85.5894 34.8028 86.0003 36.2713C86.2702 37.2502 86.5925 38.1406 87.0458 39.1639C87.2049 39.5244 87.3701 39.881 87.5413 40.2476C87.7205 40.6323 87.9039 41.0271 88.0872 41.4441C88.3188 41.9698 88.5787 42.5902 88.7499 43.2973C88.9352 44.0668 88.9835 44.8664 88.8848 45.5453C88.8748 45.6198 88.8627 45.6923 88.8707 45.7346C88.9513 45.8152 89.0279 45.8293 89.1346 45.7991C89.6241 45.6581 90.3029 44.6711 90.5144 43.962C91.3806 41.1319 91.5095 38.9665 90.9757 36.235L90.8105 35.4393C90.4036 33.4895 90.0975 32.0291 89.8457 30.1578C89.7772 30.2887 89.7188 30.4075 89.6986 30.4579C89.5455 30.9292 89.4347 31.3905 89.3562 31.8679C89.2011 32.8207 89.1306 33.9709 89.1306 35.4857C89.1306 35.959 89.1386 36.4566 89.1527 36.9662C89.1568 37.083 89.0762 37.1858 88.9614 37.212C88.8445 37.2381 88.7297 37.1757 88.6854 37.0689C88.1899 35.8926 87.5876 35.0929 86.9068 34.2428C86.8987 34.2348 86.8927 34.2247 86.8866 34.2146C86.7718 34.0192 85.7807 32.8469 85.1442 32.1137Z" fill="#C6C6C6"/>
<path d="M86.9497 32.5912C86.8672 32.5912 86.7846 32.5771 86.704 32.5509C86.5972 32.5166 86.5086 32.4441 86.4502 32.3434C86.3877 32.2366 86.3757 32.1198 86.3636 32.0271C86.2971 31.4752 86.0735 30.879 85.7331 30.3391C85.4128 29.8295 85.0361 29.4226 84.6776 29.0479C84.4117 28.772 84.1538 28.5141 83.9 28.2603C83.6221 27.9824 83.3501 27.7104 83.0842 27.4304C82.3651 26.6771 81.8092 25.9882 81.2814 25.1985C80.3649 23.8348 79.7364 22.5477 79.0717 21.184L79.0092 21.055C78.9589 20.9523 78.9871 20.8294 79.0757 20.7589C79.2207 20.6381 79.2248 20.6401 80.7496 21.4962C81.2653 21.7862 82.1455 22.2858 82.347 22.4369C82.9976 22.8256 83.6019 23.2064 84.1921 23.718C84.1538 23.5931 84.1176 23.4682 84.0813 23.3474C83.6825 21.9877 83.4508 20.9201 83.3501 19.9895C83.2998 19.5121 83.2877 19.0367 83.3139 18.5331C83.3139 18.5291 83.3139 18.525 83.3139 18.521C83.3159 18.5109 83.4367 17.403 83.7993 17.3446C83.9222 17.3245 84.035 17.391 84.0874 17.5098C84.9314 19.4093 85.6747 20.7126 86.702 22.5154L86.9779 23.0009C88.2268 25.265 88.678 27.3055 88.537 30.045C88.5048 30.7299 88.0979 31.9707 87.4432 32.4179C87.2841 32.5368 87.1169 32.5912 86.9497 32.5912ZM79.7767 21.5163C80.3568 22.6987 80.9067 23.7684 81.6863 24.9286C82.1979 25.6941 82.7378 26.3628 83.4367 27.094C83.6986 27.37 83.9685 27.6379 84.2445 27.9139C84.5003 28.1697 84.7602 28.4295 85.0281 28.7075C85.3886 29.0822 85.8016 29.5294 86.146 30.0752C86.5247 30.6755 86.7725 31.3443 86.847 31.9566C86.8531 32.007 86.8611 32.0755 86.8732 32.0976C86.9215 32.1077 87.0223 32.1238 87.1713 32.0211C87.6225 31.7129 88.0234 30.6775 88.0536 30.0269C88.1926 27.3478 87.7736 25.4483 86.5569 23.2446L86.283 22.7612C85.3423 21.1094 84.6393 19.8746 83.8759 18.2189C83.8416 18.3699 83.8114 18.5109 83.8033 18.5694C83.7792 19.0427 83.7892 19.4919 83.8376 19.9391C83.9343 20.8415 84.1619 21.8809 84.5507 23.2124C84.6715 23.6233 84.8065 24.0564 84.9515 24.5016C84.9878 24.6103 84.9414 24.7312 84.8427 24.7876C84.744 24.846 84.6171 24.8259 84.5406 24.7413C83.7651 23.8852 82.9714 23.3776 82.0871 22.8498C82.0771 22.8438 82.067 22.8377 82.0589 22.8297C81.8978 22.7068 80.5885 21.9635 79.7767 21.5163Z" fill="#C6C6C6"/>
<path d="M81.5282 21.4889C81.4214 21.4889 81.3207 21.4527 81.2401 21.3822C81.1454 21.2996 81.0991 21.1928 81.0649 21.1143C80.8655 20.659 80.5049 20.2098 80.0456 19.8412C79.6146 19.4947 79.1492 19.249 78.7101 19.0274C78.416 18.8804 78.13 18.7414 77.852 18.6064C77.4794 18.4251 77.1268 18.2539 76.7723 18.0706C75.89 17.6133 75.179 17.1581 74.4659 16.5961C73.1989 15.601 72.2804 14.612 71.2188 13.4658C71.1302 13.3711 71.1221 13.212 71.2127 13.1194C71.3215 13.0086 71.3215 13.0086 72.9773 13.345C73.5474 13.4618 74.5223 13.6632 74.7519 13.7398C75.4831 13.9049 76.166 14.0721 76.865 14.3622C76.7985 14.2615 76.732 14.1628 76.6676 14.0641C75.9364 12.9481 75.4368 12.0377 75.0944 11.1977C74.9211 10.7706 74.7862 10.3335 74.6794 9.86015C74.6794 9.85612 74.6774 9.8521 74.6774 9.84807C74.6754 9.83799 74.5062 8.7704 74.8325 8.61529C74.9433 8.56292 75.0682 8.59313 75.1548 8.68982C76.5266 10.2811 77.5861 11.2541 79.1915 12.7245L79.3466 12.8676C81.1313 14.5455 82.0861 16.2355 82.6481 18.7071C82.8113 19.4021 82.6884 20.5321 82.2433 21.1042C82.0539 21.3479 81.8122 21.4809 81.5463 21.4869C81.5382 21.4889 81.5322 21.4889 81.5282 21.4889ZM72.0628 13.6612C72.9209 14.5797 73.7266 15.3996 74.766 16.2134C75.4529 16.7572 76.1398 17.1964 76.9959 17.6395C77.3444 17.8208 77.6949 17.99 78.0635 18.1693C78.3455 18.3063 78.6336 18.4453 78.9297 18.5943C79.393 18.828 79.8845 19.0878 80.3518 19.4625C80.8715 19.8795 81.2824 20.3931 81.51 20.9128C81.5221 20.941 81.5382 20.9793 81.5503 20.9994C81.6631 20.9914 81.7638 20.9269 81.8565 20.8061C82.1949 20.371 82.3037 19.3799 82.1707 18.8179C81.6249 16.4168 80.7386 14.8497 79.0123 13.2261L78.8592 13.0871C77.3807 11.7315 76.3614 10.7968 75.1347 9.41297C75.1407 9.56404 75.1488 9.70706 75.1568 9.76548C75.2555 10.2086 75.3824 10.6175 75.5436 11.0164C75.8739 11.8261 76.3594 12.7104 77.0725 13.7982C77.3021 14.1467 77.5418 14.5012 77.7875 14.8456C77.854 14.9383 77.846 15.0652 77.7694 15.1498C77.6929 15.2344 77.568 15.2545 77.4693 15.2002C76.5125 14.6643 75.6181 14.4367 74.6291 14.2131C74.619 14.2111 74.6089 14.2071 74.5988 14.2051C74.4155 14.1386 72.9592 13.8365 72.0628 13.6612Z" fill="#C6C6C6"/>
<path d="M73.5862 13.147C73.5278 13.147 73.4714 13.1349 73.415 13.1127C73.3022 13.0644 73.2277 12.9798 73.1753 12.9173C72.8651 12.5568 72.4038 12.2466 71.868 12.0371C71.3685 11.8417 70.8568 11.745 70.3734 11.6624C70.0793 11.612 69.7953 11.5677 69.5153 11.5254C69.0822 11.4569 68.6713 11.3945 68.2583 11.3159C67.2894 11.1326 66.4857 10.901 65.6518 10.5646C64.137 9.95626 62.9445 9.22706 61.6835 8.45356C61.6271 8.41932 61.5868 8.36291 61.5727 8.29644C61.5586 8.23198 61.5727 8.16349 61.611 8.10709C61.6896 7.99429 61.6896 7.99429 63.3574 7.87544C63.9396 7.83314 64.9326 7.76667 65.1683 7.77473C65.9156 7.73444 66.6187 7.70825 67.364 7.78883C67.2753 7.7143 67.1887 7.64178 67.1021 7.56725C66.1231 6.72526 65.3798 5.97592 64.8319 5.27292C64.5519 4.91437 64.3062 4.53164 64.0786 4.10662C64.0766 4.10259 64.0745 4.10058 64.0725 4.09655C64.0685 4.08647 63.6233 3.11355 63.8953 2.87787C63.9879 2.7973 64.1168 2.79327 64.2256 2.86377C66.0446 4.07036 67.3639 4.71696 69.3581 5.69593C71.5155 6.78367 72.8772 8.09702 74.0616 10.2282C74.39 10.8103 74.5713 11.8779 74.3134 12.5386C74.1966 12.8388 73.9972 13.0422 73.7353 13.1268C73.6849 13.1389 73.6366 13.147 73.5862 13.147ZM62.5678 8.4173C63.5891 9.0357 64.6063 9.61583 65.8331 10.1073C66.6368 10.4316 67.4123 10.6552 68.349 10.8325C68.7559 10.909 69.1607 10.9735 69.5918 11.04C69.8738 11.0843 70.1599 11.1286 70.456 11.179C70.9636 11.2656 71.5054 11.3683 72.0473 11.5798C72.6556 11.8175 73.1874 12.1761 73.5419 12.589C73.5621 12.6112 73.5842 12.6373 73.5983 12.6514C73.7152 12.6071 73.7998 12.5104 73.8602 12.3553C74.0576 11.8457 73.9045 10.9352 73.6366 10.4598C72.4884 8.39313 71.2274 7.17848 69.1406 6.12498C67.3599 5.25076 66.0325 4.60013 64.3988 3.55268C64.4432 3.69569 64.4895 3.82663 64.5116 3.879C64.7252 4.27582 64.9548 4.63236 65.2146 4.96674C65.7424 5.64356 66.4635 6.37275 67.4183 7.19258C67.7245 7.45445 68.0468 7.72034 68.3812 7.98422C68.4698 8.05472 68.498 8.17759 68.4497 8.28033C68.4013 8.38306 68.2865 8.43946 68.1757 8.41327C67.1202 8.17357 66.1956 8.19975 65.1824 8.25615C65.1724 8.25615 65.1643 8.25615 65.1542 8.25615C64.9588 8.24407 63.4803 8.3468 62.5678 8.4173Z" fill="#C6C6C6"/>
<path d="M63.787 7.53739C63.7689 7.53739 63.7487 7.53538 63.7306 7.53336C63.6098 7.51725 63.5151 7.4548 63.4466 7.41049C63.0538 7.14863 62.526 6.97539 61.9519 6.91496C61.4202 6.85856 60.8985 6.90086 60.411 6.94719C60.133 6.97338 59.8611 7.00359 59.5972 7.03179C59.144 7.08014 58.7149 7.12647 58.2778 7.1587C57.2968 7.23121 56.4589 7.21107 55.5605 7.09625C53.9188 6.88878 52.5188 6.45771 51.1632 6.03873C51.0987 6.01858 51.0443 5.97225 51.0161 5.91182C50.9879 5.85139 50.9839 5.78089 51.0081 5.71643C51.0564 5.59356 51.0564 5.59356 52.6356 5.06781C53.1876 4.88451 54.1303 4.5743 54.3579 4.52394C55.067 4.29834 55.7357 4.10093 56.473 3.99216C56.3682 3.94381 56.2655 3.89547 56.1648 3.84713C54.9985 3.28513 54.0819 2.74528 53.3608 2.19738C52.9942 1.9194 52.6558 1.61323 52.3234 1.2587C52.3214 1.25669 52.3174 1.25266 52.3154 1.25064C52.3093 1.24259 51.6204 0.410666 51.8218 0.114558C51.8924 0.0138416 52.0152 -0.0264452 52.1381 0.0178703C54.1706 0.720874 55.5625 1.01497 57.8487 1.47625C60.2196 1.97782 61.8794 2.88427 63.5836 4.60653C64.0529 5.07386 64.5081 6.04275 64.4397 6.73971C64.4074 7.05798 64.2684 7.30776 64.0368 7.45883C63.9623 7.51121 63.8756 7.53739 63.787 7.53739ZM61.4081 6.40131C61.6035 6.40131 61.8009 6.40936 62.0023 6.43152C62.6509 6.50001 63.2572 6.70144 63.7064 6.99956C63.7306 7.01568 63.7588 7.03381 63.779 7.04388C63.8797 6.96935 63.9361 6.85453 63.9522 6.68936C64.0066 6.15556 63.6198 5.32968 63.2371 4.94897C61.5833 3.27707 60.0444 2.43709 57.75 1.95163C55.7035 1.5387 54.2934 1.24259 52.4926 0.650372C52.5712 0.773247 52.6497 0.88605 52.684 0.930365C52.9942 1.26072 53.3125 1.54877 53.6549 1.80862C54.3498 2.33637 55.2382 2.85809 56.3763 3.40599C56.7409 3.58123 57.1236 3.75648 57.5164 3.92569C57.6211 3.97201 57.6795 4.0828 57.6594 4.19561C57.6372 4.30841 57.5426 4.38898 57.4278 4.39301C56.3481 4.42726 55.4597 4.68509 54.4949 4.99127C54.4868 4.99328 54.4767 4.9953 54.4687 4.99731C54.2793 5.03559 52.8834 5.49485 52.0193 5.78693C53.1352 6.12333 54.3055 6.44159 55.6249 6.60878C56.4911 6.71957 57.2988 6.73971 58.2456 6.66921C58.6746 6.639 59.0996 6.59267 59.5488 6.54432C59.8147 6.51612 60.0867 6.48591 60.3687 6.45972C60.697 6.43152 61.0455 6.40131 61.4081 6.40131Z" fill="#C6C6C6"/>
<path d="M42.7728 6.31732C41.9328 6.31732 41.1291 6.27099 40.3395 6.22466C40.273 6.22063 40.2105 6.19042 40.1682 6.14006C40.1259 6.0897 40.1038 6.02323 40.1118 5.95675C40.1259 5.82179 40.1259 5.82179 41.5179 4.93548C42.0033 4.62729 42.8332 4.10356 43.0387 4.00083C43.6631 3.61609 44.2574 3.2656 44.9382 2.98359C44.8234 2.96143 44.7086 2.93726 44.5958 2.9151C43.3187 2.64921 42.2893 2.34504 41.4453 1.98649C41.0163 1.80319 40.6074 1.58765 40.1924 1.32378C40.1884 1.32176 40.1864 1.31975 40.1824 1.31773C40.1743 1.31169 39.2819 0.677173 39.4088 0.334736C39.4511 0.219919 39.5639 0.15546 39.6929 0.163517C41.8603 0.362937 43.3529 0.312578 45.607 0.21589C48.0302 0.133302 49.8773 0.6107 51.9823 1.85959C52.5665 2.20001 53.2675 3.03193 53.3763 3.72285C53.4246 4.03306 53.3541 4.30298 53.1748 4.50441C53.1003 4.58902 53.0036 4.64139 52.8948 4.65348C52.776 4.66959 52.6672 4.63132 52.5907 4.60513C52.1395 4.45003 51.5835 4.40974 51.0134 4.49233C50.4857 4.56686 50.0123 4.72599 49.5309 4.89721C49.2771 4.98786 49.0313 5.0785 48.7896 5.16713C48.3545 5.32626 47.9456 5.47734 47.5226 5.61633C46.594 5.92049 45.7782 6.1038 44.8758 6.20452C44.1445 6.2871 43.4476 6.31732 42.7728 6.31732ZM41.1029 5.77949C42.3075 5.84193 43.4899 5.87215 44.8214 5.71906C45.6895 5.62036 46.4751 5.44511 47.3715 5.15102C47.7865 5.01606 48.1913 4.867 48.6224 4.70786C48.8662 4.61923 49.1119 4.52859 49.3677 4.43593C49.8532 4.26471 50.3729 4.08946 50.9429 4.00687C51.5875 3.91421 52.2261 3.96054 52.7397 4.13982C52.7679 4.14989 52.8002 4.15996 52.8223 4.16601C52.8968 4.07335 52.919 3.9545 52.8948 3.79738C52.8122 3.2656 52.214 2.55655 51.7346 2.27857C49.69 1.06594 47.9778 0.6248 45.6271 0.70336C43.5503 0.794005 42.1161 0.842349 40.2065 0.697317C40.3153 0.796019 40.418 0.88465 40.4623 0.918894C40.8511 1.16464 41.2358 1.36809 41.6367 1.53931C42.4505 1.88578 43.4516 2.17987 44.6965 2.43972C45.0993 2.52231 45.5163 2.60087 45.9373 2.67137C46.0501 2.6895 46.1347 2.78417 46.1408 2.89899C46.1468 3.0138 46.0743 3.11654 45.9635 3.14675C44.9281 3.43883 44.1687 3.87796 43.2844 4.42384C43.2764 4.42787 43.2683 4.4319 43.2603 4.43593C43.089 4.5165 41.8623 5.29001 41.1029 5.77949Z" fill="#C6C6C6"/>
<path d="M29.8743 9.01477C29.8239 9.01477 29.7756 8.99866 29.7353 8.97046C29.6809 8.93218 29.6446 8.87377 29.6345 8.80931C29.6124 8.67435 29.6124 8.67435 30.7263 7.47582C31.1131 7.05885 31.7758 6.3498 31.949 6.19873C32.4506 5.675 32.93 5.19156 33.5162 4.75646C33.3953 4.76251 33.2765 4.76855 33.1556 4.77258C31.8483 4.82294 30.7686 4.77862 29.8602 4.63762C29.3989 4.56711 28.9456 4.45633 28.4723 4.30324C28.4682 4.30122 28.4662 4.30122 28.4622 4.29921C28.4521 4.29518 27.4188 3.90037 27.455 3.53577C27.4651 3.43506 27.5417 3.32225 27.6887 3.3001C29.8259 2.96169 31.1936 2.57292 33.4255 1.91423C35.7481 1.25554 37.6617 1.27569 40.0326 1.98272C40.6973 2.1761 41.5997 2.81867 41.8797 3.4693C42.0006 3.75131 42.0026 4.02324 41.8837 4.25691C41.8334 4.35762 41.7508 4.43417 41.6481 4.47244C41.5353 4.51474 41.4225 4.50467 41.3399 4.49863C40.8605 4.45431 40.3125 4.54899 39.7828 4.76251C39.2933 4.95991 38.8763 5.22782 38.4574 5.5058C38.2317 5.65687 38.0162 5.80392 37.8027 5.94895C37.428 6.20477 37.0735 6.44649 36.7049 6.68015C35.8871 7.19784 35.1438 7.56848 34.2998 7.88473C32.789 8.45479 31.3951 8.72471 29.9186 9.01074C29.9045 9.01276 29.8884 9.01477 29.8743 9.01477ZM34.4186 4.20856C34.5254 4.20856 34.62 4.27705 34.6502 4.37978C34.6845 4.48856 34.6382 4.60539 34.5395 4.6638C33.6149 5.19559 32.9743 5.8301 32.2915 6.54318C32.2854 6.54922 32.2774 6.55728 32.2693 6.56332C32.1243 6.68418 31.1433 7.73365 30.539 8.39234C31.7355 8.15465 32.8978 7.89279 34.1305 7.42747C34.9423 7.12331 35.6574 6.76677 36.447 6.26722C36.8076 6.0396 37.1581 5.79989 37.5307 5.54608C37.7443 5.39904 37.9638 5.24997 38.1894 5.0989C38.6125 4.81689 39.0717 4.5228 39.6015 4.30928C40.2018 4.06554 40.8323 3.9608 41.3761 4.00914C41.4043 4.01116 41.4365 4.01519 41.4587 4.01519C41.501 3.91447 41.493 3.79764 41.4325 3.66066C41.219 3.16916 40.4314 2.60515 39.8936 2.44803C37.5871 1.75913 35.8105 1.741 33.5585 2.37954C31.5683 2.96572 30.1885 3.36053 28.3212 3.68483C28.4541 3.75534 28.577 3.81577 28.6274 3.83792C29.0705 3.98094 29.4976 4.08367 29.9307 4.15015C30.8089 4.28511 31.8564 4.32741 33.1314 4.27906C33.5544 4.26295 33.9795 4.23676 34.3944 4.20453C34.4045 4.20856 34.4105 4.20856 34.4186 4.20856Z" fill="#C6C6C6"/>
<path d="M20.4961 14.4182C20.4659 14.4182 20.4377 14.4121 20.4095 14.402C20.345 14.3779 20.2946 14.3275 20.2705 14.263C20.2221 14.1402 20.2221 14.1402 20.9694 12.6838C21.2313 12.1762 21.6785 11.312 21.8094 11.1167C22.1539 10.4741 22.4903 9.87784 22.9415 9.30173C22.8246 9.34001 22.7078 9.37627 22.591 9.41252C21.3159 9.80733 20.2946 10.039 19.3761 10.1457C18.9088 10.1981 18.4414 10.2122 17.9499 10.1901C17.9459 10.1901 17.9419 10.1901 17.9379 10.1901C17.9258 10.1901 16.8239 10.0793 16.7635 9.7187C16.7434 9.59784 16.8058 9.48504 16.9246 9.43065C18.941 8.50406 20.1959 7.73659 22.0934 6.57231C24.1581 5.33953 26.0133 4.87825 28.501 4.97897C29.198 5.00314 30.2414 5.40601 30.6846 5.96801C30.8739 6.20771 30.9464 6.46958 30.8941 6.72338C30.8719 6.83619 30.8115 6.93086 30.7208 6.9933C30.6221 7.06381 30.5073 7.08193 30.4247 7.09402C29.9554 7.16855 29.4498 7.39416 28.9946 7.73257C28.5736 8.04479 28.2432 8.40535 27.9129 8.78002C27.7296 8.98951 27.5523 9.19296 27.3811 9.39439C27.093 9.72877 26.8211 10.045 26.533 10.3572C25.8804 11.0663 25.264 11.6162 24.5328 12.1399C23.2618 13.0585 22.0652 13.6587 20.6794 14.3557L20.6089 14.392C20.5706 14.4101 20.5343 14.4182 20.4961 14.4182ZM23.7271 8.53629C23.8097 8.53629 23.8882 8.57859 23.9325 8.64909C23.993 8.74578 23.9789 8.87067 23.8983 8.95124C23.1449 9.7046 22.6977 10.4882 22.2304 11.3584C22.2264 11.3664 22.2203 11.3765 22.2143 11.3846C22.1035 11.5397 21.4368 12.8288 21.0319 13.6305C22.1619 13.0585 23.1812 12.5126 24.2427 11.7451C24.9478 11.2395 25.542 10.7098 26.1705 10.0269C26.4525 9.72072 26.7224 9.40849 27.0064 9.07613C27.1796 8.8747 27.3569 8.66722 27.5422 8.45773C27.8766 8.07903 28.2412 7.68019 28.6984 7.34178C29.2141 6.95705 29.7963 6.69921 30.3381 6.61461C30.3643 6.61058 30.3945 6.60655 30.4167 6.60051C30.4308 6.49576 30.3905 6.38699 30.2978 6.27016C29.9614 5.8411 29.0449 5.48658 28.4809 5.46845C26.0617 5.36975 24.3414 5.7988 22.3432 6.99129C20.6572 8.02464 19.4003 8.79614 17.6317 9.63813C17.7807 9.67036 17.9197 9.69856 17.9761 9.70662C18.4414 9.72676 18.8786 9.71467 19.3157 9.66432C20.202 9.5636 21.195 9.33598 22.4419 8.95124C22.8287 8.83038 23.2336 8.69743 23.6425 8.55442C23.6727 8.54032 23.7009 8.53629 23.7271 8.53629Z" fill="#C6C6C6"/>
<path d="M12.9287 22.4345C12.9186 22.4345 12.9085 22.4345 12.8985 22.4325C12.8239 22.4244 12.7595 22.3821 12.7212 22.3176C12.6064 22.1303 13.2832 19.1068 13.3618 18.7704C13.5209 18.0291 13.6841 17.3362 13.9661 16.6292C13.8633 16.6997 13.7626 16.7702 13.6619 16.8366C12.5278 17.6041 11.6093 18.1359 10.7713 18.5085C10.3382 18.6999 9.89508 18.855 9.41365 18.9839C9.40963 18.9859 9.4056 18.9859 9.40157 18.9859C9.38948 18.9879 8.31181 19.2095 8.14462 18.8812C8.08822 18.7724 8.11441 18.6435 8.21109 18.5549C9.82659 17.0824 10.7995 15.9946 12.27 14.3489L12.411 14.1918C14.0627 12.391 15.7266 11.4241 18.1579 10.848C18.8307 10.6828 19.9406 10.7936 20.5207 11.2207C20.7725 11.404 20.9135 11.6417 20.9296 11.9035C20.9377 12.0163 20.9055 12.1251 20.8349 12.2117C20.7564 12.3084 20.6496 12.3547 20.5731 12.391C20.142 12.5864 19.715 12.9429 19.3685 13.3961C19.0442 13.8171 18.8146 14.2784 18.6071 14.7155C18.4802 14.9834 18.3593 15.2433 18.2425 15.4991C18.0612 15.8939 17.89 16.2666 17.7006 16.6433C17.2635 17.5215 16.8184 18.2386 16.2564 18.9658C15.3217 20.1865 14.381 21.107 13.2913 22.1726L13.0959 22.364C13.0536 22.4083 12.9931 22.4345 12.9287 22.4345ZM14.5824 15.6462C14.6409 15.6462 14.6973 15.6663 14.7436 15.7066C14.8302 15.7811 14.8524 15.906 14.796 16.0067C14.2722 16.9676 14.0527 17.874 13.8371 18.8711C13.8351 18.8812 13.8331 18.8913 13.8291 18.9013C13.7626 19.0887 13.4705 20.5692 13.2993 21.4857C14.232 20.5712 15.0598 19.7332 15.8736 18.6677C16.4155 17.9647 16.8466 17.2717 17.2696 16.4237C17.4549 16.0551 17.6241 15.6844 17.8034 15.2936C17.9222 15.0358 18.0431 14.7719 18.172 14.504C18.3916 14.0427 18.6353 13.5553 18.9878 13.096C19.3826 12.5823 19.8741 12.1734 20.3737 11.9458C20.3958 11.9357 20.426 11.9216 20.4462 11.9116C20.4301 11.8008 20.3616 11.7041 20.2367 11.6114C19.7935 11.2851 18.8186 11.1864 18.2767 11.3194C15.9159 11.8773 14.375 12.7737 12.7756 14.5161L12.6366 14.6712C11.3293 16.1336 10.3523 17.2254 8.9423 18.5428C9.0974 18.5307 9.24042 18.5146 9.30085 18.5045C9.75206 18.3836 10.171 18.2386 10.5759 18.0573C11.3877 17.6968 12.2801 17.1791 13.39 16.4277C13.7264 16.1981 14.0809 15.9503 14.4394 15.6885C14.4817 15.6623 14.5321 15.6462 14.5824 15.6462ZM9.35323 18.7462H9.35524H9.35323Z" fill="#C6C6C6"/>
<path d="M7.8709 33.0622C7.79838 33.0622 7.72788 33.0299 7.68155 32.9735C7.55666 32.8204 7.35926 29.4726 7.34314 29.1221H7.34113C7.29077 28.3124 7.25653 27.5509 7.33308 26.7392C7.25855 26.8399 7.18401 26.9386 7.10948 27.0373C6.2272 28.2056 5.496 29.0577 4.80911 29.7163C4.44854 30.0628 4.06784 30.375 3.64482 30.6691C3.6408 30.6711 3.63677 30.6752 3.63274 30.6772C3.62267 30.6832 2.66787 31.2674 2.39996 31.0136C2.33147 30.9491 2.2791 30.8222 2.35766 30.6792C3.43533 28.6991 4.06582 27.277 4.94004 25.309L5.17975 24.7711C6.27958 22.3821 7.56875 20.9318 9.77848 19.5943C10.3727 19.2297 11.4645 19.0021 12.1433 19.2458C12.4414 19.3526 12.6469 19.548 12.7355 19.8058C12.7738 19.9105 12.7718 20.0234 12.7295 20.1261C12.6832 20.2409 12.5965 20.3174 12.5341 20.3718C12.1655 20.7042 11.8512 21.1897 11.6397 21.7517C11.4423 22.2774 11.3456 22.8112 11.2651 23.3148C11.2127 23.6351 11.1684 23.9453 11.1241 24.2494C11.0596 24.6926 10.9972 25.1136 10.9206 25.5406C10.7413 26.5659 10.5097 27.4361 10.1733 28.3627C9.63949 29.8453 8.99692 31.1203 8.3201 32.4679L8.09046 32.9252C8.0542 32.9997 7.98169 33.0501 7.8991 33.0581C7.88903 33.0622 7.88097 33.0622 7.8709 33.0622ZM7.72386 25.5426C7.75609 25.5426 7.79033 25.5487 7.82054 25.5628C7.92529 25.6091 7.98572 25.7219 7.96155 25.8367C7.72184 26.9889 7.7581 27.9921 7.82658 29.0899C7.82658 29.1 7.82658 29.11 7.82658 29.1201C7.8145 29.3376 7.9414 30.9471 8.03003 31.9563C8.66858 30.6852 9.22655 29.5512 9.71402 28.1995C10.0403 27.2991 10.2659 26.4551 10.4412 25.46C10.5157 25.0391 10.5762 24.6221 10.6426 24.1809C10.6869 23.8728 10.7333 23.5605 10.7856 23.2382C10.8702 22.7105 10.971 22.1485 11.1865 21.5804C11.4242 20.9479 11.7848 20.394 12.2037 20.0173C12.2279 19.9952 12.2581 19.969 12.2722 19.9508C12.2279 19.838 12.1332 19.7575 11.9802 19.7031C11.4584 19.5157 10.5218 19.7091 10.0343 20.0093C8.26773 21.0789 6.84158 22.3318 5.62693 24.9706L5.38924 25.5064C4.58351 27.3193 3.98323 28.6709 3.05059 30.4234C3.1916 30.3589 3.32253 30.2924 3.37691 30.2622C3.77575 29.9822 4.13431 29.6881 4.47473 29.3618C5.14148 28.7213 5.85657 27.8873 6.72273 26.7392C6.99265 26.3826 7.26257 26.012 7.52645 25.6413C7.57278 25.5789 7.64731 25.5426 7.72386 25.5426ZM3.50785 30.4697H3.50986H3.50785Z" fill="#C6C6C6"/>
<path d="M6.03216 46.3037C5.9677 46.3037 5.90526 46.2775 5.85893 46.2311C5.73605 46.1062 4.58386 42.5086 4.47911 42.1702C4.20516 41.3202 3.96142 40.5165 3.80833 39.6302C3.76603 39.7631 3.72575 39.892 3.68344 40.0209C3.1577 41.6465 2.71656 42.8048 2.25528 43.7736C2.01154 44.2833 1.73961 44.7667 1.42336 45.2502C1.42134 45.2542 1.41731 45.2582 1.4153 45.2622C1.29242 45.4274 0.665963 46.2412 0.337626 46.1002C0.246981 46.0619 0.154326 45.9552 0.184541 45.786C0.631724 43.2801 0.839196 41.4874 1.09905 39.2152L1.2038 38.3007C1.58048 35.3618 2.40434 33.3797 4.1407 31.2263C4.61004 30.6341 5.60512 30.0177 6.32625 30.058C6.63848 30.0721 6.88624 30.2051 7.03933 30.4407C7.10178 30.5334 7.12997 30.6422 7.11789 30.755C7.1058 30.8779 7.05142 30.9766 7.0071 31.0551C6.74322 31.5305 6.57402 32.1529 6.52769 32.8177C6.48337 33.4401 6.53977 34.0363 6.60222 34.5963C6.6425 34.9509 6.6848 35.2953 6.72711 35.6357C6.78754 36.1272 6.84595 36.5925 6.89228 37.0719C7.00509 38.2221 7.02926 39.2333 6.96681 40.3493C6.87617 42.0897 6.64855 43.6024 6.38467 45.3549L6.27388 46.0982C6.25978 46.1888 6.19532 46.2654 6.10871 46.2936C6.08252 46.2996 6.05633 46.3037 6.03216 46.3037ZM6.26583 30.5435C5.72196 30.5435 4.89205 31.0652 4.51939 31.5305C3.12144 33.2649 2.10622 35.0878 1.68723 38.3611L1.58249 39.2736C1.34279 41.3645 1.14739 43.0525 0.770714 45.2622C0.883517 45.1394 0.984231 45.0246 1.02049 44.9782C1.32264 44.5149 1.58249 44.0536 1.81414 43.5662C2.26535 42.6154 2.70045 41.4773 3.22015 39.8719C3.37525 39.3884 3.52834 38.8949 3.6774 38.3974C3.71164 38.2846 3.82445 38.2141 3.93725 38.2241C4.05408 38.2382 4.14472 38.3329 4.15278 38.4498C4.24746 39.7772 4.56572 40.8529 4.94039 42.0232C4.9424 42.0312 4.94442 42.0393 4.94643 42.0494C4.99679 42.2931 5.56282 43.9811 5.93346 45.0588C6.18122 43.4131 6.39273 41.9668 6.47733 40.3231C6.53776 39.2313 6.51359 38.2423 6.4028 37.1183C6.35647 36.6429 6.30007 36.1836 6.23762 35.6941C6.19532 35.3537 6.15302 35.0073 6.11273 34.6487C6.04828 34.0666 5.98986 33.4441 6.03619 32.7814C6.08856 32.0462 6.27791 31.3532 6.56999 30.8275C6.59617 30.7792 6.62639 30.7268 6.6284 30.7026C6.58409 30.6422 6.50351 30.5536 6.30007 30.5435C6.28999 30.5435 6.27791 30.5435 6.26583 30.5435ZM1.2179 45.1172H1.21991H1.2179Z" fill="#C6C6C6"/>
</svg>
