<svg width="104" height="90" viewBox="0 0 104 90" fill="none" xmlns="http://www.w3.org/2000/svg">
<path d="M72.7772 24.2181C69.9397 23.1195 67.0731 24.2885 65.9601 26.9997C65.8046 27.3769 65.6968 27.7666 65.6346 28.1542C65.6554 26.8877 65.6512 25.7705 65.6388 24.9V23.0926C65.6388 22.9807 65.5559 22.8853 65.4439 22.8667C56.7613 21.4966 47.9543 21.4966 39.2697 22.8667C39.1619 22.8832 39.081 22.9745 39.0769 23.0843C39.0748 23.1133 38.9857 25.3436 39.0417 28.4278C38.9919 27.949 38.8717 27.4681 38.681 27.0017C37.57 24.2927 34.7014 23.1237 31.8638 24.2202C28.3485 25.5799 29.0822 30.5067 29.3911 31.9845C30.0336 35.0563 31.9384 37.8379 35.3854 40.7418C35.7087 41.0133 36.0424 41.2848 36.4052 41.5709C36.6705 41.7802 36.942 41.9792 37.2425 42.1968C38.2437 42.9244 39.1909 43.6125 39.6345 44.682C39.9039 45.3287 39.8521 46.1039 39.4956 46.7568C39.0748 47.5299 38.2499 47.8823 37.4892 47.6149C37.0208 47.4491 36.0673 46.8563 36.2932 46.1661C36.3637 45.9485 36.3471 45.7184 36.2414 45.5153C36.1378 45.3121 35.9595 45.1608 35.744 45.0903C35.5263 45.0199 35.2963 45.0365 35.0911 45.1401C34.8859 45.2437 34.7325 45.4199 34.662 45.6375C34.1293 47.2646 35.4268 48.701 36.9171 49.2234C37.2757 49.3498 37.6467 49.414 38.0198 49.414C39.2593 49.414 40.3744 48.7238 41.0024 47.5693C41.5144 46.6304 41.6471 45.5298 41.3859 44.5328C41.5123 44.8209 41.6408 45.0945 41.7756 45.3453C43.8234 49.1487 47.1999 51.9593 49.7763 53.7004C49.6395 53.8455 49.5566 54.0383 49.5566 54.2476V55.0622C49.5566 55.5037 49.9172 55.8623 50.3608 55.8623H50.6385V63.2329L49.314 65.5025H47.8445C47.7823 65.5025 47.7243 65.5274 47.6807 65.5709L44.7624 68.5245C44.7209 68.568 44.696 68.624 44.696 68.6862V73.269H43.4856C43.3591 73.269 43.2555 73.3705 43.2555 73.497V74.639C43.2555 74.7655 43.3591 74.867 43.4856 74.867H61.1866C61.313 74.867 61.4167 74.7655 61.4167 74.639V73.497C61.4167 73.3705 61.313 73.269 61.1866 73.269H59.9761V68.6385C59.9761 68.5763 59.9512 68.5162 59.9056 68.4748L56.8774 65.5688C56.8339 65.5274 56.7779 65.5045 56.7178 65.5045H55.3581L54.0316 63.2142V55.8623H54.0958C54.5394 55.8623 54.9 55.5037 54.9 55.0622V54.2476C54.9 54.0818 54.8482 53.9243 54.757 53.7937C56.9582 52.3221 60.7161 49.3892 62.8945 45.3453C63.0064 45.138 63.1121 44.9162 63.2137 44.6882C63.0064 45.6417 63.1515 46.6781 63.6365 47.5673C64.2666 48.7218 65.3818 49.412 66.6192 49.412C66.9923 49.412 67.3633 49.3477 67.7219 49.2213C69.2121 48.6969 70.5097 47.2626 69.977 45.6355C69.9065 45.4178 69.7531 45.2416 69.5479 45.138C69.3427 45.0344 69.1127 45.0178 68.8971 45.0883C68.6795 45.1587 68.5012 45.3101 68.3976 45.5132C68.2939 45.7163 68.2753 45.9485 68.3458 46.164C68.5717 46.8522 67.6182 47.447 67.1498 47.6129C66.3891 47.8802 65.5621 47.5279 65.1413 46.7547C64.7848 46.1018 64.733 45.3246 65.0025 44.6799C65.4481 43.6125 66.3933 42.9244 67.3944 42.1948C67.697 41.9751 67.9664 41.7781 68.2318 41.5688C68.5965 41.2828 68.9303 41.0112 69.2515 40.7397C72.6985 37.8358 74.6033 35.0522 75.2458 31.9825C75.5588 30.5046 76.2946 25.5778 72.7772 24.2181ZM38.2395 40.8061C37.9783 40.6154 37.7172 40.4267 37.4705 40.2298C37.112 39.9479 36.7928 39.6868 36.4922 39.436C34.3096 37.5975 32.8131 35.8336 31.9198 34.0469C31.4368 32.4281 31.3892 30.7326 31.7851 29.2693C32.0379 28.3366 32.7199 26.7654 34.4485 26.7261C35.6113 26.6888 36.7181 27.4805 37.0208 28.5438C37.0684 28.7076 37.0871 28.8817 37.0995 29.0931C37.1265 29.5284 37.0912 29.9056 36.9855 30.3057C36.685 30.7948 36.2103 31.1596 35.6092 31.3586C35.1615 31.5078 34.919 31.9928 35.0683 32.4385C35.1408 32.654 35.2942 32.8302 35.4994 32.9318C35.7046 33.0333 35.9367 33.0499 36.1544 32.9774C37.3006 32.5939 38.196 31.8084 38.6769 30.7658C38.8986 30.2828 39.0271 29.7543 39.0603 29.2092C39.081 30.0466 39.1142 30.9316 39.1619 31.8457C39.4313 36.9653 40.0552 40.9076 41.0211 43.6063C40.3537 42.3461 39.2427 41.5356 38.2395 40.8061ZM65.6077 29.4807C65.6616 29.9305 65.7797 30.3658 65.9663 30.7699C66.4451 31.8125 67.3426 32.5981 68.4888 32.9815C68.7064 33.0541 68.9385 33.0375 69.1437 32.9359C69.3489 32.8344 69.5023 32.6602 69.5749 32.4426C69.7262 31.997 69.4837 31.512 69.0339 31.3607C68.4328 31.1596 67.9582 30.7969 67.6576 30.3077C67.5498 29.9056 67.5146 29.5305 67.5436 29.0952C67.556 28.8838 67.5747 28.7097 67.6224 28.5459C67.925 27.4826 69.0318 26.695 70.1946 26.7261C71.9253 26.7654 72.6073 28.3366 72.8581 29.2693C73.2539 30.7326 73.2063 32.4281 72.7233 34.0469C71.83 35.8336 70.3335 37.5975 68.1509 39.436C67.8545 39.6847 67.5353 39.9459 67.1747 40.2298C66.9218 40.4288 66.6586 40.6195 66.3891 40.8164C65.4377 41.5087 64.3765 42.2818 63.7008 43.4633C65.0377 39.5976 65.4833 33.8977 65.6077 29.4807Z" fill="#C6C6C6"/>
<path d="M81.4376 2.2576C83.7404 4.35726 84.1529 7.65289 84.1529 7.65289C84.1529 7.65289 80.8345 7.54303 78.5317 5.44336C76.2289 3.3437 75.8164 0.0480957 75.8164 0.0480957C75.8164 0.0480957 79.1348 0.157932 81.4376 2.2576Z" fill="#C6C6C6"/>
<path d="M65.2467 79.6349C63.2651 82.1781 63.1449 85.1815 63.1719 85.1897C63.1636 85.2271 67.3297 84.0622 69.2014 81.2578C71.071 78.4886 70.1611 75.6179 70.188 75.6262C70.1756 75.6553 67.2261 77.1165 65.2467 79.6349Z" fill="#C6C6C6"/>
<path d="M68.1656 88.4418C64.5094 87.82 63.1434 85.055 63.1455 85.0799C63.189 85.0923 67.1085 83.9627 70.485 84.3586C73.8946 84.7731 75.8989 86.8915 75.8989 86.9143C75.9466 86.9267 71.8634 89.0761 68.1656 88.4418Z" fill="#C6C6C6"/>
<path d="M72.4758 76.459C71.114 79.2468 71.6032 82.1631 71.628 82.1693C71.6239 82.2087 75.2864 80.3889 76.5197 77.3627C77.7571 74.3697 76.3497 71.7456 76.3746 71.7498C76.3683 71.7767 73.8376 73.694 72.4758 76.459Z" fill="#C6C6C6"/>
<path d="M76.9422 84.4723C73.3875 84.4826 71.578 82.041 71.5801 82.0658C71.6195 82.072 75.056 80.3268 78.333 80.1423C81.6431 79.9682 83.9625 81.6762 83.9646 81.699C84.0102 81.701 80.5342 84.4702 76.9422 84.4723Z" fill="#C6C6C6"/>
<path d="M78.7179 72.1622C77.9447 75.093 78.9749 77.829 78.9977 77.829C78.9997 77.8663 82.1358 75.4889 82.7638 72.3425C83.3981 69.2314 81.5658 66.9265 81.5886 66.9265C81.5865 66.9555 79.4951 69.2542 78.7179 72.1622Z" fill="#C6C6C6"/>
<path d="M84.5 79.1573C81.1069 79.7729 78.9264 77.7147 78.9326 77.7375C78.9699 77.7375 81.9028 75.4678 85.0223 74.7258C88.1728 73.99 90.7285 75.246 90.7347 75.2668C90.7761 75.2626 87.9303 78.5437 84.5 79.1573Z" fill="#C6C6C6"/>
<path d="M83.9304 66.9224C83.7148 69.9009 85.2134 72.3736 85.2362 72.3716C85.2424 72.4089 87.8312 69.5631 87.8851 66.3959C87.9494 63.2599 85.7647 61.3364 85.7875 61.3323C85.7875 61.3634 84.1522 63.9667 83.9304 66.9224Z" fill="#C6C6C6"/>
<path d="M90.79 72.7118C87.6188 73.8932 85.1481 72.2744 85.1543 72.2951C85.1875 72.2889 87.598 69.584 90.4999 68.3176C93.4286 67.0532 96.1418 67.8264 96.1501 67.8471C96.1895 67.8367 93.9945 71.5262 90.79 72.7118Z" fill="#C6C6C6"/>
<path d="M88.0622 60.92C88.369 63.8591 90.2676 66.0002 90.2862 65.994C90.2966 66.0292 92.3175 62.8103 91.8304 59.7095C91.3557 56.6398 88.8975 55.1454 88.9182 55.1392C88.9244 55.1661 87.7658 57.9995 88.0622 60.92Z" fill="#C6C6C6"/>
<path d="M95.7594 65.3512C92.8742 67.0571 90.1879 65.9129 90.1983 65.9316C90.2294 65.9212 92.099 62.8681 94.7189 61.1208C97.3637 59.3714 100.151 59.645 100.162 59.6637C100.197 59.6492 98.6757 63.6371 95.7594 65.3512Z" fill="#C6C6C6"/>
<path d="M91.0797 54.3286C91.8756 57.1496 94.0976 58.901 94.1142 58.8927C94.1287 58.9259 95.5609 55.4251 94.566 52.4735C93.5898 49.551 90.9325 48.5209 90.9491 48.5105C90.9615 48.5374 90.2983 51.5263 91.0797 54.3286Z" fill="#C6C6C6"/>
<path d="M99.3561 57.2947C96.8211 59.4731 94.0023 58.8285 94.0147 58.8472C94.0416 58.8327 95.3537 55.5205 97.6274 53.342C99.9261 51.1574 102.704 50.9273 102.716 50.9439C102.747 50.9232 101.92 55.1038 99.3561 57.2947Z" fill="#C6C6C6"/>
<path d="M92.9286 47.3291C94.1784 49.9573 96.645 51.2777 96.6615 51.2652C96.6823 51.2963 97.501 47.6069 96.0356 44.8792C94.5909 42.1763 91.8155 41.6374 91.8321 41.625C91.8487 41.6499 91.6974 44.7175 92.9286 47.3291Z" fill="#C6C6C6"/>
<path d="M101.533 48.7617C99.4128 51.3546 96.5441 51.2241 96.5586 51.2386C96.5814 51.2199 97.3173 47.7378 99.1806 45.1842C101.067 42.6202 103.747 41.8927 103.763 41.9072C103.792 41.8844 103.683 46.1521 101.533 48.7617Z" fill="#C6C6C6"/>
<path d="M93.5741 40.1014C95.2385 42.4726 97.875 43.3266 97.8896 43.3141C97.9144 43.3411 98.101 39.5584 96.2003 37.1208C94.3265 34.704 91.5139 34.6667 91.5284 34.6501C91.5512 34.6729 91.9305 37.7447 93.5741 40.1014Z" fill="#C6C6C6"/>
<path d="M102.239 39.9689C100.599 42.908 97.7656 43.2935 97.7843 43.3059C97.8029 43.2831 97.9418 39.7201 99.3305 36.8577C100.74 33.9808 103.233 32.7765 103.252 32.789C103.279 32.7599 103.905 37.009 102.239 39.9689Z" fill="#C6C6C6"/>
<path d="M92.9685 32.8243C95.0102 34.8804 97.7358 35.2514 97.7482 35.2349C97.7793 35.2577 97.3088 31.4749 95.0122 29.3877C92.7447 27.3171 89.9817 27.7772 89.9942 27.7606C90.0211 27.7813 90.9497 30.7806 92.9685 32.8243Z" fill="#C6C6C6"/>
<path d="M101.42 31.1374C100.328 34.3501 97.6187 35.2372 97.6394 35.2476C97.656 35.2227 97.1772 31.6659 98.0249 28.5652C98.8892 25.4478 101.105 23.7979 101.126 23.8083C101.149 23.7772 102.537 27.9019 101.42 31.1374Z" fill="#C6C6C6"/>
<path d="M91.0639 25.6797C93.4433 27.371 96.1731 27.2508 96.1835 27.2342C96.2187 27.2529 95.0725 23.5634 92.4194 21.8783C89.7995 20.2056 87.1713 21.1508 87.1817 21.1321C87.2128 21.1467 88.7134 23.9966 91.0639 25.6797Z" fill="#C6C6C6"/>
<path d="M99.0307 22.4875C98.556 25.8909 96.0584 27.2589 96.0833 27.2651C96.0957 27.2382 94.9848 23.7767 95.219 20.5184C95.4698 17.2415 97.3145 15.1915 97.3394 15.1977C97.358 15.1625 99.5261 19.0572 99.0307 22.4875Z" fill="#C6C6C6"/>
<path d="M87.825 18.8496C90.5009 20.1326 93.1519 19.5274 93.1602 19.5088C93.2016 19.5233 91.3549 16.0224 88.3867 14.7809C85.4538 13.5476 83.0474 14.955 83.0557 14.9342C83.093 14.9467 85.1802 17.5708 87.825 18.8496Z" fill="#C6C6C6"/>
<path d="M95.02 14.2396C95.2335 17.7446 93.0406 19.5541 93.0675 19.5582C93.0758 19.5292 91.3119 16.2502 90.8663 12.9235C90.4331 9.57603 91.8135 7.18202 91.8405 7.1841C91.855 7.14886 94.8273 10.7036 95.02 14.2396Z" fill="#C6C6C6"/>
<path d="M83.199 12.5179C86.1298 13.3574 88.615 12.2837 88.6191 12.2651C88.6647 12.2734 86.0987 9.05649 82.857 8.29788C79.6546 7.54134 77.5612 9.37156 77.5674 9.35084C77.6089 9.35498 80.3034 11.6764 83.199 12.5179Z" fill="#C6C6C6"/>
<path d="M89.3292 6.61674C90.3013 10.1259 88.5063 12.3312 88.5374 12.3312C88.5416 12.3022 86.1061 9.29469 84.9081 5.99285C83.7204 2.66821 84.5371 0.00268648 84.5682 0.000613766C84.5785 -0.0387679 88.3737 3.07446 89.3292 6.61674Z" fill="#C6C6C6"/>
<path d="M51.4512 86.1116L51.5092 85.4691C56.8382 85.952 62.1505 85.3571 67.2971 83.7052C72.3131 82.0947 76.956 79.5514 81.0993 76.148C89.697 69.0842 95.2415 59.0025 96.7111 47.7601C97.9153 38.5551 97.2976 30.3513 94.8746 23.3787C92.2734 15.89 87.6429 10.0325 81.1076 5.9637L81.4496 5.4165C88.1113 9.56401 92.833 15.5376 95.484 23.1673C97.9402 30.2352 98.5661 38.5386 97.3495 47.8451C95.8571 59.2492 90.2317 69.478 81.5056 76.6476C77.3 80.1048 72.5846 82.6854 67.4899 84.3208C62.2645 85.9997 56.8651 86.6028 51.4512 86.1116Z" fill="#C6C6C6"/>
<path d="M23.2055 2.2576C20.9027 4.35726 20.4902 7.65289 20.4902 7.65289C20.4902 7.65289 23.8087 7.54303 26.1114 5.44336C28.4142 3.3437 28.8267 0.0480957 28.8267 0.0480957C28.8267 0.0480957 25.5083 0.157932 23.2055 2.2576Z" fill="#C6C6C6"/>
<path d="M39.3952 79.6349C41.3767 82.1781 41.4969 85.1815 41.47 85.1897C41.4783 85.2271 37.3121 84.0622 35.4405 81.2578C33.5709 78.4886 34.4808 75.6179 34.4538 75.6262C34.4642 75.6553 37.4158 77.1165 39.3952 79.6349Z" fill="#C6C6C6"/>
<path d="M36.4759 88.4416C40.1322 87.8198 41.4981 85.0548 41.496 85.0797C41.4525 85.0921 37.533 83.9625 34.1565 84.3584C30.7469 84.7729 28.7426 86.8912 28.7426 86.914C28.6949 86.9264 32.7782 89.0759 36.4759 88.4416Z" fill="#C6C6C6"/>
<path d="M32.167 76.4585C33.5288 79.2463 33.0396 82.1626 33.0147 82.1688C33.0189 82.2082 29.3564 80.3884 28.1231 77.3622C26.8857 74.3692 28.2931 71.7451 28.2682 71.7493C28.2723 71.7762 30.8031 73.6935 32.167 76.4585Z" fill="#C6C6C6"/>
<path d="M27.7001 84.4718C31.2548 84.4821 33.0643 82.0405 33.0622 82.0653C33.0228 82.0716 29.5862 80.3263 26.3093 80.1419C22.9991 79.9677 20.6798 81.6757 20.6777 81.6985C20.6321 81.7005 24.108 84.4697 27.7001 84.4718Z" fill="#C6C6C6"/>
<path d="M25.9236 72.1617C26.6967 75.0925 25.6666 77.8285 25.6438 77.8285C25.6417 77.8659 22.5057 75.4884 21.8777 72.342C21.2434 69.2309 23.0757 66.926 23.0529 66.926C23.0529 66.955 25.1464 69.2537 25.9236 72.1617Z" fill="#C6C6C6"/>
<path d="M20.1414 79.157C23.5345 79.7726 25.715 77.7144 25.7088 77.7372C25.6714 77.7372 22.7386 75.4676 19.6191 74.7256C16.4686 73.9897 13.9129 75.2458 13.9067 75.2665C13.8652 75.2624 16.7111 78.5435 20.1414 79.157Z" fill="#C6C6C6"/>
<path d="M20.713 66.9222C20.9285 69.9007 19.43 72.3734 19.4072 72.3713C19.4009 72.4086 16.8121 69.5628 16.7582 66.3957C16.694 63.2597 18.8786 61.3362 18.8558 61.332C18.8558 61.3631 20.4891 63.9665 20.713 66.9222Z" fill="#C6C6C6"/>
<path d="M13.8537 72.711C17.025 73.8925 19.4957 72.2737 19.4895 72.2944C19.4563 72.2882 17.0457 69.5833 14.1439 68.3169C11.2152 67.0525 8.50198 67.8256 8.49369 67.8464C8.4543 67.836 10.6493 71.5254 13.8537 72.711Z" fill="#C6C6C6"/>
<path d="M16.5798 60.9197C16.273 63.8588 14.3744 66 14.3558 65.9937C14.3454 66.029 12.3245 62.8101 12.8116 59.7093C13.2862 56.6396 15.7445 55.1451 15.7238 55.1389C15.7175 55.1659 16.8783 57.9993 16.5798 60.9197Z" fill="#C6C6C6"/>
<path d="M8.88547 65.3512C11.7707 67.0571 14.4569 65.9129 14.4466 65.9316C14.4155 65.9212 12.5459 62.8681 9.92598 61.1208C7.28119 59.3714 4.49338 59.645 4.48302 59.6637C4.44778 59.6492 5.96916 63.6371 8.88547 65.3512Z" fill="#C6C6C6"/>
<path d="M13.5682 54.3284C12.7723 57.1494 10.5503 58.9008 10.5337 58.8925C10.5192 58.9257 9.08697 55.4248 10.0819 52.4733C11.0581 49.5508 13.7153 48.5206 13.6988 48.5103C13.6843 48.5372 14.3496 51.5261 13.5682 54.3284Z" fill="#C6C6C6"/>
<path d="M5.28905 57.2945C7.82399 59.4729 10.6429 58.8283 10.6304 58.8469C10.6035 58.8324 9.29147 55.5202 7.0177 53.3418C4.71905 51.1572 1.94161 50.9271 1.92918 50.9437C1.89601 50.9229 2.72303 55.1036 5.28905 57.2945Z" fill="#C6C6C6"/>
<path d="M11.7129 47.3289C10.4631 49.9571 7.99655 51.2774 7.97997 51.265C7.95924 51.2961 7.14052 47.6066 8.60593 44.8789C10.0506 42.1761 12.826 41.6372 12.8094 41.6248C12.7928 41.6496 12.9462 44.7173 11.7129 47.3289Z" fill="#C6C6C6"/>
<path d="M3.11158 48.7612C5.23197 51.3541 8.10268 51.2236 8.0861 51.2381C8.0633 51.2194 7.32749 47.7373 5.46411 45.1837C3.57794 42.6197 0.897912 41.8922 0.88133 41.9067C0.852312 41.8839 0.962166 46.1516 3.11158 48.7612Z" fill="#C6C6C6"/>
<path d="M11.0685 40.1014C9.40416 42.4726 6.76766 43.3266 6.75315 43.3141C6.72828 43.3411 6.54173 39.5584 8.44242 37.1208C10.3182 34.704 13.1288 34.6667 13.1143 34.6501C13.0936 34.6729 12.7122 37.7447 11.0685 40.1014Z" fill="#C6C6C6"/>
<path d="M2.4076 39.9689C4.04712 42.908 6.88053 43.2935 6.86188 43.3059C6.84322 43.2831 6.70435 39.7201 5.31563 36.8577C3.90618 33.9808 1.4127 32.7765 1.39404 32.789C1.3671 32.7599 0.741138 37.009 2.4076 39.9689Z" fill="#C6C6C6"/>
<path d="M11.6776 32.8243C9.63595 34.8804 6.91033 35.2514 6.89789 35.2349C6.8668 35.2577 7.33731 31.4749 9.63388 29.3877C11.9014 27.3171 14.6644 27.7772 14.6519 27.7606C14.625 27.7813 13.6943 30.7806 11.6776 32.8243Z" fill="#C6C6C6"/>
<path d="M3.22236 31.1369C4.31469 34.3496 7.02373 35.2368 7.003 35.2471C6.98642 35.2222 7.46522 31.6655 6.61748 28.5647C5.75315 25.4473 3.53742 23.7974 3.51669 23.8078C3.49389 23.7767 2.10724 27.9014 3.22236 31.1369Z" fill="#C6C6C6"/>
<path d="M13.5799 25.6794C11.2004 27.3708 8.47062 27.2506 8.46026 27.234C8.42502 27.2526 9.57124 23.5632 12.2243 21.8781C14.8442 20.2054 17.4724 21.1506 17.4621 21.1319C17.4289 21.1464 15.9303 23.9964 13.5799 25.6794Z" fill="#C6C6C6"/>
<path d="M5.61018 22.4875C6.08484 25.8909 8.58246 27.2589 8.55759 27.2651C8.54515 27.2382 9.65613 23.7767 9.42191 20.5184C9.17112 17.2415 7.3264 15.1915 7.30152 15.1977C7.28287 15.1625 5.11481 19.0572 5.61018 22.4875Z" fill="#C6C6C6"/>
<path d="M16.8178 18.8496C14.1419 20.1326 11.4909 19.5274 11.4826 19.5088C11.4412 19.5233 13.288 16.0224 16.2561 14.7809C19.189 13.5476 21.5954 14.955 21.5871 14.9342C21.5498 14.9467 19.4626 17.5708 16.8178 18.8496Z" fill="#C6C6C6"/>
<path d="M9.62499 14.2396C9.4115 17.7446 11.6044 19.5541 11.5775 19.5582C11.5692 19.5292 13.3331 16.2502 13.7787 12.9235C14.2119 9.57603 12.8315 7.18202 12.8045 7.1841C12.788 7.14886 9.81775 10.7036 9.62499 14.2396Z" fill="#C6C6C6"/>
<path d="M21.4461 12.5174C18.5153 13.3569 16.0301 12.2832 16.026 12.2646C15.9804 12.2729 18.5464 9.05601 21.7881 8.29739C24.9905 7.54085 27.0839 9.37108 27.0777 9.35035C27.0363 9.35449 24.3417 11.6759 21.4461 12.5174Z" fill="#C6C6C6"/>
<path d="M15.3134 6.6165C14.3413 10.1256 16.1362 12.331 16.1051 12.331C16.101 12.302 18.5364 9.29445 19.7345 5.99261C20.9221 2.66797 20.1055 0.00244234 20.0744 0.000369625C20.064 -0.039012 16.2668 3.07422 15.3134 6.6165Z" fill="#C6C6C6"/>
<path d="M53.1922 86.1116L53.1341 85.4691C47.8052 85.952 42.4928 85.3571 37.3462 83.7052C32.3303 82.0947 27.6874 79.5514 23.544 76.148C14.9464 69.0842 9.40185 59.0025 7.93229 47.7601C6.72804 38.5551 7.34571 30.3513 9.76872 23.3787C12.37 15.89 17.0004 10.0325 23.5357 5.9637L23.1937 5.4165C16.532 9.56401 11.8103 15.5376 9.15934 23.1673C6.70317 30.2352 6.07721 38.5386 7.29389 47.8451C8.78625 59.2492 14.4116 69.478 23.1378 76.6476C27.3433 80.1048 32.0587 82.6854 37.1535 84.3208C42.3788 85.9997 47.7762 86.6028 53.1922 86.1116Z" fill="#C6C6C6"/>
<path d="M52.1322 82.8223L47.251 86.4101L52.1322 90.0001L57.0114 86.4101L52.1322 82.8223Z" fill="#C6C6C6"/>
</svg>
