<svg width="14" height="14" viewBox="0 0 14 14" fill="none" xmlns="http://www.w3.org/2000/svg">
<g clip-path="url(#clip0_114_584)">
<path d="M12.8406 7.58777H1.1593V4.05107C1.1593 2.39218 2.50409 1.04736 4.16301 1.04736H9.83695C11.4958 1.04736 12.8407 2.39216 12.8407 4.05107V7.58777H12.8406Z" fill="#FF4DAB"/>
<path d="M9.83694 1.04736H8.44394C10.1028 1.04736 11.4476 2.39216 11.4476 4.05107V7.58777H12.8406V4.05107C12.8407 2.39216 11.4959 1.04736 9.83694 1.04736Z" fill="#DD2A91"/>
<path d="M6.25614 6.5576H3.45939C3.04858 6.5576 2.71556 6.22458 2.71556 5.81377V4.58294C2.71556 4.17213 3.04858 3.83911 3.45939 3.83911H6.25614C6.66695 3.83911 6.99997 4.17213 6.99997 4.58294V5.81377C6.99999 6.22458 6.66695 6.5576 6.25614 6.5576Z" fill="white"/>
<path d="M6.25614 3.83911H5.41822C5.82903 3.83911 6.16205 4.17213 6.16205 4.58294V5.81377C6.16205 6.22458 5.82903 6.5576 5.41822 6.5576H6.25614C6.66696 6.5576 6.99998 6.22458 6.99998 5.81377V4.58294C7 4.17213 6.66696 3.83911 6.25614 3.83911Z" fill="#D1D3D4"/>
<path d="M10.5406 6.5576H7.74383C7.33302 6.5576 7 6.22458 7 5.81377V4.58294C7 4.17213 7.33302 3.83911 7.74383 3.83911H10.5406C10.9514 3.83911 11.2844 4.17213 11.2844 4.58294V5.81377C11.2844 6.22458 10.9514 6.5576 10.5406 6.5576Z" fill="white"/>
<path d="M10.5406 3.83911H9.70266C10.1135 3.83911 10.4465 4.17213 10.4465 4.58294V5.81377C10.4465 6.22458 10.1135 6.5576 9.70266 6.5576H10.5406C10.9514 6.5576 11.2844 6.22458 11.2844 5.81377V4.58294C11.2844 4.17213 10.9514 3.83911 10.5406 3.83911Z" fill="#D1D3D4"/>
<path d="M13.3926 10.1928H0.607349V8.41468C0.607349 7.00139 1.75305 5.85571 3.16631 5.85571H10.8336C12.2469 5.85571 13.3926 7.00142 13.3926 8.41468V10.1928Z" fill="#5CC8F7"/>
<path d="M10.8336 5.85474H9.37129C10.7846 5.85474 11.9303 7.00044 11.9303 8.4137V10.1919H13.3926V8.4137C13.3926 7.00044 12.2469 5.85474 10.8336 5.85474Z" fill="#29A7D3"/>
<path d="M1.32587 8.66553H12.6741V11.7623H1.32587V8.66553Z" fill="#FFC73B"/>
<path d="M10.9531 8.66553H12.6741V11.7623H10.9531V8.66553Z" fill="#F7941D"/>
<path d="M1.50767 12.9525H0.599092C0.382338 12.9525 0.2066 12.7768 0.2066 12.56V8.69864C0.2066 8.48189 0.382311 8.30615 0.599092 8.30615H1.50767C1.72442 8.30615 1.90016 8.48186 1.90016 8.69864V12.56C1.90014 12.7768 1.72442 12.9525 1.50767 12.9525Z" fill="#FFC73B"/>
<path d="M1.50767 8.30615H0.660885C0.877639 8.30615 1.05338 8.48186 1.05338 8.69864V12.56C1.05338 12.7768 0.877666 12.9525 0.660885 12.9525H1.50764C1.72439 12.9525 1.90013 12.7768 1.90013 12.56V8.69864C1.90013 8.48186 1.72442 8.30615 1.50767 8.30615Z" fill="#F7941D"/>
<path d="M13.4009 12.9525H12.4923C12.2755 12.9525 12.0998 12.7768 12.0998 12.56V8.69864C12.0998 8.48189 12.2755 8.30615 12.4923 8.30615H13.4009C13.6176 8.30615 13.7934 8.48186 13.7934 8.69864V12.56C13.7933 12.7768 13.6176 12.9525 13.4009 12.9525Z" fill="#FFC73B"/>
<path d="M13.4009 8.30615H12.5541C12.7709 8.30615 12.9466 8.48186 12.9466 8.69864V12.56C12.9466 12.7768 12.7709 12.9525 12.5541 12.9525H13.4009C13.6176 12.9525 13.7933 12.7768 13.7933 12.56V8.69864C13.7933 8.48186 13.6176 8.30615 13.4009 8.30615Z" fill="#F7941D"/>
<path d="M13.5842 8.1282C13.5317 7.61772 13.3397 7.14801 13.0471 6.75787V5.57318C13.0471 5.45915 12.9547 5.36673 12.8407 5.36673C12.7264 5.36673 12.6339 5.45915 12.6339 5.57318V6.31641C12.3094 6.03745 11.9197 5.83237 11.491 5.72748V4.58281C11.491 4.05863 11.0647 3.63234 10.5405 3.63234H7.74378C7.443 3.63234 7.17421 3.77289 7.00003 3.99191C6.82557 3.77316 6.55706 3.63262 6.25628 3.63262H4.75319C4.63889 3.63262 4.54647 3.72504 4.54647 3.83906C4.54647 3.95336 4.63889 4.04578 4.75319 4.04578H6.25628C6.55241 4.04578 6.79331 4.28668 6.79331 4.58281V5.6484H3.16643C3.08413 5.6484 3.00273 5.65223 2.92225 5.65928V4.58281C2.92225 4.28668 3.16315 4.04578 3.45956 4.04578C3.57358 4.04578 3.666 3.95336 3.666 3.83906C3.666 3.72504 3.57358 3.63262 3.45956 3.63262C2.93538 3.63262 2.50909 4.05891 2.50909 4.58281V5.7275C2.08031 5.83245 1.69047 6.03761 1.36585 6.31668V4.05098C1.36585 2.50879 2.62065 1.25398 4.16311 1.25398H9.83694C11.3069 1.25398 12.5325 2.40133 12.6274 3.86613C12.6348 3.98016 12.7329 4.06629 12.8469 4.05918C12.961 4.0518 13.0471 3.95336 13.0397 3.83961C12.9309 2.15797 11.5241 0.84082 9.83694 0.84082H4.16311C2.39288 0.84082 0.952684 2.28102 0.952684 4.05098V6.7582C0.660133 7.14831 0.468207 7.61794 0.415625 8.12828C0.174781 8.20594 0 8.43216 0 8.69851V12.5599C0 12.8903 0.268734 13.159 0.599102 13.159H1.50768C1.83802 13.159 2.10681 12.8903 2.10681 12.5599V11.9688H11.8932V12.5599C11.8932 12.8903 12.162 13.159 12.4923 13.159H13.4009C13.7313 13.159 14.0001 12.8903 14.0001 12.5599V8.69851C14 8.43207 13.8251 8.20583 13.5842 8.1282ZM7.74378 4.04548H10.5405C10.8369 4.04548 11.0778 4.28665 11.0778 4.58278V5.65925C10.9973 5.65217 10.9159 5.64837 10.8336 5.64837H7.20675V4.58278C7.20675 4.28665 7.44764 4.04548 7.74378 4.04548ZM1.69354 12.5599C1.69354 12.6624 1.61016 12.7458 1.50765 12.7458H0.599102C0.496617 12.7458 0.413246 12.6624 0.413246 12.5599V8.69851C0.413246 8.59603 0.496617 8.51266 0.599102 8.51266H1.50768C1.61019 8.51266 1.69356 8.59603 1.69356 8.69851V12.5599H1.69354ZM2.10678 11.5555V10.4204H5.27425C5.38839 10.4204 5.48086 10.3279 5.48086 10.2138C5.48086 10.0997 5.38836 10.0072 5.27425 10.0072H2.10678V8.87206H3.14054C3.25467 8.87206 3.34718 8.77956 3.34718 8.66545C3.34718 8.55135 3.25467 8.45884 3.14054 8.45884H2.05658C1.96391 8.2475 1.75282 8.09946 1.50768 8.09946H0.835625C0.989816 6.95054 1.97591 6.06159 3.16643 6.06159H10.8336C12.0241 6.06159 13.0102 6.95054 13.1644 8.09946H12.4923C12.2472 8.09946 12.0361 8.24753 11.9434 8.45884H4.86095C4.74682 8.45884 4.65434 8.55135 4.65434 8.66545C4.65434 8.77956 4.74685 8.87206 4.86095 8.87206H11.8932V10.0072H10.874C10.7599 10.0072 10.6674 10.0997 10.6674 10.2138C10.6674 10.3279 10.7599 10.4204 10.874 10.4204H11.8932V11.5555H2.10678ZM13.5868 12.5599C13.5868 12.6624 13.5034 12.7458 13.4009 12.7458H12.4923C12.3898 12.7458 12.3064 12.6624 12.3064 12.5599V8.69851C12.3064 8.59603 12.3898 8.51266 12.4923 8.51266H13.4009C13.5034 8.51266 13.5868 8.59603 13.5868 8.69851V12.5599Z" fill="#092D4B"/>
<path d="M9.85721 10.0071H7.00898C6.89484 10.0071 6.80237 10.0996 6.80237 10.2137C6.80237 10.3278 6.89487 10.4203 7.00898 10.4203H9.85724C9.97137 10.4203 10.0638 10.3278 10.0638 10.2137C10.0638 10.0996 9.97134 10.0071 9.85721 10.0071Z" fill="#092D4B"/>
</g>
<defs>
<clipPath id="clip0_114_584">
<rect width="14" height="14" fill="white"/>
</clipPath>
</defs>
</svg>
