<svg width="60" height="60" viewBox="0 0 60 60" fill="none" xmlns="http://www.w3.org/2000/svg">
<g clip-path="url(#clip0_68_166)">
<path d="M55.518 20.0527H4.48152C2.53643 20.0527 0.959549 18.4759 0.959549 16.5308C0.959549 14.5857 2.53643 13.0088 4.48152 13.0088H55.518C57.4631 13.0088 59.04 14.5857 59.04 16.5308C59.04 18.476 57.4631 20.0527 55.518 20.0527Z" fill="#DD636E"/>
<path d="M59.0396 16.5301C59.0396 17.5027 58.6447 18.384 58.0084 19.0215C57.3709 19.659 56.4908 20.0527 55.5181 20.0527H4.48149C2.53617 20.0527 0.958817 18.4754 0.958817 16.5301C0.958817 16.1199 1.02913 15.7273 1.15921 15.3617C1.64085 16.7316 2.94633 17.7137 4.48149 17.7137H55.5181C56.4908 17.7137 57.3709 17.3199 58.0084 16.6824C58.3763 16.3133 58.6635 15.8644 58.8392 15.3617C58.9693 15.7273 59.0396 16.1199 59.0396 16.5301Z" fill="#DA4A54"/>
<path d="M44.5035 5.8515H15.4959C14.0752 5.8515 12.887 6.93127 12.7514 8.34562L11.043 26.1795H48.9566L47.2481 8.34562C47.1126 6.93127 45.9244 5.8515 44.5035 5.8515Z" fill="#F6F9F9"/>
<path d="M23.78 26.1792H11.043L12.7508 8.34484C12.8866 6.93143 14.0753 5.85107 15.4951 5.85107H27.2456C23.1686 5.85107 19.758 8.94965 19.3698 13.0087L18.6485 20.5335C18.3592 23.561 20.7381 26.1792 23.78 26.1792Z" fill="#E7ECF6"/>
<path d="M52.0369 20.4722L50.3634 9.71779C49.7177 5.57402 46.1517 2.51892 41.9587 2.51892H18.0406C13.8476 2.51892 10.2816 5.57402 9.63586 9.71779L7.96241 20.4722L6.36397 30.7519H53.6353L52.0369 20.4722ZM12.0288 25.9003L12.9253 20.1382L14.4312 10.4631C14.7089 8.6713 16.2277 7.37051 18.0406 7.37051H41.9587C43.7716 7.37051 45.2904 8.6713 45.5681 10.4631L47.0728 20.1382L47.9693 25.9003H12.0288Z" fill="#DD636E"/>
<path d="M53.6355 30.752H6.36409L7.96254 20.4722C8.76528 20.2543 9.60903 20.1382 10.4809 20.1382H12.9255L12.029 25.9004H47.9694L47.0729 20.1382H49.5186C50.3905 20.1382 51.2343 20.2543 52.037 20.4722L53.6355 30.752Z" fill="#DA4A54"/>
<path d="M18.0406 2.51923C13.8472 2.51923 10.2813 5.57409 9.63607 9.71727L6.36453 30.7521H9.59084L12.8624 9.71727C13.5076 5.57409 17.0735 2.51923 21.2669 2.51923H18.0406Z" fill="#DA4A54"/>
<path d="M11.4729 57.4806C8.9187 57.4806 6.84811 55.4101 6.84811 52.856V48.2312L10.4813 43.8208L16.0976 48.2312V52.856C16.0976 55.4101 14.0271 57.4806 11.4729 57.4806Z" fill="#30579D"/>
<path d="M13.0048 57.2191C12.5261 57.3872 12.0102 57.4795 11.4733 57.4795C8.91811 57.4795 6.84811 55.4095 6.84811 52.856V48.2308L10.4819 43.8208L12.34 45.2794L9.9094 48.2308V52.856C9.90952 54.8742 11.2033 56.5884 13.0048 57.2191Z" fill="#26457D"/>
<path d="M48.0426 57.4806C45.4883 57.4806 43.4178 55.4101 43.4178 52.856V48.2312L49.5182 43.8208L52.6672 48.2312V52.856C52.6674 55.4101 50.5968 57.4806 48.0426 57.4806Z" fill="#30579D"/>
<path d="M49.5744 57.2191C49.0957 57.3872 48.5799 57.4795 48.0429 57.4795C45.4878 57.4795 43.4178 55.4095 43.4178 52.856V48.2308L47.0515 43.8208L48.9096 45.2794L46.479 48.2308V52.856C46.4792 54.8742 47.7729 56.5884 49.5744 57.2191Z" fill="#26457D"/>
<path d="M49.5182 23.0377H10.4815C5.17813 23.0377 0.878967 27.3368 0.878967 32.6402V34.2182C0.878967 39.5216 5.17813 43.8207 10.4815 43.8207H49.5182C54.8215 43.8207 59.1207 39.5216 59.1207 34.2182V32.6402C59.1207 27.3369 54.8215 23.0377 49.5182 23.0377Z" fill="#DD636E"/>
<path d="M18.7097 43.8202H10.4814C5.177 43.8202 0.87854 39.5217 0.87854 34.2173V32.6405C0.87854 27.3361 5.177 23.0377 10.4814 23.0377H18.7097C13.4053 23.0377 9.10679 27.3361 9.10679 32.6405V34.2173C9.10679 39.5217 13.4053 43.8202 18.7097 43.8202Z" fill="#DA4A54"/>
<path d="M55.4655 40.9208H4.53418C2.5155 40.9208 0.878967 42.5573 0.878967 44.576C0.878967 46.5947 2.5155 48.2312 4.53418 48.2312H55.4655C57.4841 48.2312 59.1207 46.5947 59.1207 44.576C59.1207 42.5573 57.4843 40.9208 55.4655 40.9208Z" fill="#F6F9F9"/>
<path d="M10.0161 47.1601C10.6775 47.8216 11.5912 48.2308 12.6003 48.2308H4.53381C3.52471 48.2308 2.611 47.8217 1.94959 47.1601C1.28807 46.4987 0.878967 45.585 0.878967 44.5759C0.878967 42.5577 2.51561 40.9211 4.53381 40.9211H12.6003C10.5821 40.9211 8.94545 42.5577 8.94545 44.5759C8.94545 45.585 9.35455 46.4987 10.0161 47.1601Z" fill="#E7ECF6"/>
<path d="M10.1316 37.5268C8.64665 37.5268 7.44278 36.323 7.44278 34.838V30.3729C7.44278 28.8879 8.64665 27.684 10.1316 27.684C11.6166 27.684 12.8205 28.8879 12.8205 30.3729V34.838C12.8205 36.323 11.6166 37.5268 10.1316 37.5268Z" fill="#F6F9F9"/>
<path d="M49.8677 37.5268C48.3827 37.5268 47.1789 36.323 47.1789 34.838V30.3729C47.1789 28.8879 48.3827 27.684 49.8677 27.684C51.3527 27.684 52.5566 28.8879 52.5566 30.3729V34.838C52.5566 36.323 51.3527 37.5268 49.8677 37.5268Z" fill="#F6F9F9"/>
<path d="M11.1201 37.3384C10.8143 37.4591 10.4803 37.5259 10.1311 37.5259C8.6463 37.5259 7.44278 36.3224 7.44278 34.8376V30.3727C7.44278 28.8868 8.6463 27.6833 10.1311 27.6833C10.4803 27.6833 10.8143 27.7501 11.1201 27.8708C10.124 28.2645 9.41973 29.236 9.41973 30.3727V34.8376C9.41973 35.9731 10.124 36.9446 11.1201 37.3384Z" fill="#E7ECF6"/>
<path d="M50.8562 37.3384C50.5504 37.4591 50.2164 37.5259 49.8672 37.5259C48.3824 37.5259 47.1789 36.3224 47.1789 34.8376V30.3727C47.1789 28.8868 48.3824 27.6833 49.8672 27.6833C50.2164 27.6833 50.5504 27.7501 50.8562 27.8708C49.8601 28.2645 49.1558 29.236 49.1558 30.3727V34.8376C49.1558 35.9731 49.8601 36.9446 50.8562 37.3384Z" fill="#E7ECF6"/>
<path d="M60 32.64C60 28.1924 57.2151 24.3834 53.2978 22.8639L52.9973 20.9323H55.5179C56.6933 20.9323 57.7985 20.4745 58.6298 19.6431C59.4612 18.8118 59.919 17.7066 59.919 16.5312C59.919 14.1045 57.9446 12.1301 55.5179 12.1301H51.6281L51.2317 9.58205C50.8874 7.37117 49.7622 5.35214 48.0633 3.89701C46.3643 2.44177 44.1964 1.64032 41.9588 1.64032H18.0407C15.8031 1.64032 13.6351 2.44177 11.9361 3.89701C10.2372 5.35202 9.11197 7.37106 8.76767 9.58205L8.37134 12.13H4.48116C3.30576 12.13 2.20068 12.5878 1.36923 13.4191C0.537894 14.2505 0.0800395 15.3557 0.0800395 16.5311C0.0800395 18.9579 2.05443 20.9322 4.48116 20.9322H7.00223L6.70176 22.864C2.78509 24.3837 0.000820317 28.1925 0.000820317 32.6399V34.2184C0.000820317 34.6126 0.0228517 35.0066 0.0662113 35.3896C0.120821 35.8719 0.556058 36.2186 1.0384 36.164C1.52075 36.1094 1.86739 35.674 1.81278 35.1917C1.77681 34.8741 1.75864 34.5466 1.75864 34.2183V32.6398C1.75864 27.8297 5.67144 23.9163 10.481 23.9163H49.5187C54.3288 23.9163 58.2422 27.8297 58.2422 32.6398V34.2183C58.2422 36.404 57.4442 38.4659 55.9863 40.0724C55.8152 40.0527 55.6417 40.0416 55.4654 40.0416H4.53413C4.35881 40.0416 4.18608 40.0526 4.0158 40.0721C3.51143 39.516 3.08146 38.9008 2.73693 38.2363C2.51357 37.8054 1.98306 37.6372 1.55216 37.8607C1.12126 38.0842 0.953092 38.6147 1.17657 39.0456C1.47493 39.6211 1.82673 40.1656 2.22611 40.6751C0.894615 41.4663 0 42.9182 0 44.576C0 47.0761 2.03392 49.1101 4.53413 49.1101H5.96945V52.8559C5.96945 55.8906 8.43837 58.3596 11.4731 58.3596C14.5078 58.3596 16.9767 55.8907 16.9767 52.8559V49.1101H42.5387V52.8559C42.5387 55.8906 45.0076 58.3596 48.0425 58.3596C51.0772 58.3596 53.5461 55.8907 53.5461 52.8559V49.1101H55.4653C57.9654 49.1101 59.9994 47.0761 59.9994 44.576C59.9994 42.9182 59.1047 41.4661 57.7732 40.6754C59.2153 38.8396 59.9999 36.5906 59.9999 34.2186V32.64H60ZM55.518 13.8878C56.9756 13.8878 58.1613 15.0736 58.1613 16.5311C58.1613 17.2369 57.8863 17.9008 57.3871 18.4C56.8877 18.8993 56.224 19.1744 55.518 19.1744H52.7239L51.9016 13.8877H55.518V13.8878ZM4.48116 19.1745C3.02357 19.1745 1.83786 17.9887 1.83786 16.5312C1.83786 15.8254 2.1129 15.1615 2.61212 14.6623C3.11146 14.1629 3.77522 13.8879 4.48116 13.8879H8.09794L7.27563 19.1746H4.48116V19.1745ZM31.6903 22.1588C31.8301 19.0749 34.3821 16.6087 37.5 16.6087C40.6178 16.6087 43.1699 19.0748 43.3097 22.1588H31.6903ZM48.278 22.1588L46.4368 10.3271C46.2133 8.89005 45.3524 7.68125 44.0747 7.01082C43.645 6.78523 43.1137 6.95082 42.8881 7.38067C42.6625 7.81051 42.8281 8.34173 43.2579 8.56731C44.0372 8.9763 44.5628 9.71611 44.6998 10.5972L46.499 22.1587H45.0675C44.9264 18.1053 41.5872 14.8507 37.5 14.8507C33.4128 14.8507 30.0735 18.1053 29.9324 22.1587H13.5007L15.3 10.5968C15.5108 9.23669 16.6635 8.24962 18.0409 8.24962H40.2012C40.6866 8.24962 41.0801 7.8561 41.0801 7.3707C41.0801 6.88531 40.6866 6.49179 40.2012 6.49179H18.0409C15.7906 6.49179 13.9074 8.10489 13.563 10.327L11.7217 22.1587H10.481C9.82588 22.1587 9.18498 22.2197 8.56282 22.3353L10.5045 9.8524C10.7844 8.05544 11.6988 6.41457 13.0795 5.2319C14.4603 4.04924 16.2221 3.39803 18.0405 3.39803H41.9588C43.7773 3.39803 45.5391 4.04936 46.9198 5.2319C48.3005 6.41457 49.2149 8.05544 49.4948 9.85228L51.4365 22.3352C50.8144 22.2196 50.1735 22.1587 49.5185 22.1587H48.278V22.1588ZM15.2189 52.856C15.2189 54.9215 13.5385 56.6019 11.4731 56.6019C9.40763 56.6019 7.72727 54.9216 7.72727 52.856V49.1102H15.219V52.856H15.2189ZM51.7884 52.856C51.7884 54.9215 50.108 56.6019 48.0426 56.6019C45.9771 56.6019 44.2967 54.9216 44.2967 52.856V49.1102H51.7884V52.856ZM55.4654 47.3523H4.53413C3.00318 47.3523 1.75782 46.1068 1.75782 44.576C1.75782 43.0451 3.00318 41.7997 4.53413 41.7997H55.4654C56.9962 41.7997 58.2417 43.0451 58.2417 44.576C58.2417 46.1068 56.9963 47.3523 55.4654 47.3523Z" fill="#092D4B"/>
<path d="M13.6994 34.8379V30.3728C13.6994 28.4055 12.0988 26.8051 10.1316 26.8051C8.16436 26.8051 6.56381 28.4056 6.56381 30.3728V34.8379C6.56381 36.8051 8.16436 38.4057 10.1316 38.4057C12.0988 38.4057 13.6994 36.8051 13.6994 34.8379ZM8.32162 34.8379V30.3728C8.32162 29.3747 9.13362 28.5629 10.1316 28.5629C11.1296 28.5629 11.9415 29.3749 11.9415 30.3728V34.8379C11.9415 35.8359 11.1296 36.6479 10.1316 36.6479C9.1335 36.6479 8.32162 35.8359 8.32162 34.8379Z" fill="#092D4B"/>
<path d="M53.4358 34.8379V30.3728C53.4358 28.4055 51.8352 26.8051 49.868 26.8051C47.9008 26.8051 46.3002 28.4056 46.3002 30.3728V34.8379C46.3002 36.8051 47.9008 38.4057 49.868 38.4057C51.8352 38.4057 53.4358 36.8051 53.4358 34.8379ZM48.0579 34.8379V30.3728C48.0579 29.3747 48.8699 28.5629 49.8679 28.5629C50.8658 28.5629 51.6778 29.3749 51.6778 30.3728V34.8379C51.6778 35.8359 50.8658 36.6479 49.8679 36.6479C48.8699 36.6479 48.0579 35.8359 48.0579 34.8379Z" fill="#092D4B"/>
<path d="M19.4323 31.5798H40.5672C41.0526 31.5798 41.4461 31.1863 41.4461 30.7009C41.4461 30.2155 41.0526 29.822 40.5672 29.822H19.4323C18.9469 29.822 18.5534 30.2155 18.5534 30.7009C18.5534 31.1863 18.9469 31.5798 19.4323 31.5798Z" fill="#092D4B"/>
<path d="M19.4323 35.9254H40.5672C41.0526 35.9254 41.4461 35.5319 41.4461 35.0465C41.4461 34.5611 41.0526 34.1676 40.5672 34.1676H19.4323C18.9469 34.1676 18.5534 34.5611 18.5534 35.0465C18.5534 35.5319 18.9469 35.9254 19.4323 35.9254Z" fill="#092D4B"/>
</g>
<defs>
<clipPath id="clip0_68_166">
<rect width="60" height="60" fill="white"/>
</clipPath>
</defs>
</svg>
