<svg width="60" height="61" viewBox="0 0 60 61" fill="none" xmlns="http://www.w3.org/2000/svg">
<g clip-path="url(#clip0_233_1195)">
<path d="M0.8892 28.0624C1.42053 43.2043 14.7432 52.961 27.6077 58.7579C29.13 59.4438 30.8693 59.4438 32.3916 58.7579C45.2561 52.961 58.5787 43.2043 59.1101 28.0624C59.4416 18.6132 52.0874 10.5663 42.6327 10.4876C37.5987 10.4458 33.077 12.6409 29.9996 16.138C26.9223 12.6409 22.4006 10.4459 17.3665 10.4876C7.91192 10.5661 0.557675 18.6132 0.8892 28.0624Z" fill="#E8899E"/>
<path d="M27.6077 58.7578C29.13 59.4437 30.8693 59.4437 32.3915 58.7578C33.9642 58.0492 35.5437 57.2809 37.1058 56.4512C7.87876 54.1637 5.10925 27.1767 14.0786 10.8468C6.2652 12.5097 0.597283 19.7418 0.889198 28.0624C1.42053 43.2042 14.7433 52.961 27.6077 58.7578Z" fill="#E26E7E"/>
<path d="M22.7929 48.7986C22.1723 48.7986 21.5423 48.7838 20.9001 48.7532C19.261 48.675 17.9957 47.283 18.0737 45.644C18.1519 44.0049 19.5443 42.741 21.183 42.8176C26.7169 43.0814 31.9257 41.9829 36.6641 39.5527C41.111 37.2718 43.5186 34.6317 43.9561 34.1257C45.0293 32.8844 46.9054 32.7479 48.147 33.821C49.3884 34.8942 49.5248 36.7704 48.4517 38.0118C47.466 39.1522 38.6516 48.7986 22.7929 48.7986Z" fill="#E8899E"/>
<path d="M38.3929 46.3815C32.2105 46.3815 26.9006 45.4936 22.1597 43.667C18.0624 42.0884 15.1095 40.0795 12.7367 38.4654C12.532 38.326 12.3304 38.1889 12.1315 38.0544C10.7724 37.135 10.4158 35.2879 11.335 33.9288C12.2541 32.5696 14.1013 32.2128 15.4606 33.1323C15.6639 33.2697 15.8698 33.4099 16.079 33.5521C20.5895 36.6205 26.2028 40.4392 38.3928 40.4392C40.0338 40.4392 41.364 41.7694 41.364 43.4104C41.364 45.0513 40.0338 46.3815 38.3929 46.3815Z" fill="#E8899E"/>
<path d="M40.3194 6.70443C40.491 11.5933 44.7924 14.7435 48.946 16.6151C49.4375 16.8366 49.9991 16.8366 50.4906 16.6151C54.6442 14.7435 58.9456 11.5933 59.1172 6.70443C59.2243 3.65357 56.8498 1.05541 53.7971 1.0301C52.1717 1.01662 50.7118 1.72537 49.7183 2.85447C48.7247 1.72537 47.2647 1.01662 45.6395 1.0301C42.5869 1.05541 40.2124 3.65357 40.3194 6.70443Z" fill="#E26E7E"/>
<path d="M22.4985 28.6645C22.4924 30.5936 20.5238 32.1513 18.1014 32.1436C15.679 32.136 13.7201 30.5661 13.7261 28.637C13.7321 26.7079 15.7008 25.1502 18.1232 25.1579C20.5456 25.1654 22.5045 26.7354 22.4985 28.6645Z" fill="white"/>
<path d="M37.501 28.7115C37.4949 30.6407 39.4538 32.2106 41.8763 32.2181C44.2987 32.2257 46.2674 30.6681 46.2734 28.739C46.2794 26.8098 44.3206 25.2399 41.8981 25.2322C39.4757 25.2247 37.507 26.7825 37.501 28.7115Z" fill="white"/>
<path d="M33.5449 26.0153C33.5517 23.8298 31.9691 23.6196 30.0161 23.6135C28.063 23.6074 26.4791 23.8078 26.4722 25.9932C26.4654 28.1786 28.0431 29.9553 29.9961 29.9614C31.9493 29.9675 33.538 28.2008 33.5449 26.0153Z" fill="#4E5660"/>
<path d="M40.6888 53.3827C38.0705 55.0087 35.1576 56.5476 32.0308 57.9565C30.7401 58.5381 29.2598 58.5381 27.9691 57.9565C16.311 52.7032 2.30185 43.2471 1.76783 28.0317C1.61021 23.5397 3.32162 19.1485 6.4632 15.9837C6.80515 15.6393 6.80316 15.0827 6.45862 14.7408C6.11409 14.3988 5.55757 14.4007 5.21573 14.7454C1.73361 18.253 -0.163433 23.1183 0.0110603 28.0933C0.576727 44.2114 15.1343 54.1011 27.2469 59.5592C28.1218 59.9534 29.0609 60.1505 29.9999 60.1505C30.9391 60.1505 31.8781 59.9534 32.7529 59.5592C35.9503 58.1185 38.9322 56.5428 41.6162 54.8759C42.0286 54.6198 42.1552 54.078 41.8991 53.6656C41.643 53.2532 41.1013 53.1265 40.6888 53.3827ZM37.2553 25.7888C37.7394 25.7888 38.1325 25.3972 38.1341 24.9127C38.1351 24.5898 38.2618 24.2867 38.4908 24.0591C38.7199 23.8315 39.0196 23.7082 39.3467 23.7077C39.6696 23.7087 39.9729 23.8354 40.2004 24.0644C40.428 24.2935 40.5528 24.5973 40.5519 24.9203C40.5504 25.4057 40.9427 25.8004 41.4281 25.8019H41.4309C41.915 25.8019 42.3082 25.4103 42.3098 24.9258C42.3123 24.1334 42.0061 23.3874 41.4474 22.8253C40.8889 22.2633 40.1449 21.9523 39.3525 21.9498C38.5609 21.9475 37.8141 22.2536 37.252 22.8121C36.69 23.3707 36.3789 24.1148 36.3765 24.9072C36.375 25.3926 36.7673 25.7873 37.2527 25.7888H37.2553ZM49.1167 38.5867C49.4341 38.2194 49.3937 37.6644 49.0266 37.3469C48.6593 37.0296 48.1043 37.0698 47.7868 37.437C47.4028 37.8813 45.4678 40.0243 42.0656 42.2557C41.582 40.7205 40.1605 39.5986 38.4762 39.5624C42.1724 37.4122 44.2142 35.1712 44.6212 34.7004C44.9387 34.3331 44.8984 33.7781 44.5311 33.4606C44.1639 33.143 43.6088 33.1836 43.2914 33.5507C42.8726 34.0352 40.5654 36.5639 36.2632 38.7705C35.8094 39.0033 35.3377 39.2283 34.8591 39.4424C25.3381 38.7868 20.5229 35.5124 16.5732 32.8255L16.5418 32.8041C16.3427 32.6687 16.1466 32.5353 15.9528 32.4042C15.5507 32.1322 15.0043 32.2377 14.7324 32.6398C14.4605 33.0419 14.566 33.5884 14.9681 33.8602C15.1607 33.9904 15.3554 34.123 15.5532 34.2575L15.5849 34.2791C20.1949 37.4151 25.9323 41.3181 38.3927 41.3181C39.5463 41.3181 40.485 42.2566 40.485 43.4104C40.485 44.5639 39.5464 45.5026 38.3927 45.5026C32.3202 45.5026 27.1136 44.6339 22.4754 42.8468C18.4726 41.3045 15.5662 39.3273 13.2309 37.7387C13.0256 37.599 12.8233 37.4614 12.6239 37.3264C12.2219 37.0544 11.6754 37.1598 11.4035 37.5617C11.1315 37.9638 11.2368 38.5103 11.6388 38.7822C11.8371 38.9164 12.0381 39.0532 12.2422 39.1921C13.9412 40.3479 15.9337 41.7027 18.43 42.9676C17.7081 43.6397 17.2448 44.5785 17.196 45.6021C17.095 47.7226 18.7379 49.5301 20.8583 49.6312C21.503 49.6619 22.1538 49.6774 22.793 49.6774C27.4718 49.6774 31.9851 48.8502 36.2122 47.2217C36.9276 47.2467 37.6536 47.2604 38.3928 47.2604C40.2129 47.2604 41.741 45.9905 42.1401 44.2904C46.29 41.7391 48.6718 39.1012 49.1167 38.5867ZM22.7929 47.9196C22.1815 47.9196 21.5588 47.9047 20.942 47.8753C19.7897 47.8205 18.8968 46.8382 18.9518 45.6859C18.9911 44.8627 19.5226 44.1395 20.2761 43.8409C20.7797 44.0623 21.3014 44.2784 21.8436 44.4872C24.8337 45.6393 28.0421 46.4247 31.5393 46.8579C28.7196 47.5621 25.7929 47.9196 22.7929 47.9196ZM29.9932 30.8404H30.0064C31.1997 30.8404 32.317 30.3285 33.1538 29.398C33.9687 28.4917 34.4198 27.2914 34.4237 26.0181C34.4279 24.6715 33.9205 23.7283 32.9153 23.2145C32.1459 22.8214 31.2009 22.7383 30.0187 22.7345C28.8336 22.731 27.8909 22.808 27.1191 23.1963C26.1107 23.7037 25.5973 24.6438 25.5932 25.9904C25.5892 27.2637 26.0326 28.4668 26.8419 29.3781C27.6759 30.3174 28.795 30.8367 29.9932 30.8404ZM27.9091 24.7666C28.38 24.5297 29.1535 24.4922 29.9309 24.4922C29.9582 24.4922 29.9857 24.4922 30.0131 24.4923C30.8177 24.4948 31.6293 24.5315 32.1153 24.7798C32.4028 24.9266 32.6684 25.1777 32.6658 26.0126C32.6633 26.8532 32.3723 27.6381 31.8467 28.2226C31.3477 28.7773 30.6944 29.0826 30.006 29.0826H29.9986C29.3077 29.0805 28.6533 28.7709 28.1561 28.211C27.6341 27.6233 27.3482 26.8367 27.3508 25.996C27.3535 25.1611 27.6208 24.9118 27.9091 24.7666ZM59.9961 6.73533C60.0566 5.0088 59.4104 3.30734 58.2229 2.06726C57.0531 0.845694 55.4842 0.165184 53.8049 0.151238C53.7876 0.151004 53.7701 0.151004 53.7528 0.151004C52.2661 0.151004 50.84 0.679404 49.7187 1.62699C48.5843 0.668272 47.1419 0.137293 45.6324 0.151238C43.9531 0.165184 42.3842 0.845577 41.2145 2.06714C40.027 3.30723 39.3807 5.00868 39.4413 6.73521C39.4783 7.78943 39.6928 8.80428 40.0767 9.77483C36.2387 10.3011 32.7249 12.0677 29.9996 14.8473C26.6776 11.4674 22.1276 9.57186 17.3596 9.60866C14.4043 9.63315 11.4944 10.4184 8.9443 11.8794C8.52312 12.1207 8.37723 12.6578 8.61852 13.0789C8.85981 13.5001 9.39688 13.6459 9.81805 13.4046C12.107 12.0933 14.7199 11.3884 17.3741 11.3662C21.9546 11.3276 26.3135 13.279 29.34 16.7183C29.5069 16.9079 29.7473 17.0166 29.9998 17.0166C30.2523 17.0166 30.4927 16.9079 30.6596 16.7183C33.3223 13.6925 36.954 11.8334 40.9332 11.4443C42.4203 13.7772 44.9964 15.7992 48.5851 17.4163C48.9452 17.5786 49.3318 17.6597 49.7184 17.6597C50.105 17.6597 50.4916 17.5786 50.8518 17.4163C51.8296 16.9757 52.7304 16.5045 53.5565 16.0057C56.6922 19.1744 58.39 23.5184 58.2317 28.0313C57.9255 36.7585 53.181 44.5116 44.1301 51.0749C43.7372 51.3599 43.6495 51.9095 43.9345 52.3025C44.1064 52.5395 44.3747 52.6655 44.6468 52.6655C44.8256 52.6655 45.0062 52.6111 45.1619 52.498C54.6739 45.6004 59.6621 37.3892 59.9883 28.0931C60.1597 23.2108 58.3682 18.5053 55.0458 15.0162C58.1909 12.7084 59.8851 9.89764 59.9961 6.73533ZM50.13 15.8139C49.8684 15.9317 49.5687 15.9317 49.3075 15.8139C45.6973 14.1871 41.3598 11.2808 41.1982 6.67369C41.1541 5.41825 41.6229 4.18239 42.4842 3.28285C43.323 2.40687 44.4463 1.9189 45.6472 1.90894C46.9474 1.89968 48.1959 2.45433 49.0589 3.43508C49.2258 3.62469 49.4661 3.73332 49.7187 3.73332C49.9712 3.73332 50.2117 3.62469 50.3784 3.43508C51.2415 2.45433 52.4861 1.90015 53.7903 1.90894C54.9911 1.9189 56.1143 2.40687 56.9533 3.28297C57.8146 4.1825 58.2834 5.41837 58.2393 6.67369C58.0776 11.2808 53.7402 14.1872 50.13 15.8139ZM18.5931 25.7303C19.0772 25.7302 19.4705 25.3386 19.4719 24.8541C19.4728 24.5313 19.5995 24.2281 19.8286 24.0005C20.0576 23.7729 20.3603 23.6494 20.6845 23.6492C21.0074 23.6502 21.3106 23.7769 21.5381 24.0059C21.7657 24.2349 21.8905 24.5389 21.8896 24.8618C21.8881 25.3472 22.2803 25.7419 22.7658 25.7434H22.7686C23.2527 25.7434 23.6459 25.3518 23.6475 24.8672C23.65 24.0748 23.3438 23.3289 22.7853 22.7668C22.2266 22.2047 21.4826 21.8937 20.6903 21.8912H20.6807C19.8919 21.8912 19.1496 22.1972 18.5898 22.7536C18.0277 23.3123 17.7168 24.0563 17.7143 24.8487C17.7128 25.3341 18.1051 25.7288 18.5905 25.7303H18.5931Z" fill="#202124"/>
</g>
<defs>
<clipPath id="clip0_233_1195">
<rect width="60" height="60" fill="white" transform="translate(0 0.150757)"/>
</clipPath>
</defs>
</svg>
