<svg width="60" height="60" viewBox="0 0 60 60" fill="none" xmlns="http://www.w3.org/2000/svg">
<path d="M55.5691 51.7551C56.4442 48.0694 54.1656 44.3722 50.4799 43.4971C46.7942 42.6221 43.097 44.9006 42.222 48.5863C41.347 52.272 43.6255 55.9692 47.3112 56.8443C50.9969 57.7193 54.6941 55.4408 55.5691 51.7551Z" fill="#FF4155"/>
<path d="M55.6369 12.8601H54.1533L48.9005 36.7851H20.9822L14.6326 7.86322C14.5496 7.48569 14.3747 7.13452 14.1232 6.84099C13.8717 6.54747 13.5515 6.32069 13.1911 6.18088L5.18958 3.07494C4.83666 2.92793 4.44348 2.90878 4.07795 3.02081C3.71242 3.13284 3.39749 3.36901 3.18755 3.68853C3.06697 3.88576 2.99114 4.10705 2.9654 4.33678C2.93965 4.56651 2.96463 4.79909 3.03856 5.01812C3.11249 5.23714 3.23358 5.43728 3.39329 5.60441C3.55299 5.77155 3.74742 5.9016 3.96287 5.98541L11.641 8.96431L18.0385 38.1009C18.153 38.6228 18.4425 39.0899 18.8589 39.4247C19.2752 39.7596 19.7935 39.9422 20.3279 39.9421H49.5549C50.0892 39.9422 50.6075 39.7596 51.0239 39.4247C51.4403 39.0899 51.7297 38.6228 51.8443 38.1009L57.0108 14.5696C57.0562 14.3641 57.0549 14.151 57.007 13.946C56.959 13.7411 56.8657 13.5495 56.7338 13.3854C56.6019 13.2213 56.4349 13.089 56.2451 12.998C56.0552 12.9071 55.8474 12.86 55.6369 12.8601Z" fill="#FF4155"/>
<path d="M23.5612 56.5219C27.0651 55.0863 28.7417 51.082 27.3061 47.5781C25.8705 44.0742 21.8662 42.3976 18.3623 43.8332C14.8584 45.2689 13.1818 49.2731 14.6174 52.777C16.0531 56.2809 20.0573 57.9575 23.5612 56.5219Z" fill="#FF4155"/>
<path d="M20.9823 53.34C22.7245 53.34 24.1369 51.9276 24.1369 50.1853C24.1369 48.443 22.7245 47.0306 20.9823 47.0306C19.24 47.0306 17.8276 48.443 17.8276 50.1853C17.8276 51.9276 19.24 53.34 20.9823 53.34Z" fill="#CEF4FF"/>
<path d="M48.9005 53.34C50.6428 53.34 52.0552 51.9276 52.0552 50.1853C52.0552 48.443 50.6428 47.0306 48.9005 47.0306C47.1582 47.0306 45.7458 48.443 45.7458 50.1853C45.7458 51.9276 47.1582 53.34 48.9005 53.34Z" fill="#CEF4FF"/>
<path d="M20.9823 36.7851H48.9005L54.1534 12.8601H15.7299L20.9823 36.7851Z" fill="#FCCF00"/>
<path d="M16.0701 29.9587C16.1296 29.9586 16.1888 29.9521 16.2469 29.9395C16.3521 29.9164 16.4518 29.8728 16.5401 29.8112C16.6285 29.7496 16.7039 29.6711 16.762 29.5804C16.82 29.4896 16.8597 29.3883 16.8786 29.2822C16.8975 29.1762 16.8953 29.0674 16.8722 28.9622L16.4203 26.9062C16.3701 26.6974 16.2401 26.5166 16.0581 26.4026C15.8761 26.2886 15.6566 26.2506 15.4469 26.2966C15.2371 26.3426 15.0538 26.4691 14.9362 26.6488C14.8186 26.8285 14.7762 27.0472 14.8181 27.2578L15.27 29.3151C15.3102 29.4975 15.4114 29.6606 15.5569 29.7776C15.7024 29.8946 15.8834 29.9585 16.0701 29.9587Z" fill="#092D4B"/>
<path d="M57.3722 12.871C57.164 12.6111 56.9 12.4015 56.5998 12.2576C56.2995 12.1137 55.9707 12.0393 55.6378 12.0399H51.2475C51.0299 12.0399 50.8213 12.1263 50.6674 12.2801C50.5136 12.434 50.4272 12.6426 50.4272 12.8602C50.4272 13.0777 50.5136 13.2864 50.6674 13.4402C50.8213 13.5941 51.0299 13.6805 51.2475 13.6805H53.1342L50.8683 24.0024H44.1492L45.2812 13.6805H46.8572C47.0747 13.6805 47.2834 13.5941 47.4372 13.4402C47.591 13.2864 47.6775 13.0777 47.6775 12.8602C47.6775 12.6426 47.591 12.434 47.4372 12.2801C47.2834 12.1263 47.0747 12.0399 46.8572 12.0399H16.3884L15.4336 7.68753C15.3223 7.17754 15.0863 6.70311 14.7466 6.30676C14.4069 5.9104 13.9743 5.60449 13.4873 5.41644L5.48435 2.3105C4.95207 2.08932 4.35864 2.06392 3.80942 2.23882C3.26019 2.41371 2.79072 2.77758 2.48435 3.26581C2.30197 3.56554 2.18756 3.90162 2.14917 4.25036C2.11078 4.5991 2.14935 4.95202 2.26216 5.28424C2.37497 5.61646 2.55928 5.9199 2.80209 6.17315C3.0449 6.42641 3.3403 6.62333 3.66747 6.75003L10.9354 9.57003L13.8487 22.8399C13.8983 23.0493 14.0283 23.2309 14.2105 23.3454C14.3928 23.4599 14.6128 23.4982 14.823 23.452C15.0332 23.4058 15.2168 23.2788 15.3343 23.0985C15.4518 22.9181 15.4937 22.6988 15.4509 22.4878L12.4434 8.78956C12.4141 8.65784 12.3528 8.5354 12.2648 8.4331C12.1768 8.3308 12.0649 8.25181 11.939 8.20316L4.26138 5.22191C4.15721 5.18148 4.06323 5.11859 3.98613 5.03772C3.90903 4.95684 3.85071 4.85997 3.8153 4.75398C3.7799 4.648 3.7683 4.53552 3.78131 4.42454C3.79432 4.31357 3.83164 4.20682 3.8906 4.11191C4.00157 3.95933 4.16131 3.84922 4.34338 3.79978C4.52545 3.75034 4.71895 3.76454 4.89185 3.84003L12.8934 6.94503C13.1279 7.03555 13.3362 7.18277 13.4998 7.37354C13.6634 7.5643 13.7772 7.79265 13.8309 8.03816L14.9254 13.0238V13.0275L17.5504 24.9863V24.9905L20.1787 36.9614C20.2187 37.1441 20.32 37.3076 20.4657 37.4247C20.6114 37.5419 20.7928 37.6057 20.9798 37.6055H48.8981C49.0851 37.6056 49.2664 37.5417 49.4121 37.4246C49.5578 37.3075 49.6591 37.144 49.6992 36.9614L52.3275 24.9905V24.9863L54.8118 13.6805H55.6359C55.7235 13.6806 55.81 13.7003 55.889 13.7382C55.968 13.7761 56.0375 13.8311 56.0924 13.8994C56.1473 13.9676 56.1863 14.0473 56.2064 14.1325C56.2265 14.2178 56.2273 14.3065 56.2087 14.3921L51.0422 37.9233C50.966 38.2617 50.7774 38.5643 50.5071 38.7817C50.2368 38.999 49.9007 39.1183 49.5539 39.12H20.3278C19.9809 39.1182 19.645 38.9989 19.3747 38.7816C19.1044 38.5642 18.9157 38.2617 18.8395 37.9233L17.7998 33.1875C17.7785 33.0805 17.7361 32.9789 17.6751 32.8885C17.6141 32.798 17.5356 32.7207 17.4443 32.661C17.353 32.6013 17.2507 32.5604 17.1434 32.5407C17.0361 32.521 16.926 32.5229 16.8194 32.5462C16.7129 32.5696 16.6121 32.614 16.5229 32.6768C16.4337 32.7397 16.3579 32.8196 16.3 32.9121C16.2421 33.0045 16.2032 33.1076 16.1857 33.2153C16.1681 33.3229 16.1721 33.433 16.1976 33.5391L17.2373 38.2772C17.3955 38.9798 17.7873 39.608 18.3486 40.0593C18.9099 40.5105 19.6076 40.7581 20.3278 40.7616H49.5548C50.2751 40.7583 50.9729 40.5108 51.5343 40.0596C52.0956 39.6083 52.4873 38.9799 52.6453 38.2772L57.8118 14.746C57.8843 14.4205 57.8824 14.0829 57.8063 13.7582C57.7302 13.4336 57.5818 13.1303 57.3722 12.871ZM42.4992 24.0024H35.7618V13.6805H43.6322L42.4992 24.0024ZM35.7618 35.9649V25.643H42.3192L41.1858 35.9649H35.7618ZM28.6964 35.9649L27.5625 25.643H34.1203V35.9649H28.6964ZM27.3839 24.0024L26.25 13.6805H34.1212V24.0024H27.3839ZM24.6009 13.6805L25.7343 24.0024H19.0153L16.7493 13.6805H24.6009ZM19.3758 25.643H25.9134L27.0468 35.9649H21.6417L19.3758 25.643ZM48.2409 35.9649H42.8362L43.9687 25.643H50.5064L48.2409 35.9649Z" fill="#092D4B"/>
<path d="M20.9822 42.5063C19.4634 42.5063 17.9787 42.9567 16.7159 43.8005C15.453 44.6443 14.4688 45.8436 13.8876 47.2468C13.3064 48.65 13.1544 50.194 13.4507 51.6836C13.747 53.1732 14.4784 54.5415 15.5524 55.6154C16.6264 56.6893 17.9947 57.4207 19.4843 57.7169C20.974 58.0132 22.518 57.861 23.9211 57.2797C25.3243 56.6985 26.5236 55.7141 27.3673 54.4513C28.211 53.1884 28.6613 51.7037 28.6612 50.1849C28.6589 48.149 27.8491 46.1973 26.4095 44.7577C24.9698 43.3182 23.018 42.5085 20.9822 42.5063ZM20.9822 56.2233C19.7879 56.2233 18.6204 55.8692 17.6274 55.2057C16.6344 54.5421 15.8604 53.5991 15.4034 52.4957C14.9463 51.3923 14.8268 50.1782 15.0598 49.0068C15.2928 47.8355 15.8679 46.7595 16.7123 45.9151C17.5568 45.0706 18.6328 44.4955 19.8041 44.2625C20.9755 44.0295 22.1896 44.1491 23.293 44.6061C24.3964 45.0631 25.3394 45.8371 26.0029 46.8301C26.6665 47.8231 27.0206 48.9906 27.0206 50.1849C27.0184 51.7857 26.3815 53.3203 25.2495 54.4522C24.1176 55.5842 22.583 56.2211 20.9822 56.2233Z" fill="#092D4B"/>
<path d="M20.9822 46.2103C20.196 46.2102 19.4274 46.4433 18.7736 46.88C18.1199 47.3168 17.6103 47.9376 17.3094 48.6639C17.0085 49.3903 16.9297 50.1896 17.0831 50.9607C17.2364 51.7318 17.615 52.4401 18.171 52.9961C18.7269 53.552 19.4352 53.9306 20.2063 54.084C20.9775 54.2373 21.7767 54.1586 22.5031 53.8577C23.2294 53.5567 23.8503 53.0472 24.287 52.3934C24.7237 51.7397 24.9568 50.9711 24.9567 50.1849C24.9555 49.1311 24.5363 48.1209 23.7912 47.3758C23.0461 46.6307 22.0359 46.2116 20.9822 46.2103ZM20.9822 52.5192C20.5205 52.5193 20.0691 52.3825 19.6851 52.126C19.3012 51.8696 19.0019 51.5051 18.8252 51.0785C18.6484 50.652 18.6021 50.1826 18.6921 49.7297C18.7822 49.2769 19.0044 48.8609 19.3309 48.5344C19.6573 48.2079 20.0733 47.9855 20.5261 47.8954C20.979 47.8053 21.4483 47.8515 21.8749 48.0281C22.3015 48.2048 22.6661 48.504 22.9226 48.8879C23.1792 49.2718 23.3161 49.7231 23.3161 50.1849C23.3153 50.8037 23.0692 51.3969 22.6317 51.8345C22.1942 52.2721 21.601 52.5184 20.9822 52.5192Z" fill="#092D4B"/>
<path d="M48.9004 46.2103C48.1142 46.2103 47.3457 46.4435 46.692 46.8803C46.0383 47.3171 45.5288 47.9379 45.228 48.6643C44.9271 49.3906 44.8484 50.1899 45.0018 50.961C45.1552 51.7321 45.5339 52.4403 46.0898 52.9962C46.6458 53.5521 47.3541 53.9307 48.1252 54.084C48.8963 54.2373 49.6956 54.1585 50.4219 53.8576C51.1482 53.5567 51.769 53.0471 52.2057 52.3934C52.6425 51.7396 52.8755 50.9711 52.8754 50.1849C52.8743 49.131 52.4551 48.1206 51.7099 47.3755C50.9647 46.6304 49.9543 46.2113 48.9004 46.2103ZM48.9004 52.5192C48.4387 52.5192 47.9874 52.3823 47.6035 52.1258C47.2196 51.8693 46.9204 51.5047 46.7437 51.0782C46.5671 50.6516 46.5208 50.1823 46.6109 49.7294C46.701 49.2766 46.9233 48.8607 47.2498 48.5342C47.5762 48.2077 47.9922 47.9854 48.445 47.8953C48.8978 47.8053 49.3672 47.8515 49.7937 48.0282C50.2203 48.2049 50.5849 48.5041 50.8414 48.8879C51.0979 49.2718 51.2348 49.7232 51.2348 50.1849C51.2342 50.8038 50.988 51.3972 50.5504 51.8348C50.1127 52.2725 49.5193 52.5186 48.9004 52.5192Z" fill="#092D4B"/>
<path d="M48.9004 42.5063C47.3816 42.506 45.8968 42.9562 44.6338 43.7998C43.3707 44.6434 42.3863 45.8427 41.8049 47.2458C41.2235 48.649 41.0712 50.1931 41.3674 51.6828C41.6636 53.1725 42.3949 54.5409 43.4688 55.6149C44.5427 56.689 45.911 57.4205 47.4007 57.7168C48.8904 58.0132 50.4345 57.8611 51.8377 57.2799C53.2409 56.6986 54.4403 55.7143 55.2841 54.4514C56.1279 53.1885 56.5782 51.7037 56.5781 50.1849C56.5757 48.1493 55.7661 46.1977 54.3268 44.7582C52.8875 43.3188 50.936 42.5089 48.9004 42.5063ZM48.9004 56.2233C47.7061 56.2236 46.5385 55.8697 45.5453 55.2063C44.5521 54.543 43.7779 53.6 43.3207 52.4967C42.8634 51.3933 42.7436 50.1791 42.9765 49.0077C43.2093 47.8363 43.7843 46.7602 44.6287 45.9156C45.4732 45.0709 46.5491 44.4957 47.7205 44.2626C48.8919 44.0295 50.1061 44.149 51.2095 44.606C52.313 45.0629 53.2561 45.8369 53.9197 46.83C54.5833 47.823 54.9375 48.9905 54.9375 50.1849C54.9352 51.7854 54.2985 53.3198 53.1669 54.4517C52.0353 55.5836 50.501 56.2207 48.9004 56.2233Z" fill="#092D4B"/>
</svg>
