<svg width="60" height="60" viewBox="0 0 60 60" fill="none" xmlns="http://www.w3.org/2000/svg">
<g clip-path="url(#clip0_68_171)">
<path d="M47.1164 9.7879H12.8836L3.50112 25.7835H56.4989L47.1164 9.7879Z" fill="#FD5F7E"/>
<path d="M21.9558 25.7835V19.8946C21.9578 18.1845 22.6381 16.545 23.8474 15.3358C25.0566 14.1266 26.6962 13.4465 28.4063 13.4446H31.5938C33.3038 13.4466 34.9433 14.1268 36.1525 15.336C37.3616 16.5452 38.0418 18.1846 38.0438 19.8946V25.7835H21.9558Z" fill="#77718C"/>
<path d="M2.69531 53.4694H57.3047C57.802 53.4694 58.2789 53.6669 58.6305 54.0185C58.9821 54.3702 59.1797 54.8471 59.1797 55.3444V57.599H0.820312V55.3444C0.820312 54.8471 1.01786 54.3702 1.36949 54.0185C1.72112 53.6669 2.19803 53.4694 2.69531 53.4694Z" fill="#77718C"/>
<path d="M17.7539 5.27618H22.2656V9.78791H17.7539V5.27618Z" fill="#77718C"/>
<path d="M15.8789 2.40088H24.1406V5.27619H15.8789V2.40088Z" fill="#86D8FC"/>
<path d="M28.4063 17.1951H31.5938C32.3098 17.1951 32.9964 17.4795 33.5027 17.9857C34.0089 18.492 34.2933 19.1786 34.2933 19.8946V25.7812H25.7058V19.8946C25.7058 19.54 25.7757 19.1889 25.9114 18.8613C26.0471 18.5337 26.2461 18.2361 26.4968 17.9854C26.7476 17.7347 27.0453 17.5359 27.3729 17.4003C27.7006 17.2647 28.0517 17.1949 28.4063 17.1951Z" fill="#86D8FC"/>
<path d="M34.2943 20.669H30.8203V17.1951H29.1797V20.669H25.7058V22.3096H29.1797V25.7835H30.8203V22.3096H34.2943V20.669Z" fill="#3AB0FA"/>
<path d="M7.1931 25.7836H52.8067V53.4693H7.1931V25.7836Z" fill="#F5F5F5"/>
<path d="M26.4403 41.3437H33.5596C34.1813 41.3437 34.7774 41.5906 35.2169 42.0302C35.6565 42.4697 35.9034 43.0658 35.9034 43.6874V53.4703H24.0965V43.6874C24.0965 43.0658 24.3435 42.4697 24.783 42.0302C25.2225 41.5906 25.8187 41.3437 26.4403 41.3437Z" fill="#86D8FC"/>
<path d="M39.6563 41.3432H49.0567V49.7198H39.6563V41.3432Z" fill="#E0E0E0"/>
<path d="M20.3436 49.7194H10.9433V41.3428H20.3436V49.7194Z" fill="#E0E0E0"/>
<path d="M20.3436 37.59H10.9433V29.5331H20.3436V37.59Z" fill="#E0E0E0"/>
<path d="M34.7002 37.59H25.2999V29.5331H34.7002V37.59Z" fill="#E0E0E0"/>
<path d="M49.0569 37.59H39.6566V29.5331H49.0569V37.59Z" fill="#E0E0E0"/>
<path d="M29.1797 41.3432H30.8203V53.4693H29.1797V41.3432Z" fill="#3AB0FA"/>
<path d="M57.3047 52.649H53.625V26.6038H56.497C56.6416 26.6039 56.7836 26.5658 56.9086 26.4934C57.0337 26.4209 57.1374 26.3167 57.2092 26.1913C57.2811 26.0659 57.3185 25.9237 57.3177 25.7792C57.317 25.6346 57.278 25.4929 57.2048 25.3682L55.3467 22.2004C55.2922 22.1075 55.2199 22.0262 55.1339 21.9612C55.048 21.8963 54.9501 21.8489 54.8458 21.8217C54.7415 21.7946 54.6329 21.7882 54.5262 21.8031C54.4195 21.8179 54.3167 21.8536 54.2238 21.9081C54.1309 21.9627 54.0496 22.035 53.9847 22.1209C53.9197 22.2069 53.8723 22.3048 53.8451 22.4091C53.818 22.5133 53.8117 22.6219 53.8265 22.7286C53.8413 22.8354 53.877 22.9381 53.9316 23.031L55.065 24.9632H38.8645V19.8946C38.8622 17.9671 38.0954 16.1192 36.7323 14.7563C35.3693 13.3935 33.5213 12.6269 31.5937 12.6248H28.4062C26.4788 12.627 24.6309 13.3936 23.268 14.7565C21.905 16.1194 21.1383 17.9672 21.1359 19.8946V24.9632H4.93312L13.3528 10.6082H46.6467L48.1716 13.2084C48.2261 13.3013 48.2984 13.3826 48.3844 13.4475C48.4703 13.5125 48.5682 13.5599 48.6725 13.5871C48.7767 13.6142 48.8853 13.6205 48.9921 13.6057C49.0988 13.5909 49.2015 13.5552 49.2945 13.5006C49.3874 13.4461 49.4686 13.3738 49.5336 13.2878C49.5986 13.2019 49.646 13.104 49.6731 12.9997C49.7003 12.8955 49.7066 12.7869 49.6918 12.6801C49.677 12.5734 49.6413 12.4707 49.5867 12.3778L47.8242 9.37494C47.7518 9.25165 47.6485 9.14941 47.5244 9.07837C47.4003 9.00733 47.2598 8.96995 47.1169 8.96994H23.0859V6.0965H24.1406C24.2484 6.09657 24.3551 6.07539 24.4546 6.03419C24.5542 5.99298 24.6446 5.93256 24.7208 5.85638C24.797 5.78019 24.8574 5.68974 24.8986 5.59018C24.9398 5.49063 24.961 5.38393 24.9609 5.27619V2.40088C24.961 2.29314 24.9398 2.18644 24.8986 2.08689C24.8574 1.98733 24.797 1.89688 24.7208 1.82069C24.6446 1.74451 24.5542 1.68409 24.4546 1.64288C24.3551 1.60168 24.2484 1.5805 24.1406 1.58057H15.8789C15.7712 1.5805 15.6645 1.60168 15.5649 1.64288C15.4654 1.68409 15.3749 1.74451 15.2987 1.82069C15.2225 1.89688 15.1621 1.98733 15.1209 2.08689C15.0797 2.18644 15.0585 2.29314 15.0586 2.40088V5.27619C15.0585 5.38393 15.0797 5.49063 15.1209 5.59018C15.1621 5.68974 15.2225 5.78019 15.2987 5.85638C15.3749 5.93256 15.4654 5.99298 15.5649 6.03419C15.6645 6.07539 15.7712 6.09657 15.8789 6.0965H16.9336V8.9676H12.8831C12.7399 8.96785 12.5993 9.00558 12.4752 9.07704C12.3511 9.14851 12.2479 9.25121 12.1758 9.37494L2.79328 25.3682C2.7201 25.4929 2.68116 25.6346 2.68039 25.7792C2.67962 25.9237 2.71705 26.0659 2.78889 26.1913C2.86073 26.3167 2.96444 26.4209 3.0895 26.4934C3.21457 26.5658 3.35656 26.6039 3.50109 26.6038H6.375V52.649H2.69531C1.9807 52.6497 1.29557 52.934 0.790259 53.4393C0.284951 53.9446 0.000742745 54.6297 -1.77325e-06 55.3443V57.599C-6.33931e-05 57.7067 0.0211126 57.8134 0.0623153 57.913C0.103518 58.0125 0.163939 58.103 0.240125 58.1792C0.31631 58.2554 0.406765 58.3158 0.506318 58.357C0.60587 58.3982 0.712568 58.4194 0.820311 58.4193H59.1797C59.2874 58.4194 59.3941 58.3982 59.4937 58.357C59.5932 58.3158 59.6837 58.2554 59.7599 58.1792C59.8361 58.103 59.8965 58.0125 59.9377 57.913C59.9789 57.8134 60.0001 57.7067 60 57.599V55.3443C59.9993 54.6297 59.715 53.9446 59.2097 53.4393C58.7044 52.934 58.0193 52.6497 57.3047 52.649ZM16.6992 3.22119H23.3203V4.45588H16.6992V3.22119ZM18.5742 6.0965H21.4453V8.9676H18.5742V6.0965ZM22.7761 19.8946C22.7778 18.402 23.3716 16.9711 24.4271 15.9158C25.4826 14.8604 26.9137 14.2669 28.4062 14.2654H31.5937C33.0863 14.267 34.5172 14.8606 35.5726 15.9159C36.628 16.9712 37.2217 18.4021 37.2234 19.8946V24.9632H35.1141V19.8946C35.1129 18.9614 34.7417 18.0667 34.0817 17.4068C33.4218 16.7469 32.527 16.3758 31.5937 16.3748H28.4062C27.473 16.3758 26.5782 16.7469 25.9183 17.4068C25.2583 18.0667 24.8871 18.9614 24.8859 19.8946V24.9632H22.7766L22.7761 19.8946ZM26.5261 24.9632V22.3096H29.1797V24.9632H26.5261ZM31.5937 18.0154C32.092 18.0159 32.5698 18.214 32.9222 18.5663C33.2746 18.9186 33.4728 19.3963 33.4734 19.8946V20.669H30.8203V18.0154H31.5937ZM29.1797 20.669H26.5261V19.8946C26.5267 19.3963 26.725 18.9186 27.0774 18.5663C27.4297 18.214 27.9075 18.0159 28.4058 18.0154H29.1797V20.669ZM30.8203 22.3096H33.4739V24.9632H30.8203V22.3096ZM8.01562 26.6038H51.9844V52.649H36.7237V43.6874C36.7226 42.8486 36.3889 42.0445 35.7958 41.4513C35.2027 40.8582 34.3985 40.5245 33.5597 40.5234H26.9972C26.7796 40.5234 26.571 40.6098 26.4171 40.7636C26.2633 40.9175 26.1769 41.1261 26.1769 41.3437C26.1769 41.5612 26.2633 41.7699 26.4171 41.9237C26.571 42.0776 26.7796 42.164 26.9972 42.164H29.1797V52.6499H24.9169V44.5457C24.9169 44.3282 24.8304 44.1195 24.6766 43.9657C24.5228 43.8118 24.3141 43.7254 24.0966 43.7254C23.879 43.7254 23.6704 43.8118 23.5165 43.9657C23.3627 44.1195 23.2762 44.3282 23.2762 44.5457V52.649H8.01562V26.6038ZM33.5625 42.1631C33.9664 42.1636 34.3536 42.3242 34.6392 42.6098C34.9248 42.8954 35.0854 43.2826 35.0859 43.6865V52.649H30.8203V42.1631H33.5625ZM58.3622 56.7787H1.64062V55.3443C1.641 55.0647 1.75223 54.7967 1.94995 54.5989C2.14766 54.4012 2.4157 54.29 2.69531 54.2896H57.3047C57.5843 54.29 57.8523 54.4012 58.0501 54.5989C58.2478 54.7967 58.359 55.0647 58.3594 55.3443L58.3622 56.7787Z" fill="#092D4B"/>
<path d="M51.3044 18.5498C51.4145 18.7375 51.5947 18.8738 51.8052 18.9287C52.0158 18.9836 52.2396 18.9526 52.4273 18.8425C52.615 18.7324 52.7513 18.5523 52.8062 18.3417C52.8611 18.1311 52.8301 17.9074 52.7201 17.7196L52.2152 16.859C52.1051 16.6713 51.925 16.535 51.7144 16.4801C51.5038 16.4252 51.28 16.4562 51.0923 16.5663C50.9046 16.6764 50.7683 16.8565 50.7134 17.0671C50.6585 17.2777 50.6895 17.5014 50.7996 17.6892L51.3044 18.5498Z" fill="#092D4B"/>
<path d="M39.6563 50.5396H49.0562C49.1639 50.5396 49.2706 50.5185 49.3702 50.4772C49.4697 50.436 49.5602 50.3756 49.6364 50.2994C49.7126 50.2233 49.773 50.1328 49.8142 50.0332C49.8554 49.9337 49.8766 49.827 49.8765 49.7193V41.3436C49.8766 41.2359 49.8554 41.1292 49.8142 41.0296C49.773 40.9301 49.7126 40.8396 49.6364 40.7634C49.5602 40.6873 49.4697 40.6268 49.3702 40.5856C49.2706 40.5444 49.1639 40.5233 49.0562 40.5233H39.6563C39.5486 40.5233 39.4419 40.5444 39.3424 40.5856C39.2428 40.6268 39.1523 40.6873 39.0762 40.7634C39 40.8396 38.9396 40.9301 38.8984 41.0296C38.8572 41.1292 38.836 41.2359 38.836 41.3436V49.7202C38.8361 49.8279 38.8574 49.9345 38.8986 50.0339C38.9399 50.1333 39.0003 50.2237 39.0765 50.2998C39.1527 50.3759 39.2431 50.4362 39.3426 50.4773C39.4421 50.5185 39.5487 50.5396 39.6563 50.5396ZM40.4767 42.163H48.2345V48.8989H40.4771L40.4767 42.163Z" fill="#092D4B"/>
<path d="M20.3438 40.5225H10.9435C10.8359 40.5226 10.7293 40.544 10.6299 40.5854C10.5305 40.6268 10.4402 40.6873 10.3642 40.7636C10.2882 40.8398 10.228 40.9303 10.187 41.0299C10.1459 41.1294 10.1249 41.236 10.1251 41.3437V49.7203C10.125 49.828 10.1462 49.9347 10.1874 50.0343C10.2286 50.1338 10.289 50.2243 10.3652 50.3005C10.4414 50.3766 10.5319 50.4371 10.6314 50.4783C10.731 50.5195 10.8377 50.5407 10.9454 50.5406H20.3438C20.4516 50.5407 20.5583 50.5195 20.6578 50.4783C20.7574 50.4371 20.8478 50.3766 20.924 50.3005C21.0002 50.2243 21.0606 50.1338 21.1018 50.0343C21.143 49.9347 21.1642 49.828 21.1642 49.7203V41.3437C21.1643 41.2359 21.1433 41.1291 21.1021 41.0294C21.061 40.9298 21.0006 40.8392 20.9244 40.7629C20.8482 40.6866 20.7577 40.6261 20.6581 40.5849C20.5584 40.5436 20.4517 40.5224 20.3438 40.5225ZM19.5235 48.899H11.7657V42.1631H19.5231L19.5235 48.899Z" fill="#092D4B"/>
<path d="M20.344 28.7133H10.9437C10.8359 28.7132 10.7292 28.7344 10.6297 28.7756C10.5301 28.8168 10.4397 28.8772 10.3635 28.9534C10.2873 29.0296 10.2269 29.12 10.1857 29.2196C10.1445 29.3191 10.1233 29.4258 10.1234 29.5336V37.59C10.1233 37.6977 10.1445 37.8044 10.1857 37.904C10.2269 38.0035 10.2873 38.094 10.3635 38.1702C10.4397 38.2464 10.5301 38.3068 10.6297 38.348C10.7292 38.3892 10.8359 38.4104 10.9437 38.4103H20.344C20.4517 38.4104 20.5584 38.3892 20.658 38.348C20.7575 38.3068 20.848 38.2464 20.9242 38.1702C21.0003 38.094 21.0608 38.0035 21.102 37.904C21.1432 37.8044 21.1644 37.6977 21.1643 37.59V29.5336C21.1644 29.4258 21.1432 29.3191 21.102 29.2196C21.0608 29.12 21.0003 29.0296 20.9242 28.9534C20.848 28.8772 20.7575 28.8168 20.658 28.7756C20.5584 28.7344 20.4517 28.7132 20.344 28.7133ZM19.5237 36.7697H11.7659V30.3539H19.5232L19.5237 36.7697Z" fill="#092D4B"/>
<path d="M25.2997 38.4103H34.7001C34.8078 38.4104 34.9145 38.3892 35.0141 38.348C35.1136 38.3068 35.2041 38.2464 35.2802 38.1702C35.3564 38.094 35.4169 38.0035 35.4581 37.904C35.4993 37.8044 35.5204 37.6977 35.5204 37.59V29.5336C35.5204 29.4258 35.4993 29.3191 35.4581 29.2196C35.4169 29.12 35.3564 29.0296 35.2802 28.9534C35.2041 28.8772 35.1136 28.8168 35.0141 28.7756C34.9145 28.7344 34.8078 28.7132 34.7001 28.7133H25.2997C25.192 28.7132 25.0853 28.7344 24.9858 28.7756C24.8862 28.8168 24.7957 28.8772 24.7196 28.9534C24.6434 29.0296 24.583 29.12 24.5417 29.2196C24.5005 29.3191 24.4794 29.4258 24.4794 29.5336V37.59C24.4794 37.6977 24.5005 37.8044 24.5417 37.904C24.583 38.0035 24.6434 38.094 24.7196 38.1702C24.7957 38.2464 24.8862 38.3068 24.9858 38.348C25.0853 38.3892 25.192 38.4104 25.2997 38.4103ZM26.1201 30.3539H33.8797V36.7697H26.1201V30.3539Z" fill="#092D4B"/>
<path d="M39.6563 38.4103H49.0562C49.1639 38.4104 49.2706 38.3892 49.3702 38.348C49.4697 38.3068 49.5602 38.2464 49.6364 38.1702C49.7126 38.094 49.773 38.0035 49.8142 37.904C49.8554 37.8044 49.8766 37.6977 49.8765 37.59V29.5336C49.8766 29.4258 49.8554 29.3191 49.8142 29.2196C49.773 29.12 49.7126 29.0296 49.6364 28.9534C49.5602 28.8772 49.4697 28.8168 49.3702 28.7756C49.2706 28.7344 49.1639 28.7132 49.0562 28.7133H39.6563C39.5486 28.7132 39.4419 28.7344 39.3424 28.7756C39.2428 28.8168 39.1523 28.8772 39.0762 28.9534C39 29.0296 38.9396 29.12 38.8984 29.2196C38.8572 29.3191 38.836 29.4258 38.836 29.5336V37.59C38.836 37.6977 38.8572 37.8044 38.8984 37.904C38.9396 38.0035 39 38.094 39.0762 38.1702C39.1523 38.2464 39.2428 38.3068 39.3424 38.348C39.4419 38.3892 39.5486 38.4104 39.6563 38.4103ZM40.4767 30.3539H48.2345V36.7697H40.4771L40.4767 30.3539Z" fill="#092D4B"/>
</g>
<defs>
<clipPath id="clip0_68_171">
<rect width="60" height="60" fill="white"/>
</clipPath>
</defs>
</svg>
