<svg width="20" height="21" viewBox="0 0 20 21" fill="none" xmlns="http://www.w3.org/2000/svg">
<g clip-path="url(#clip0_51_12)">
<path d="M9.99998 6.67661C8.15831 6.67661 6.66665 8.16828 6.66665 10.0099C6.66665 11.8516 8.15831 13.3433 9.99998 13.3433C11.8416 13.3433 13.3333 11.8516 13.3333 10.0099C13.3333 8.16828 11.8416 6.67661 9.99998 6.67661ZM17.45 9.17661C17.0666 5.70161 14.3083 2.94328 10.8333 2.55994V1.67661C10.8333 1.21828 10.4583 0.843277 9.99998 0.843277C9.54165 0.843277 9.16665 1.21828 9.16665 1.67661V2.55994C5.69165 2.94328 2.93331 5.70161 2.54998 9.17661H1.66665C1.20831 9.17661 0.833313 9.55161 0.833313 10.0099C0.833313 10.4683 1.20831 10.8433 1.66665 10.8433H2.54998C2.93331 14.3183 5.69165 17.0766 9.16665 17.4599V18.3433C9.16665 18.8016 9.54165 19.1766 9.99998 19.1766C10.4583 19.1766 10.8333 18.8016 10.8333 18.3433V17.4599C14.3083 17.0766 17.0666 14.3183 17.45 10.8433H18.3333C18.7916 10.8433 19.1666 10.4683 19.1666 10.0099C19.1666 9.55161 18.7916 9.17661 18.3333 9.17661H17.45ZM9.99998 15.8433C6.77498 15.8433 4.16665 13.2349 4.16665 10.0099C4.16665 6.78494 6.77498 4.17661 9.99998 4.17661C13.225 4.17661 15.8333 6.78494 15.8333 10.0099C15.8333 13.2349 13.225 15.8433 9.99998 15.8433Z" fill="#4D4D50"/>
</g>
<defs>
<clipPath id="clip0_51_12">
<rect width="20" height="20" fill="white" transform="translate(0 0.00994873)"/>
</clipPath>
</defs>
</svg>
