<svg width="60" height="60" viewBox="0 0 60 60" fill="none" xmlns="http://www.w3.org/2000/svg">
<g clip-path="url(#clip0_113_452)">
<path d="M12.6652 4.18566C12.0057 4.22832 11.5071 4.80535 11.5071 5.46617V11.6866C11.5071 12.4688 10.873 13.103 10.0907 13.103C9.30844 13.103 8.67422 12.4689 8.67422 11.6866V5.46617C8.67422 4.80535 8.17559 4.22832 7.51617 4.18566C6.79359 4.1389 6.19289 4.71113 6.19289 5.42363V11.6866C6.19289 12.4688 5.55879 13.103 4.77644 13.103C3.99422 13.103 3.36 12.4689 3.36 11.6866V5.46617C3.36 4.80535 2.86137 4.22832 2.20195 4.18566C1.47961 4.1389 0.878906 4.71113 0.878906 5.42363V16.3651C0.878906 18.1325 1.61473 19.8207 2.91129 21.0218C2.93297 21.0419 2.95477 21.0619 2.97645 21.0821C4.2743 22.2841 5.01199 22.7321 5.01199 24.501V36.5115L7.43367 39.6202L9.85535 36.5115V24.501C9.85535 22.7321 10.593 22.284 11.8909 21.0821L11.9528 21.0248C13.2506 19.8227 13.9883 18.1338 13.9883 16.3647V5.42363C13.9884 4.71113 13.3877 4.1389 12.6652 4.18566Z" fill="#D4D2D3"/>
<path d="M5.01195 36.5116V53.3953C5.01195 54.7327 6.09617 55.8169 7.43363 55.8169C8.77109 55.8169 9.8553 54.7327 9.8553 53.3953V36.5116H5.01195Z" fill="#DC5A64"/>
<path d="M56.6995 34.7121L54.2778 37.3594V53.6612C54.2778 54.9987 55.362 56.0829 56.6995 56.0829C58.037 56.0829 59.1212 54.9987 59.1212 53.6612V37.3594L56.6995 34.7121Z" fill="#DC5A64"/>
<path d="M56.7839 4.45157C54.5524 7.52621 51.492 15.281 51.2397 34.7415C51.2211 36.1811 52.3818 37.3593 53.8216 37.3593H59.121V5.2134C59.121 3.96207 57.5189 3.43871 56.7839 4.45157Z" fill="#D4D2D3"/>
<path d="M31.3071 47.5297C40.9885 47.5297 48.8368 39.6814 48.8368 30C48.8368 20.3186 40.9885 12.4703 31.3071 12.4703C21.6257 12.4703 13.7774 20.3186 13.7774 30C13.7774 39.6814 21.6257 47.5297 31.3071 47.5297Z" fill="#DC5A64"/>
<path d="M31.3069 43.7172C38.8827 43.7172 45.0241 37.5758 45.0241 29.9999C45.0241 22.4241 38.8827 16.2827 31.3069 16.2827C23.731 16.2827 17.5896 22.4241 17.5896 29.9999C17.5896 37.5758 23.731 43.7172 31.3069 43.7172Z" fill="#EFEDEE"/>
<path d="M20.5193 29.9999C20.5193 22.919 25.8847 17.0917 32.7717 16.3606C32.2904 16.3095 31.8018 16.2827 31.3069 16.2827C23.731 16.2827 17.5896 22.4241 17.5896 29.9999C17.5896 37.5758 23.731 43.7172 31.3069 43.7172C31.8018 43.7172 32.2904 43.6904 32.7717 43.6393C25.8847 42.9081 20.5193 37.0809 20.5193 29.9999Z" fill="#D4D2D3"/>
<path d="M31.3071 11.5923C21.1565 11.5923 12.8985 19.8504 12.8985 30.0009C12.8985 40.1515 21.1565 48.4096 31.3071 48.4096C41.4576 48.4096 49.7157 40.1515 49.7157 30.0009C49.7157 19.8504 41.4576 11.5923 31.3071 11.5923ZM31.3071 46.6517C22.1258 46.6517 14.6563 39.1822 14.6563 30.0009C14.6563 20.8196 22.1258 13.3501 31.3071 13.3501C40.4884 13.3501 47.9579 20.8196 47.9579 30.0009C47.9579 39.1822 40.4884 46.6517 31.3071 46.6517Z" fill="#092D4B"/>
<path d="M31.3069 15.4048C27.9336 15.4048 24.6432 16.5829 22.042 18.722C21.6671 19.0303 21.6131 19.5842 21.9214 19.9592C22.2297 20.3342 22.7836 20.3881 23.1584 20.0797C25.4459 18.1987 28.3397 17.1626 31.3067 17.1626C38.3858 17.1626 44.1451 22.9219 44.1451 30.001C44.1451 37.08 38.3858 42.8393 31.3067 42.8393C24.2277 42.8393 18.4684 37.08 18.4684 30.001C18.4684 27.2786 19.3101 24.6775 20.9027 22.4788C21.1875 22.0858 21.0996 21.5363 20.7065 21.2515C20.3135 20.9666 19.764 21.0545 19.4791 21.4477C17.6679 23.9481 16.7106 26.9058 16.7106 30.001C16.7106 38.0493 23.2584 44.5971 31.3067 44.5971C39.3551 44.5971 45.9029 38.0493 45.9029 30.001C45.9029 21.9526 39.3552 15.4048 31.3069 15.4048Z" fill="#092D4B"/>
<path d="M59.1211 18.8249C59.6065 18.8249 60 18.4314 60 17.946V5.21438C60 4.2552 59.4103 3.44414 58.4976 3.14789C57.5867 2.85211 56.6348 3.1616 56.0725 3.93633C53.6049 7.33641 50.611 15.4389 50.3609 34.731C50.3384 36.471 51.6704 38.0037 53.3989 38.2129V53.6621C53.3989 55.4821 54.8796 56.9627 56.6995 56.9627C58.5194 56.9627 60.0001 55.4821 60.0001 53.6621V21.4616C60.0001 20.9762 59.6066 20.5827 59.1212 20.5827C58.6358 20.5827 58.2423 20.9762 58.2423 21.4616V36.4814C58.2423 36.4814 53.8225 36.4814 53.8217 36.4814C52.8828 36.4814 52.1064 35.6913 52.1188 34.7538C52.229 26.2448 53.0742 11.0605 57.4953 4.96875C57.6478 4.75864 57.8488 4.78535 57.955 4.81981C58.0414 4.84782 58.2424 4.9425 58.2424 5.2145V17.9461C58.2422 18.4314 58.6357 18.8249 59.1211 18.8249ZM58.2422 38.2392V53.6621C58.2422 54.5128 57.55 55.2049 56.6994 55.2049C55.8487 55.2049 55.1566 54.5128 55.1566 53.6621V38.2392H58.2422Z" fill="#092D4B"/>
<path d="M2.32699 21.6547C2.4784 21.8112 2.63496 21.9625 2.79598 22.1083C3.79617 23.0136 4.13309 23.3186 4.13309 24.5021V53.3962C4.13309 55.2161 5.61375 56.6968 7.43367 56.6968C9.25359 56.6968 10.7343 55.2161 10.7343 53.3962V24.5021C10.7343 23.3185 11.0712 23.0134 12.0714 22.1083C13.7493 20.5895 14.8673 18.6868 14.8673 16.3656V5.42465C14.8673 4.20977 13.8397 3.23031 12.6084 3.30965C11.4981 3.38149 10.6282 4.3293 10.6282 5.46719V11.6876C10.6282 11.984 10.3871 12.225 10.0908 12.225C9.79441 12.225 9.55324 11.9839 9.55324 11.6876V5.46707C9.55324 4.32918 8.68348 3.38137 7.57312 3.30953C6.34066 3.22926 5.3141 4.20977 5.31422 5.42453V11.6875C5.31422 11.9839 5.07316 12.2249 4.7768 12.2249C4.48043 12.2249 4.23937 11.9838 4.23937 11.6875V5.46707C4.23937 4.32918 3.36961 3.38137 2.25926 3.30953C1.02668 3.22938 0 4.20977 0 5.42465V16.3661C0 16.3674 0 16.3687 0 16.37C0.00105469 18.3803 0.952148 20.2332 2.32699 21.6547ZM8.97645 53.3962C8.97645 54.2468 8.28434 54.9389 7.43367 54.9389C6.58301 54.9389 5.8909 54.2468 5.8909 53.3962V37.3914H8.97645V53.3962ZM1.75781 5.42465C1.75781 5.21664 1.93406 5.05047 2.14535 5.06371C2.33062 5.07578 2.48133 5.2566 2.48133 5.46707V11.6875C2.48133 12.9531 3.51094 13.9827 4.77656 13.9827C6.04219 13.9827 7.0718 12.953 7.0718 11.6875V5.42465C7.0718 5.21664 7.24699 5.05047 7.45934 5.06371C7.64461 5.07578 7.79531 5.2566 7.79531 5.46707V11.6875C7.79531 12.9531 8.82504 13.9827 10.0907 13.9827C11.3563 13.9827 12.3859 12.953 12.3859 11.6875V5.46707C12.3859 5.2566 12.5366 5.07567 12.7219 5.06371C12.9326 5.04965 13.1094 5.21664 13.1094 5.42465C13.1094 5.42465 13.1094 16.362 13.1094 16.3656C13.1094 18.1786 12.1944 19.6257 10.8916 20.8049C9.8216 21.7735 8.97633 22.5385 8.97633 24.5021V35.6336H5.89078V24.5021C5.89078 22.5387 5.04562 21.7736 3.97559 20.805C2.66473 19.6185 1.75781 18.1926 1.75781 16.366V5.42465Z" fill="#092D4B"/>
</g>
<defs>
<clipPath id="clip0_113_452">
<rect width="60" height="60" fill="white"/>
</clipPath>
</defs>
</svg>
