<svg width="60" height="61" viewBox="0 0 60 61" fill="none" xmlns="http://www.w3.org/2000/svg">
<path d="M34.1188 15.731L31.6961 15.3668C31.4013 13.7957 30.7838 12.3386 29.9143 11.0671L31.3704 9.09581C31.6253 8.75081 31.5894 8.27117 31.2861 7.96788L30.0321 6.71386C29.7287 6.41046 29.2492 6.37472 28.9042 6.6296L26.9329 8.08577C25.6614 7.21636 24.2043 6.59878 22.6332 6.30406L22.269 3.8812C22.2053 3.45699 21.8408 3.14316 21.4118 3.14316H19.6383C19.2093 3.14316 18.8448 3.45699 18.7811 3.8812L18.4168 6.30406C16.8457 6.59867 15.3887 7.21636 14.1172 8.08577L12.1459 6.6296C11.8008 6.37472 11.3213 6.41058 11.018 6.71386L9.76395 7.96788C9.46055 8.27117 9.42481 8.75081 9.67969 9.09581L11.1359 11.0671C10.2664 12.3386 9.64887 13.7957 9.35414 15.3668L6.93129 15.731C6.50707 15.7947 6.19336 16.1592 6.19336 16.5882V18.3617C6.19336 18.7907 6.50707 19.1552 6.93129 19.2189L9.35414 19.5832C9.64875 21.1543 10.2664 22.6113 11.1359 23.8828L9.67969 25.8541C9.42481 26.1992 9.46066 26.6787 9.76395 26.982L11.018 28.236C11.3213 28.5394 11.8009 28.5752 12.1459 28.3203L14.1172 26.8641C15.3887 27.7335 16.8458 28.3511 18.4168 28.6459L18.7811 31.0687C18.8448 31.4929 19.2093 31.8066 19.6383 31.8066H21.4118C21.8408 31.8066 22.2053 31.4929 22.269 31.0687L22.6332 28.6459C24.2043 28.3511 25.6614 27.7335 26.9329 26.8641L28.9042 28.3203C29.2493 28.5752 29.7288 28.5393 30.0321 28.236L31.2861 26.982C31.5895 26.6787 31.6253 26.1991 31.3704 25.8541L29.9143 23.8828C30.7838 22.6113 31.4013 21.1542 31.6961 19.5832L34.1188 19.2189C34.543 19.1552 34.8567 18.7907 34.8567 18.3617V16.5882C34.8568 16.1592 34.5431 15.7947 34.1188 15.731ZM20.525 23.2114C17.3569 23.2114 14.7886 20.6431 14.7886 17.475C14.7886 14.3068 17.3569 11.7385 20.525 11.7385C23.6932 11.7385 26.2616 14.3068 26.2616 17.475C26.2616 20.6431 23.6932 23.2114 20.525 23.2114Z" fill="#FFE27A"/>
<path d="M50.6719 7.35779C52.4032 7.35779 53.8066 5.95431 53.8066 4.22302C53.8066 2.49174 52.4032 1.08826 50.6719 1.08826C48.9406 1.08826 47.5371 2.49174 47.5371 4.22302C47.5371 5.95431 48.9406 7.35779 50.6719 7.35779Z" fill="#FF4755"/>
<path d="M50.6718 5.24829C49.3106 5.24829 48.1526 4.38052 47.7195 3.16821C47.6017 3.49786 47.5371 3.85282 47.5371 4.2229C47.5371 5.95411 48.9405 7.35767 50.6718 7.35767C52.403 7.35767 53.8065 5.95423 53.8065 4.2229C53.8065 3.85282 53.742 3.49786 53.6242 3.16821C53.1909 4.38063 52.0329 5.24829 50.6718 5.24829Z" fill="#FC2B3A"/>
<path d="M50.6719 33.8616C52.4032 33.8616 53.8066 32.4581 53.8066 30.7268C53.8066 28.9955 52.4032 27.5921 50.6719 27.5921C48.9406 27.5921 47.5371 28.9955 47.5371 30.7268C47.5371 32.4581 48.9406 33.8616 50.6719 33.8616Z" fill="#FF4755"/>
<path d="M50.6718 31.7521C49.3106 31.7521 48.1526 30.8844 47.7195 29.6721C47.6017 30.0017 47.5371 30.3567 47.5371 30.7268C47.5371 32.458 48.9405 33.8615 50.6718 33.8615C52.403 33.8615 53.8065 32.4581 53.8065 30.7268C53.8065 30.3567 53.742 30.0017 53.6242 29.6721C53.1909 30.8845 52.0329 31.7521 50.6718 31.7521Z" fill="#FC2B3A"/>
<path d="M38.7175 42.0896C40.0384 42.0896 41.1091 43.1624 41.1091 44.4855L46.7455 41.5149C47.8335 40.9415 48.2141 39.5681 47.5769 38.5149C46.987 37.5398 45.737 37.2 44.736 37.7427L36.7178 42.0897H38.7175V42.0896Z" fill="#F4B184"/>
<path d="M26.9771 42.0896L38.6178 35.9841C39.5923 35.473 40.7932 35.7508 41.4454 36.6383C42.2474 37.7296 41.9014 39.2793 40.7116 39.9243L36.7177 42.0896H26.9771Z" fill="#F4B184"/>
<path d="M36.7177 42.0896L40.7116 39.9243C41.7467 39.3631 42.1427 38.1173 41.7002 37.0842L32.5708 42.0896H36.7177Z" fill="#EAA678"/>
<path d="M41.109 44.4855L46.7453 41.5149C47.6868 41.0188 48.0971 39.9239 47.7782 38.9554L40.4575 42.8455C40.8604 43.2743 41.109 43.8502 41.109 44.4855Z" fill="#EAA678"/>
<path d="M41.109 44.4855C41.109 45.6925 40.2126 46.7111 39.0173 46.8625L24.1372 48.7471L30.4568 49.5089C36.3554 50.2198 42.3276 49.048 47.5226 46.16L53.3117 42.9417C54.4398 42.3145 54.7707 40.8427 54.0199 39.7917C53.3921 38.9129 52.2132 38.633 51.2586 39.1361L41.109 44.4855Z" fill="#F4B184"/>
<path d="M53.3117 42.9417C54.3163 42.3832 54.6863 41.1557 54.2258 40.1512L40.3998 47.5612L35.2794 47.3359L24.1372 48.747L30.4568 49.5087C36.3554 50.2197 42.3276 49.0479 47.5226 46.1599L53.3117 42.9417Z" fill="#EAA678"/>
<path d="M7.30465 45.7495C7.30465 45.7495 11.6592 42.066 17.0552 41.0612C22.4513 40.0563 26.9773 42.0896 26.9773 42.0896H38.7175C40.0384 42.0896 41.1091 43.1623 41.1091 44.4855C41.1091 45.6925 40.2129 46.7111 39.0175 46.8624L24.1373 48.747L30.4569 49.5087C36.3555 50.2197 42.3278 49.0478 47.5227 46.1599L55.4293 41.7644C56.5036 41.1979 57.8292 41.4943 58.5611 42.4646C59.4744 43.6755 59.0989 45.4168 57.768 46.1421L46.2064 52.4425C40.4113 55.6006 33.8138 59.7406 27.2428 59.154L7.30465 57.3743H0.9375V45.7495H7.30465Z" fill="#FFC89F"/>
<path d="M58.5611 42.4647C58.5112 42.3988 58.4582 42.3364 58.4032 42.2768C58.2268 42.8874 57.8182 43.4336 57.208 43.7661L45.6464 50.0666C39.8512 53.2247 33.2537 57.3647 26.6827 56.778L6.74461 54.9982H0.9375V57.3743H7.30465L27.2427 59.1542C33.8138 59.7409 40.4113 55.6009 46.2063 52.4428L57.7679 46.1423C59.0989 45.4169 59.4744 43.6756 58.5611 42.4647Z" fill="#F7BC94"/>
<path d="M26.2621 19.5843C26.2621 19.2238 26.2273 18.8717 26.1636 18.5296C25.6683 21.1937 23.3333 23.2114 20.5255 23.2114C17.7178 23.2114 15.3829 21.1937 14.8875 18.5296C14.8239 18.8717 14.7891 19.2238 14.7891 19.5843C14.7891 22.7525 17.3573 25.3207 20.5255 25.3207C23.6938 25.3207 26.2621 22.7525 26.2621 19.5843Z" fill="#F9CF58"/>
<path d="M50.6719 20.6097C52.4032 20.6097 53.8066 19.2062 53.8066 17.4749C53.8066 15.7436 52.4032 14.3401 50.6719 14.3401C48.9406 14.3401 47.5371 15.7436 47.5371 17.4749C47.5371 19.2062 48.9406 20.6097 50.6719 20.6097Z" fill="#FF4755"/>
<path d="M50.6718 18.5002C49.3106 18.5002 48.1526 17.6324 47.7195 16.4202C47.6017 16.7499 47.5371 17.1048 47.5371 17.4749C47.5371 19.2061 48.9405 20.6096 50.6718 20.6096C52.403 20.6096 53.8065 19.2061 53.8065 17.4749C53.8065 17.1048 53.742 16.7499 53.6242 16.4202C53.1909 17.6324 52.0329 18.5002 50.6718 18.5002Z" fill="#FC2B3A"/>
<path d="M45.8169 51.7163C45.2209 52.0411 44.6166 52.3762 44.0046 52.7155C38.8262 55.5866 32.9569 58.8409 27.3158 58.3371L7.33863 56.5537C7.31262 56.5514 7.28648 56.5502 7.26035 56.5502H1.76121V46.6639H7.26023C7.46848 46.6639 7.67004 46.5901 7.82895 46.4557C7.84453 46.4426 9.41824 45.1203 11.814 43.8758C12.2456 43.6516 12.4137 43.1199 12.1896 42.6883C11.9653 42.2569 11.4339 42.0886 11.0021 42.3129C8.98207 43.3623 7.51664 44.4551 6.94875 44.9027H0.880664C0.394336 44.9027 0 45.297 0 45.7834V57.4309C0 57.9172 0.394219 58.3115 0.880664 58.3115H7.22098L27.1591 60.0915C27.6095 60.1317 28.0588 60.1509 28.5082 60.1509C34.226 60.1509 39.8523 57.0316 44.8586 54.256C45.4668 53.9189 46.0673 53.5858 46.6596 53.263C47.0866 53.0302 47.2443 52.4954 47.0115 52.0684C46.7789 51.6411 46.2442 51.4836 45.8169 51.7163Z" fill="#202124"/>
<path d="M59.32 41.9617C58.3837 40.7206 56.7523 40.2919 55.3443 40.8814C55.3083 40.3182 55.1176 39.7695 54.7837 39.3019C53.9031 38.0692 52.2291 37.6721 50.8897 38.378L48.7954 39.4818C48.7685 38.99 48.6235 38.506 48.3648 38.0786C47.5293 36.6973 45.7636 36.2177 44.3451 36.9865L42.7797 37.8352C42.7514 37.2267 42.5453 36.6335 42.1774 36.1327C41.2595 34.8836 39.5976 34.4994 38.2256 35.219L26.9243 41.1464C25.6534 40.6584 21.602 39.3387 16.8685 40.22C16.0519 40.3721 15.2106 40.5919 14.3678 40.8738C13.9065 41.028 13.6576 41.5269 13.8117 41.9881C13.9661 42.4494 14.4652 42.6981 14.9262 42.5442C15.6921 42.2881 16.454 42.0888 17.1907 41.9515C22.2438 41.0106 26.5682 42.9009 26.61 42.9195C26.7236 42.9705 26.8465 42.9969 26.971 42.9969H38.7342C39.57 42.9969 40.2499 43.6788 40.2499 44.5169C40.2499 45.2808 39.6799 45.9291 38.9242 46.0249L24.015 47.9132C23.5739 47.9691 23.2437 48.3449 23.2451 48.7894C23.2464 49.234 23.579 49.6079 24.0203 49.6611L30.3523 50.4243C36.486 51.1634 42.583 49.967 47.9847 46.9642L55.8973 42.5656C56.5934 42.2029 57.4402 42.3944 57.9138 43.0224C58.5056 43.7694 58.2484 44.9672 57.4009 45.4035L48.911 50.0301C47.896 50.5635 48.766 52.139 49.7538 51.5766L58.2437 46.9501C59.1041 46.4813 59.7163 45.6626 59.9235 44.704C60.1308 43.7445 59.9108 42.745 59.32 41.9617ZM39.0437 36.7787C39.6388 36.4666 40.3597 36.6335 40.7583 37.1757C41.2479 37.8071 41.0256 38.8087 40.3138 39.1721L36.5076 41.2356H30.5461L39.0437 36.7787ZM39.8447 41.4298L45.1845 38.5348C45.775 38.2148 46.5099 38.4149 46.8579 38.9903C47.2372 39.5861 46.9998 40.4464 46.3676 40.7614L41.7361 43.2024C41.3763 42.382 40.6913 41.736 39.8447 41.4298ZM47.129 45.4249C42.2853 48.1176 36.8461 49.2645 31.3507 48.7593L39.1456 47.772C40.5917 47.589 41.7223 46.4712 41.9631 45.0735L51.7109 39.936C52.2746 39.639 52.9794 39.8063 53.3504 40.3256C53.7996 40.9224 53.591 41.8538 52.9292 42.2005L47.129 45.4249Z" fill="#202124"/>
<path d="M20.5068 24.0786C21.5013 24.0786 22.4582 23.8634 23.3504 23.4391C23.7897 23.2303 23.9765 22.7048 23.7675 22.2656C23.5587 21.8265 23.0336 21.6396 22.594 21.8485C21.94 22.1595 21.2377 22.3173 20.5068 22.3173C17.8231 22.3173 15.6396 20.1338 15.6396 17.4501C15.6396 14.7664 17.8231 12.5831 20.5068 12.5831C23.1905 12.5831 25.3739 14.7664 25.3739 17.4501C25.3739 18.2718 25.1656 19.0836 24.7715 19.7977C24.5365 20.2236 24.6911 20.7592 25.1169 20.9942C25.5429 21.2292 26.0786 21.0745 26.3134 20.6487C26.851 19.6747 27.1351 18.5687 27.1351 17.45C27.1351 13.795 24.1616 10.8216 20.5068 10.8216C16.8519 10.8216 13.8784 13.795 13.8784 17.45C13.8784 21.1049 16.8519 24.0786 20.5068 24.0786Z" fill="#202124"/>
<path d="M6.75533 20.0684L8.58053 20.3427C8.87854 21.5792 9.36381 22.7504 10.0287 23.8372L8.9315 25.3225C8.41307 26.0245 8.48467 26.9817 9.10178 27.5985L10.3583 28.8551C10.9753 29.4721 11.9326 29.5437 12.6344 29.0253L14.1196 27.9282C15.2064 28.5931 16.3775 29.0785 17.614 29.3765L17.8885 31.2017C18.0182 32.0645 18.7457 32.6908 19.6182 32.6908H21.3951C22.2677 32.6908 22.9952 32.0645 23.1248 31.2016L23.3991 29.3765C24.6357 29.0785 25.8067 28.5931 26.8935 27.9282L28.3789 29.0254C29.0807 29.5437 30.038 29.4722 30.6549 28.8552L31.9114 27.5988C32.5285 26.9819 32.6001 26.0246 32.0817 25.3226L30.9846 23.8374C31.6495 22.7506 32.1349 21.5795 32.4328 20.343L34.2578 20.0686C35.1207 19.9389 35.7471 19.2115 35.7471 18.3388V18.3309H40.9731V29.5553C40.9731 30.6877 41.8945 31.609 43.0269 31.609H46.789C47.1918 33.4041 48.7973 34.7498 50.7121 34.7498C52.9296 34.7498 54.7337 32.9458 54.7337 30.7283C54.7337 28.5108 52.9297 26.7067 50.7121 26.7067C48.7972 26.7067 47.1917 28.0525 46.7889 29.8477H43.0267C42.8655 29.8477 42.7344 29.7166 42.7344 29.5553V18.3309H46.7889C47.1917 20.1261 48.7972 21.4719 50.7121 21.4719C52.9296 21.4719 54.7337 19.6679 54.7337 17.4503C54.7337 15.2328 52.9297 13.4288 50.7121 13.4288C48.7973 13.4288 47.1918 14.7745 46.7889 16.5695H42.7346V5.34533C42.7346 5.18408 42.8657 5.05294 43.027 5.05294H46.7892C47.1919 6.84814 48.7974 8.1938 50.7124 8.1938C52.9298 8.1938 54.7339 6.38982 54.7339 4.17228C54.7339 1.95474 52.9297 0.150757 50.7122 0.150757C48.7974 0.150757 47.1919 1.49642 46.789 3.29162H43.0269C41.8945 3.29162 40.9731 4.21283 40.9731 5.34521V16.5694H35.7471V16.5617C35.7471 15.6892 35.1208 14.9617 34.2579 14.832L32.4328 14.5577C32.1347 13.3211 31.6495 12.1501 30.9846 11.0633L32.0817 9.57802C32.6001 8.87607 32.5286 7.91876 31.9115 7.30189L30.655 6.04529C30.0381 5.4283 29.0808 5.35681 28.3789 5.87513L26.8937 6.97224C25.8067 6.30732 24.6357 5.82193 23.3992 5.52404L23.1249 3.69884C22.9953 2.83599 22.2678 2.20962 21.3952 2.20962H19.6182C18.7457 2.20962 18.0182 2.83587 17.8885 3.69884L17.614 5.52404C16.3776 5.82205 15.2065 6.30732 14.1196 6.97224L12.6344 5.87513C11.9327 5.35669 10.9753 5.42818 10.3583 6.04529L9.10178 7.30166C8.48467 7.91865 8.41307 8.87595 8.9315 9.57779L10.0286 11.063C9.36369 12.1498 8.8783 13.321 8.58041 14.5574L6.75521 14.8318C5.89236 14.9615 5.26611 15.689 5.26611 16.5615V18.3384C5.26611 19.2113 5.89248 19.9387 6.75533 20.0684ZM50.7122 28.4678C51.9585 28.4678 52.9724 29.4817 52.9724 30.728C52.9724 31.9743 51.9585 32.9882 50.7122 32.9882C49.466 32.9882 48.4521 31.9743 48.4521 30.728C48.4521 29.4817 49.466 28.4678 50.7122 28.4678ZM50.7122 15.1899C51.9585 15.1899 52.9724 16.2038 52.9724 17.4501C52.9724 18.6964 51.9585 19.7103 50.7122 19.7103C49.466 19.7103 48.4521 18.6964 48.4521 17.4501C48.4521 16.2038 49.466 15.1899 50.7122 15.1899ZM50.7122 1.91197C51.9585 1.91197 52.9724 2.92587 52.9724 4.17216C52.9724 5.41845 51.9585 6.43236 50.7122 6.43236C49.466 6.43236 48.4521 5.41845 48.4521 4.17216C48.4521 2.92599 49.466 1.91197 50.7122 1.91197ZM7.02732 16.572L9.44455 16.2086C9.81533 16.1529 10.1102 15.8685 10.1792 15.5001C10.4476 14.0689 11.0016 12.7321 11.8257 11.5268C12.0372 11.2175 12.0298 10.808 11.8071 10.5065L10.3544 8.53974L11.5962 7.29802L13.563 8.7508C13.8644 8.97345 14.2737 8.98095 14.5832 8.76943C15.7886 7.94525 17.1254 7.3913 18.5565 7.12283C18.9249 7.0538 19.2092 6.75896 19.265 6.38818L19.6284 3.97095H21.3846L21.7479 6.38818C21.8037 6.75896 22.088 7.0538 22.4565 7.12283C23.8876 7.39119 25.2244 7.94525 26.4297 8.76943C26.7392 8.98107 27.1485 8.97345 27.4501 8.7508L29.4168 7.29802L30.6587 8.53974L29.206 10.5066C28.9833 10.808 28.9758 11.2175 29.1874 11.527C30.0115 12.7322 30.5655 14.069 30.834 15.5003C30.9031 15.8688 31.1979 16.1531 31.5686 16.2088L33.9858 16.5722V18.3284L31.5686 18.6918C31.1979 18.7475 30.9031 19.0319 30.834 19.4003C30.5655 20.8317 30.0115 22.1684 29.1874 23.3737C28.9758 23.6831 28.9832 24.0925 29.206 24.3939L30.6588 26.3607L29.4169 27.6025L27.4502 26.1497C27.1488 25.9271 26.7393 25.9196 26.4298 26.1312C25.2246 26.9554 23.8878 27.5094 22.4565 27.7778C22.088 27.847 21.8037 28.1418 21.7479 28.5125L21.3846 30.9297H19.6284L19.265 28.5125C19.2092 28.1418 18.9249 27.847 18.5565 27.7778C17.1251 27.5094 15.7884 26.9554 14.5831 26.1312C14.2737 25.9197 13.8644 25.9271 13.5629 26.1497L11.5961 27.6025L10.3543 26.3607L11.8071 24.3939C12.0297 24.0925 12.0372 23.6829 11.8257 23.3737C11.0015 22.1684 10.4476 20.8317 10.1792 19.4004C10.1101 19.032 9.81533 18.7476 9.44455 18.6919L7.02732 18.3285V16.572Z" fill="#202124"/>
</svg>
