<svg width="79" height="62" viewBox="0 0 79 62" fill="none" xmlns="http://www.w3.org/2000/svg">
<path d="M76.6719 46.9377C76.6719 53.7186 69.9531 60.219 63.2344 60.219C59.8956 60.2215 56.6743 59.0011 54.1926 56.7935C51.7109 54.586 50.1449 51.5479 49.7969 48.2659H4.10938C3.39661 48.2659 2.71303 47.986 2.20903 47.4879C1.70502 46.9897 1.42188 46.3141 1.42188 45.6096V4.43774C1.42188 3.73326 1.70502 3.05764 2.20903 2.55949C2.71303 2.06135 3.39661 1.78149 4.10938 1.78149H60.5469C61.2596 1.78149 61.9432 2.06135 62.4472 2.55949C62.9512 3.05764 63.2344 3.73326 63.2344 4.43774V33.6565C66.7685 33.7496 70.132 35.1787 72.6318 37.6495C75.1317 40.1204 76.5777 43.4447 76.6719 46.9377Z" fill="#FAFAFA"/>
<path d="M55.1719 12.4065C55.1719 13.4572 54.8567 14.4843 54.266 15.358C53.6754 16.2316 52.836 16.9125 51.8538 17.3146C50.8717 17.7167 49.7909 17.8219 48.7483 17.6169C47.7056 17.4119 46.7479 16.906 45.9962 16.163C45.2445 15.42 44.7326 14.4734 44.5252 13.4429C44.3178 12.4124 44.4242 11.3442 44.831 10.3735C45.2378 9.40276 45.9268 8.57306 46.8107 7.98931C47.6946 7.40557 48.7338 7.09399 49.7969 7.09399C51.2224 7.09399 52.5896 7.6537 53.5976 8.64999C54.6056 9.64628 55.1719 10.9975 55.1719 12.4065Z" fill="#E0E0E0"/>
<path d="M3.19452 46.1023L23.2005 21.6763C23.3279 21.5208 23.4892 21.3957 23.6723 21.3105C23.8554 21.2252 24.0557 21.1819 24.2581 21.1839C24.4605 21.1859 24.6598 21.233 24.8412 21.3218C25.0226 21.4105 25.1814 21.5387 25.3057 21.6966L33.6722 32.3285L42.077 24.0215C42.206 23.8941 42.3598 23.794 42.5292 23.7272C42.6986 23.6605 42.8799 23.6285 43.0622 23.6332C43.2445 23.6379 43.4239 23.6793 43.5895 23.7547C43.7551 23.8302 43.9034 23.9382 44.0254 24.0721L55.1722 36.3129C55.1722 36.3129 49.7972 38.9692 49.7972 48.266H4.10975C3.85952 48.2587 3.61672 48.1803 3.41042 48.0401C3.20413 47.8999 3.04306 47.704 2.9465 47.4757C2.84994 47.2474 2.82198 46.9965 2.86597 46.7529C2.90995 46.5093 3.02402 46.2834 3.19452 46.1023Z" fill="#E0E0E0"/>
<path d="M70.7923 44.5726C70.9342 44.6801 71.053 44.8146 71.1417 44.968C71.2304 45.1215 71.2872 45.2909 71.3088 45.4663C71.3304 45.6417 71.3163 45.8197 71.2675 45.9897C71.2186 46.1597 71.1359 46.3183 71.0242 46.4563C70.9125 46.5943 70.7741 46.7089 70.617 46.7934C70.46 46.8778 70.2874 46.9305 70.1095 46.9482C69.9316 46.9659 69.7519 46.9483 69.581 46.8965C69.41 46.8447 69.2512 46.7597 69.114 46.6465L64.5781 43.0606V53.5784C64.5781 53.9306 64.4366 54.2684 64.1845 54.5175C63.9325 54.7666 63.5908 54.9065 63.2344 54.9065C62.878 54.9065 62.5362 54.7666 62.2842 54.5175C62.0322 54.2684 61.8906 53.9306 61.8906 53.5784V43.0606L57.3548 46.6465C57.2175 46.7597 57.0587 46.8447 56.8878 46.8965C56.7168 46.9483 56.5371 46.9659 56.3592 46.9482C56.1813 46.9305 56.0088 46.8778 55.8517 46.7934C55.6946 46.7089 55.5562 46.5943 55.4445 46.4563C55.3328 46.3183 55.2501 46.1597 55.2013 45.9897C55.1524 45.8197 55.1384 45.6417 55.16 45.4663C55.1816 45.2909 55.2384 45.1215 55.3271 44.968C55.4158 44.8146 55.5345 44.6801 55.6765 44.5726L62.3952 39.2601C62.6334 39.0719 62.9294 38.9693 63.2344 38.9693C63.5394 38.9693 63.8353 39.0719 64.0735 39.2601L70.7923 44.5726ZM78.0156 46.9377C78.0169 50.5809 76.6404 54.093 74.1564 56.7846C71.6723 59.4763 68.26 61.153 64.5894 61.4857C60.9187 61.8184 57.2548 60.783 54.3169 58.5829C51.3789 56.3827 49.3791 53.1766 48.7099 49.594H4.10938C3.04058 49.5928 2.0159 49.1727 1.26015 48.4257C0.504395 47.6788 0.0792987 46.666 0.078125 45.6096V4.43774C0.0792987 3.38138 0.504395 2.36861 1.26015 1.62165C2.0159 0.874683 3.04058 0.454529 4.10938 0.453369H60.5469C61.6157 0.454529 62.6404 0.874683 63.3961 1.62165C64.1519 2.36861 64.577 3.38138 64.5781 4.43774V32.3957C68.248 32.7302 71.6594 34.4064 74.1448 37.096C76.6301 39.7856 78.0105 43.2952 78.0156 46.9377ZM2.76562 4.43774V44.8128L22.1064 20.9174C22.3659 20.5967 22.697 20.3398 23.0739 20.167C23.4508 19.9942 23.863 19.91 24.2784 19.9212C24.6937 19.9324 25.1007 20.0386 25.4675 20.2315C25.8343 20.4243 26.1508 20.6986 26.3922 21.0328L33.6747 30.4476L41.0665 23.1417C41.3316 22.8746 41.6519 22.6671 42.0055 22.5335C42.3591 22.3999 42.7377 22.3432 43.1155 22.3674C43.4929 22.3882 43.8616 22.4873 44.1976 22.6584C44.5336 22.8295 44.8293 23.0687 45.0655 23.3603L55.3909 34.5768C57.3523 33.3516 59.58 32.6041 61.8906 32.3957V4.43774C61.8902 4.08564 61.7484 3.7481 61.4965 3.49912C61.2446 3.25015 60.9031 3.11008 60.5469 3.10962H4.10938C3.75313 3.11008 3.41161 3.25015 3.15971 3.49912C2.90781 3.7481 2.76609 4.08564 2.76562 4.43774ZM24.2308 22.6113L4.48791 46.9377H43.0468L24.2308 22.6113ZM48.4531 46.9377C48.4543 44.9165 48.8814 42.9176 49.7071 41.0684C50.5328 39.2192 51.7392 37.5603 53.2492 36.1972L43.0217 25.084L35.3255 32.5819L46.4298 46.9377H48.4531ZM75.3281 46.9377C75.3281 44.5736 74.6188 42.2626 73.29 40.2969C71.9611 38.3313 70.0723 36.7992 67.8624 35.8945C65.6526 34.9898 63.221 34.7531 60.875 35.2143C58.529 35.6755 56.3741 36.8139 54.6828 38.4856C52.9915 40.1573 51.8396 42.2871 51.373 44.6058C50.9064 46.9245 51.1459 49.3279 52.0612 51.512C52.9766 53.6962 54.5266 55.563 56.5154 56.8764C58.5043 58.1898 60.8425 58.8909 63.2344 58.8909C66.4407 58.8874 69.5148 57.6269 71.782 55.386C74.0493 53.1451 75.3246 50.1068 75.3281 46.9377ZM43.0781 12.4065C43.0781 11.0931 43.4722 9.80921 44.2104 8.71716C44.9487 7.62512 45.998 6.77397 47.2257 6.27136C48.4534 5.76874 49.8043 5.63724 51.1076 5.89347C52.4109 6.1497 53.6081 6.78216 54.5477 7.71086C55.4874 8.63957 56.1273 9.82282 56.3865 11.111C56.6458 12.3991 56.5127 13.7343 56.0042 14.9478C55.4957 16.1612 54.6345 17.1983 53.5296 17.928C52.4247 18.6577 51.1257 19.0471 49.7969 19.0471C48.0156 19.045 46.3079 18.3447 45.0483 17.0998C43.7888 15.8549 43.0802 14.1671 43.0781 12.4065ZM45.7656 12.4065C45.7656 13.1945 46.0021 13.9649 46.445 14.6201C46.888 15.2753 47.5176 15.786 48.2542 16.0876C48.9908 16.3891 49.8013 16.4681 50.5833 16.3143C51.3653 16.1606 52.0836 15.7811 52.6474 15.2239C53.2112 14.6666 53.5951 13.9567 53.7507 13.1838C53.9062 12.4109 53.8264 11.6098 53.5213 10.8817C53.2161 10.1537 52.6995 9.53142 52.0365 9.09361C51.3736 8.6558 50.5942 8.42212 49.7969 8.42212C48.7281 8.42328 47.7034 8.84343 46.9476 9.5904C46.1919 10.3374 45.7668 11.3501 45.7656 12.4065Z" fill="#9E9E9E"/>
</svg>
