<svg width="24" height="25" viewBox="0 0 24 25" fill="none" xmlns="http://www.w3.org/2000/svg">
<path d="M23 12.1508L20.56 9.36076L20.9 5.67076L17.29 4.85076L15.4 1.65076L12 3.11076L8.6 1.65076L6.71 4.84076L3.1 5.65076L3.44 9.35076L1 12.1508L3.44 14.9408L3.1 18.6408L6.71 19.4608L8.6 22.6508L12 21.1808L15.4 22.6408L17.29 19.4508L20.9 18.6308L20.56 14.9408L23 12.1508ZM9.38 16.1608L7 13.7608C6.61 13.3708 6.61 12.7408 7 12.3508L7.07 12.2808C7.46 11.8908 8.1 11.8908 8.49 12.2808L10.1 13.9008L15.25 8.74076C15.64 8.35076 16.28 8.35076 16.67 8.74076L16.74 8.81076C17.13 9.20076 17.13 9.83076 16.74 10.2208L10.82 16.1608C10.41 16.5508 9.78 16.5508 9.38 16.1608Z" fill="#FFD700"/>
</svg>
